<svg width="330" height="240" viewBox="0 0 330 240" fill="none" xmlns="http://www.w3.org/2000/svg">
<g clip-path="url(#clip0_7726_1988)">
<path d="M107.185 89.0545V87.5378H94.0639V89.2991H91.1818V130.587H110.329V89.0545H107.185ZM108.67 125.855H92.6406V124.631H108.67V125.855ZM108.67 120.215H92.6406V118.992H108.67V120.215ZM108.67 114.575H92.6406V113.352H108.67V114.575ZM108.67 109.087H92.6406V107.864H108.67V109.087ZM108.67 103.612H92.6406V102.389H108.67V103.612ZM108.67 97.9721H92.6406V96.749H108.67V97.9721ZM108.67 92.4837H92.6406V91.2605H108.67V92.4837Z" fill="url(#paint0_linear_7726_1988)"/>
<path d="M81.3924 112.098V63.983H66.8263V60.0957H60.6618V83.8152H59.0028V156.383H85.0262V112.102H81.3924V112.098ZM70.5001 126.246H66.8263V122.683H70.5001V126.246ZM70.5001 120.673H66.8263V117.111H70.5001V120.673ZM70.5001 115.127H66.8263V111.564H70.5001V115.127ZM70.5001 109.594H66.8263V106.031H70.5001V109.594ZM70.5001 104.021H66.8263V100.458H70.5001V104.021ZM70.5001 92.9018H66.8263V89.3392H70.5001V92.9018ZM70.5001 87.3288H66.8263V83.7663H70.5001V87.3288ZM70.5001 81.7781H66.8263V78.2155H70.5001V81.7781ZM70.5001 76.2497H66.8263V72.6871H70.5001V76.2497ZM70.5001 70.6723H66.8263V67.1097H70.5001V70.6723ZM75.9929 126.246H72.3192V122.683H75.9929V126.246ZM75.9929 120.673H72.3192V117.111H75.9929V120.673ZM75.9929 115.127H72.3192V111.564H75.9929V115.127ZM75.9929 109.594H72.3192V106.031H75.9929V109.594ZM75.9929 104.021H72.3192V100.458H75.9929V104.021ZM75.9929 92.9018H72.3192V89.3392H75.9929V92.9018ZM75.9929 87.3288H72.3192V83.7663H75.9929V87.3288ZM75.9929 81.7781H72.3192V78.2155H75.9929V81.7781ZM75.9929 76.2497H72.3192V72.6871H75.9929V76.2497ZM75.9929 70.6723H72.3192V67.1097H75.9929V70.6723Z" fill="url(#paint1_linear_7726_1988)"/>
<path d="M224.746 137.396C224.906 135.328 224.746 67.799 224.746 67.799H232.987V82.7921H246.108V114.126H253.549V137.396H224.746Z" fill="url(#paint2_linear_7726_1988)"/>
<path d="M278.66 107.09V104.933H276.437V86.1058H271.01V84.0154H267.35V80.942H265.442V71.9844H264.068V81.0043H262.315V84.0776H256.889V89.1124H253.753V147.479H280.164V107.085H278.66V107.09ZM258.415 130.565H256.627V123.786H258.415V130.565ZM258.415 122.27H256.627V115.492H258.415V122.27ZM258.415 113.975H256.627V107.197H258.415V113.975ZM258.415 105.533H256.627V98.755H258.415V105.533ZM258.415 97.0871H256.627V90.3088H258.415V97.0871ZM262.097 130.565H260.309V123.786H262.097V130.565ZM262.097 122.27H260.309V115.492H262.097V122.27ZM262.097 113.975H260.309V107.197H262.097V113.975ZM262.097 105.533H260.309V98.755H262.097V105.533ZM262.097 97.0871H260.309V90.3088H262.097V97.0871ZM265.78 130.565H263.992V123.786H265.78V130.565ZM265.78 122.27H263.992V115.492H265.78V122.27ZM265.78 113.975H263.992V107.197H265.78V113.975ZM265.78 105.533H263.992V98.755H265.78V105.533ZM265.78 97.0871H263.992V90.3088H265.78V97.0871ZM269.463 130.565H267.675V123.786H269.463V130.565ZM269.463 122.27H267.675V115.492H269.463V122.27ZM269.463 113.975H267.675V107.197H269.463V113.975ZM269.463 105.533H267.675V98.755H269.463V105.533ZM269.463 97.0871H267.675V90.3088H269.463V97.0871ZM273.145 130.565H271.357V123.786H273.145V130.565ZM273.145 122.27H271.357V115.492H273.145V122.27ZM273.145 113.975H271.357V107.197H273.145V113.975ZM273.145 105.533H271.357V98.755H273.145V105.533ZM273.145 97.0871H271.357V90.3088H273.145V97.0871Z" fill="url(#paint3_linear_7726_1988)"/>
<path d="M28.8566 166.195V126.371H33.4154V106.045L49.1024 99.2531V126.05H52.5405V166.195H28.8566Z" fill="url(#paint4_linear_7726_1988)"/>
<path d="M297.839 158.812H284.078V104.048L297.839 110.706V158.812Z" fill="url(#paint5_linear_7726_1988)"/>
<path d="M26.5528 26.8004C26.5528 26.8004 30.7069 15.4677 40.9188 19.9154C43.2761 17.5226 46.1937 15.7835 50.1388 16.5663C54.0839 17.3535 56.628 20.3068 57.4908 22.2727C58.7273 22.2149 68.6278 22.544 68.6278 32.8137C68.6278 43.0834 56.6458 42.8877 55.7785 42.0737C54.711 43.0255 49.5784 48.1893 43.3517 42.2961C42.004 43.4481 37.6008 48.3272 30.6402 41.5934C27.4156 42.941 19.7523 43.9774 18.2668 36.0649C16.7812 28.1525 24.4001 25.9198 26.5528 26.8004Z" fill="url(#paint6_linear_7726_1988)"/>
<path d="M256.529 10.424C256.529 10.424 260.683 -0.908674 270.895 3.539C273.252 1.14615 276.17 -0.592888 280.115 0.189903C284.06 0.977142 286.604 3.9304 287.467 5.89628C288.703 5.83846 298.604 6.16758 298.604 16.4373C298.604 26.707 286.622 26.5113 285.755 25.6973C284.687 26.6491 279.555 31.8129 273.328 25.9197C271.98 27.0717 267.577 31.9508 260.616 25.217C257.392 26.5646 249.728 27.601 248.243 19.6885C246.753 11.7806 254.376 9.54338 256.529 10.424Z" fill="url(#paint7_linear_7726_1988)"/>
<path d="M217.594 38.2754C217.594 38.2754 220.601 30.0694 227.993 33.294C229.7 31.5594 231.809 30.3007 234.669 30.87C237.524 31.4393 239.365 33.5787 239.988 34.9975C240.882 34.9574 248.052 35.1932 248.052 42.6252C248.052 50.0573 239.379 49.915 238.751 49.3279C237.978 50.0173 234.264 53.7533 229.754 49.4925C228.78 50.3242 225.591 53.8601 220.556 48.9854C218.221 49.9595 212.675 50.7111 211.598 44.9825C210.522 39.2539 216.037 37.6394 217.594 38.2754Z" fill="url(#paint8_linear_7726_1988)"/>
<path d="M165 240C256.127 240 330 213.137 330 180C330 146.863 256.127 120 165 120C73.873 120 0 146.863 0 180C0 213.137 73.873 240 165 240Z" fill="url(#paint9_linear_7726_1988)"/>
<path d="M52.0066 189.314C52.0066 189.314 50.4366 191.542 53.0607 194.86C55.4002 197.814 59.0962 197.24 60.3237 196.293C60.7018 198.863 63.8552 204.281 68.8455 201.216C73.5378 198.339 71.2784 193.962 69.7795 192.241C72.7105 191.413 74.8943 184.391 68.1694 181.967C69.1657 179.067 69.3436 177.755 67.8848 175.148C66.4793 172.64 64.171 172.24 60.4883 173.765L55.16 176.011L51.7664 169.678L49.9518 170.727L53.8657 176.776L48.6797 179.378C48.6797 179.378 44.2454 181.113 46.1579 185.872C47.9325 190.279 52.0066 189.314 52.0066 189.314Z" fill="url(#paint10_linear_7726_1988)"/>
<path d="M42.978 162.308H59.0163C59.0163 162.308 64.1979 162.455 65.2297 156.535C66.3639 150.037 61.636 149.143 61.636 149.143C61.636 149.143 64.4825 147.835 63.8643 142.92C63.2416 138.01 58.9185 137.387 57.1172 137.614C57.4107 134.701 58.0245 128.105 51.1751 128.038C44.5614 127.972 44.6014 134.63 45.0951 137.254C42.7378 137.281 35.6171 140.817 40.6252 148.573C37.8987 150.908 36.7468 152.256 36.8669 155.623C36.987 158.994 39.0507 162.308 42.978 162.308Z" fill="url(#paint11_linear_7726_1988)"/>
<path d="M58.625 153.306L51.7844 157.811L51.5976 153.457L55.9208 148.36L51.5309 151.909L50.9616 138.611L50.5435 151.998L45.9268 148.324L50.4991 153.359L50.3567 157.838L43.325 152.67L50.3078 159.457L49.9564 170.732H52.3359L51.8556 159.524L58.625 153.306Z" fill="#C6D5E6"/>
<path d="M284.362 181.17C284.362 181.17 282.917 183.225 285.332 186.276C287.484 188.998 290.891 188.469 292.021 187.593C292.368 189.959 295.277 194.945 299.871 192.129C304.19 189.479 302.113 185.449 300.73 183.866C303.429 183.105 305.44 176.634 299.249 174.405C300.169 171.737 300.334 170.527 298.986 168.13C297.692 165.821 295.566 165.448 292.177 166.858L287.266 168.926L284.14 163.095L282.472 164.06L286.074 169.629L281.302 172.026C281.302 172.026 277.219 173.623 278.98 178.008C280.613 182.064 284.362 181.17 284.362 181.17Z" fill="url(#paint12_linear_7726_1988)"/>
<path d="M276.05 156.303H290.816C290.816 156.303 295.588 156.441 296.536 150.988C297.576 145.006 293.226 144.184 293.226 144.184C293.226 144.184 295.851 142.978 295.277 138.455C294.703 133.932 290.722 133.358 289.063 133.571C289.335 130.889 289.9 124.814 283.593 124.752C277.504 124.689 277.54 130.818 277.993 133.238C275.823 133.26 269.262 136.516 273.879 143.663C271.371 145.811 270.308 147.057 270.419 150.152C270.534 153.252 272.434 156.303 276.05 156.303Z" fill="url(#paint13_linear_7726_1988)"/>
<path d="M290.456 148.017L284.158 152.158L283.984 148.151L287.969 143.459L283.926 146.728L283.402 134.479L283.015 146.808L278.763 143.423L282.975 148.062L282.846 152.189L276.365 147.426L282.797 153.675L282.472 164.06H284.665L284.224 153.737L290.456 148.017Z" fill="#C6D5E6"/>
<path d="M88.8909 141.052C88.8909 141.052 88.1126 142.155 89.4113 143.797C90.5677 145.26 92.3957 144.975 93.005 144.504C93.1918 145.776 94.753 148.453 97.2214 146.941C99.5431 145.518 98.4268 143.352 97.684 142.502C99.1339 142.093 100.215 138.619 96.8879 137.423C97.3816 135.991 97.4705 135.342 96.7455 134.052C96.0517 132.811 94.9086 132.611 93.0895 133.367L90.4521 134.479L88.7753 131.348L87.8769 131.868L89.8116 134.857L87.2453 136.142C87.2453 136.142 85.0526 137.001 85.9999 139.353C86.8761 141.533 88.8909 141.052 88.8909 141.052Z" fill="url(#paint14_linear_7726_1988)"/>
<path d="M84.4257 127.696H92.3559C92.3559 127.696 94.9178 127.767 95.4293 124.841C95.9897 121.625 93.6502 121.185 93.6502 121.185C93.6502 121.185 95.0601 120.535 94.7532 118.107C94.4463 115.678 92.307 115.371 91.4175 115.483C91.5642 114.042 91.8667 110.777 88.4775 110.746C85.2041 110.715 85.2263 114.006 85.4709 115.305C84.3056 115.318 80.7831 117.066 83.2604 120.904C81.9128 122.056 81.339 122.728 81.4013 124.391C81.4636 126.059 82.4865 127.696 84.4257 127.696Z" fill="url(#paint15_linear_7726_1988)"/>
<path d="M92.1644 123.244L88.7797 125.472L88.6907 123.319L90.8301 120.798L88.6552 122.554L88.375 115.976L88.1659 122.594L85.8843 120.78L88.1481 123.271L88.077 125.485L84.5989 122.928L88.0503 126.286L87.8768 131.863H89.0554L88.8197 126.317L92.1644 123.244Z" fill="#C6D5E6"/>
<path d="M238.627 107.864C232.805 127.162 201.551 134.808 168.829 124.93C136.103 115.056 114.297 91.403 120.119 72.1045C125.941 52.8061 157.194 45.1605 189.916 55.0388C222.638 64.9171 244.449 88.5654 238.627 107.864Z" fill="url(#paint16_linear_7726_1988)"/>
<path d="M105.846 148.453L154.788 87.9827L200.84 102.473L213.444 166.515C213.444 166.515 188.008 179.858 152.209 173.191C122.111 167.587 105.846 148.453 105.846 148.453Z" fill="url(#paint17_linear_7726_1988)"/>
<path d="M200.84 102.473C198.518 110.172 186.278 113.29 173.504 109.438C160.731 105.582 152.258 96.2153 154.584 88.5164C156.91 80.8175 169.146 77.6996 181.919 81.5513C194.693 85.403 203.161 94.7743 200.84 102.473Z" fill="url(#paint18_linear_7726_1988)"/>
<path d="M181.866 68.3863C182.156 66.2665 179.542 64.1584 176.028 63.6778C172.514 63.1972 169.43 64.526 169.14 66.6458C168.85 68.7657 171.464 70.8738 174.978 71.3544C178.493 71.835 181.577 70.5062 181.866 68.3863Z" fill="white"/>
<path d="M152.279 72.7239C155.781 72.1613 158.345 69.9929 158.005 67.8806C157.666 65.7682 154.552 64.5119 151.05 65.0744C147.548 65.637 144.984 67.8054 145.324 69.9178C145.663 72.0301 148.777 73.2864 152.279 72.7239Z" fill="white"/>
<path d="M202.73 77.0535C203.696 75.1444 201.913 72.2988 198.748 70.6977C195.583 69.0965 192.235 69.3462 191.269 71.2553C190.303 73.1644 192.086 76.0099 195.251 77.6111C198.416 79.2122 201.765 78.9625 202.73 77.0535Z" fill="white"/>
<path d="M218.877 93.9893C220.39 92.4764 219.583 89.2168 217.075 86.7087C214.567 84.2006 211.308 83.3938 209.795 84.9066C208.282 86.4195 209.089 89.6791 211.597 92.1872C214.105 94.6953 217.365 95.5021 218.877 93.9893Z" fill="white"/>
<path d="M192.171 39.6187L198.073 29.9183L202.281 31.5328L199.447 42.8521L192.171 39.6187Z" fill="url(#paint19_linear_7726_1988)"/>
<path d="M193.773 174.035L255.171 211.251L231.411 187.714L235.295 187.69L243.204 193.397L237.61 187.393L241.422 187.955L291 215.682L172.342 240L133.5 174.035H138.006L173.315 197.196L151.541 171.344L160.308 174.339L169.182 171L202.247 193.675L189.268 174.035H193.773Z" fill="url(#paint20_linear_7726_1988)"/>
<path d="M189.916 55.0387C201.991 58.6814 212.577 64.2009 220.841 70.6857C221.73 57.0713 211.598 43.5459 195.965 38.8314C180.696 34.2236 165.151 39.5252 158.111 50.809C167.927 50.3642 178.837 51.6941 189.916 55.0387Z" fill="url(#paint21_linear_7726_1988)"/>
<path d="M207.324 29.7937C208.191 26.9205 206.168 23.7626 202.805 22.7486C199.443 21.7345 196.014 23.2423 195.146 26.1155C194.279 28.9887 196.303 32.1465 199.665 33.1606C203.028 34.1791 206.457 32.6669 207.324 29.7937Z" fill="url(#paint22_linear_7726_1988)"/>
<path d="M135.067 177.804C133.822 177.804 132.812 176.865 132.812 175.709V167.863H121.995C121.155 167.863 120.385 167.432 119.998 166.738C119.611 166.048 119.665 165.212 120.145 164.572L133.217 147.057C133.777 146.305 134.8 145.976 135.743 146.252C136.682 146.527 137.322 147.337 137.322 148.253V163.673H142.388C143.633 163.673 144.643 164.612 144.643 165.768C144.643 166.925 143.633 167.863 142.388 167.863H137.322V175.709C137.322 176.865 136.312 177.804 135.067 177.804ZM126.305 163.669H132.817V154.947L126.305 163.669Z" fill="url(#paint23_linear_7726_1988)"/>
<path d="M190.886 177.804C189.64 177.804 188.631 176.865 188.631 175.709V167.863H177.809C176.969 167.863 176.199 167.432 175.812 166.738C175.426 166.048 175.479 165.212 175.959 164.572L189.031 147.057C189.591 146.305 190.614 145.976 191.557 146.252C192.496 146.527 193.136 147.337 193.136 148.253V163.673H198.202C199.447 163.673 200.457 164.612 200.457 165.768C200.457 166.925 199.447 167.863 198.202 167.863H193.136V175.709C193.141 176.865 192.131 177.804 190.886 177.804ZM182.119 163.669H188.631V154.947L182.119 163.669Z" fill="url(#paint24_linear_7726_1988)"/>
<path d="M159.645 178.484C154.664 178.484 150.607 174.712 150.607 170.078V153.884C150.607 149.249 154.664 145.478 159.645 145.478C164.627 145.478 168.683 149.249 168.683 153.884V170.078C168.683 174.712 164.627 178.484 159.645 178.484ZM159.645 149.668C157.146 149.668 155.117 151.558 155.117 153.88V170.074C155.117 172.395 157.15 174.285 159.645 174.285C162.145 174.285 164.173 172.395 164.173 170.074V153.88C164.173 151.558 162.14 149.668 159.645 149.668Z" fill="url(#paint25_linear_7726_1988)"/>
</g>
<defs>
<linearGradient id="paint0_linear_7726_1988" x1="100.753" y1="130.588" x2="100.753" y2="87.5395" gradientUnits="userSpaceOnUse">
<stop offset="5.35827e-07" stop-color="white" stop-opacity="0"/>
<stop offset="1" stop-color="#DBE3EE"/>
</linearGradient>
<linearGradient id="paint1_linear_7726_1988" x1="72.013" y1="156.381" x2="72.013" y2="60.0934" gradientUnits="userSpaceOnUse">
<stop offset="5.35827e-07" stop-color="white" stop-opacity="0"/>
<stop offset="1" stop-color="#DBE3EE"/>
</linearGradient>
<linearGradient id="paint2_linear_7726_1988" x1="239.149" y1="137.399" x2="239.149" y2="67.8009" gradientUnits="userSpaceOnUse">
<stop offset="5.35827e-07" stop-color="white" stop-opacity="0"/>
<stop offset="1" stop-color="#DBE3EE"/>
</linearGradient>
<linearGradient id="paint3_linear_7726_1988" x1="266.958" y1="147.482" x2="266.958" y2="71.9863" gradientUnits="userSpaceOnUse">
<stop offset="5.35827e-07" stop-color="white" stop-opacity="0"/>
<stop offset="1" stop-color="#DBE3EE"/>
</linearGradient>
<linearGradient id="paint4_linear_7726_1988" x1="40.6988" y1="166.197" x2="40.6988" y2="99.2531" gradientUnits="userSpaceOnUse">
<stop offset="5.35827e-07" stop-color="white" stop-opacity="0"/>
<stop offset="1" stop-color="#EDF1F9"/>
</linearGradient>
<linearGradient id="paint5_linear_7726_1988" x1="290.958" y1="158.811" x2="290.958" y2="104.046" gradientUnits="userSpaceOnUse">
<stop offset="5.35827e-07" stop-color="white" stop-opacity="0"/>
<stop offset="1" stop-color="#EDF1F9"/>
</linearGradient>
<linearGradient id="paint6_linear_7726_1988" x1="43.3513" y1="45.0831" x2="43.3513" y2="16.3772" gradientUnits="userSpaceOnUse">
<stop offset="0.2332" stop-color="white" stop-opacity="0"/>
<stop offset="1" stop-color="#D3DFEE"/>
</linearGradient>
<linearGradient id="paint7_linear_7726_1988" x1="273.327" y1="28.7066" x2="273.327" y2="0.000653604" gradientUnits="userSpaceOnUse">
<stop offset="0.2332" stop-color="white" stop-opacity="0"/>
<stop offset="1" stop-color="#D3DFEE"/>
</linearGradient>
<linearGradient id="paint8_linear_7726_1988" x1="229.755" y1="51.5085" x2="229.755" y2="30.7302" gradientUnits="userSpaceOnUse">
<stop offset="0.2332" stop-color="white" stop-opacity="0"/>
<stop offset="1" stop-color="#D3DFEE"/>
</linearGradient>
<linearGradient id="paint9_linear_7726_1988" x1="165.002" y1="240.001" x2="165.002" y2="119.998" gradientUnits="userSpaceOnUse">
<stop offset="0.4065" stop-color="white" stop-opacity="0"/>
<stop offset="1" stop-color="#DAE4EF"/>
</linearGradient>
<linearGradient id="paint10_linear_7726_1988" x1="72.0138" y1="198.676" x2="49.1367" y2="171.412" gradientUnits="userSpaceOnUse">
<stop offset="0.4034" stop-color="#EFF4F8"/>
<stop offset="1" stop-color="#D4DFEC"/>
</linearGradient>
<linearGradient id="paint11_linear_7726_1988" x1="36.8561" y1="145.175" x2="65.4043" y2="145.175" gradientUnits="userSpaceOnUse">
<stop offset="0.1022" stop-color="#F0F5F8"/>
<stop offset="1" stop-color="#B4C7DC"/>
</linearGradient>
<linearGradient id="paint12_linear_7726_1988" x1="302.787" y1="189.793" x2="281.72" y2="164.687" gradientUnits="userSpaceOnUse">
<stop offset="0.4034" stop-color="#EFF4F8"/>
<stop offset="1" stop-color="#D4DFEC"/>
</linearGradient>
<linearGradient id="paint13_linear_7726_1988" x1="270.412" y1="140.526" x2="296.701" y2="140.526" gradientUnits="userSpaceOnUse">
<stop offset="0.1022" stop-color="#F0F5F8"/>
<stop offset="1" stop-color="#B4C7DC"/>
</linearGradient>
<linearGradient id="paint14_linear_7726_1988" x1="98.7884" y1="145.685" x2="87.4729" y2="132.2" gradientUnits="userSpaceOnUse">
<stop offset="1.4385e-07" stop-color="#EAEFF6"/>
<stop offset="1" stop-color="#CDDAE9"/>
</linearGradient>
<linearGradient id="paint15_linear_7726_1988" x1="81.3989" y1="119.223" x2="95.5194" y2="119.223" gradientUnits="userSpaceOnUse">
<stop offset="0.1022" stop-color="#F0F5F8"/>
<stop offset="1" stop-color="#B4C7DC"/>
</linearGradient>
<linearGradient id="paint16_linear_7726_1988" x1="119.177" y1="89.9854" x2="239.567" y2="89.9854" gradientUnits="userSpaceOnUse">
<stop stop-color="#EFF3F9"/>
<stop offset="1" stop-color="#B6C9DE"/>
</linearGradient>
<linearGradient id="paint17_linear_7726_1988" x1="159.645" y1="87.9868" x2="159.645" y2="175.058" gradientUnits="userSpaceOnUse">
<stop stop-color="#F4F7FA"/>
<stop offset="1" stop-color="#F1F4F9"/>
</linearGradient>
<linearGradient id="paint18_linear_7726_1988" x1="154.198" y1="95.4964" x2="201.222" y2="95.4964" gradientUnits="userSpaceOnUse">
<stop stop-color="white"/>
<stop offset="1" stop-color="#E3E9F3"/>
</linearGradient>
<linearGradient id="paint19_linear_7726_1988" x1="192.172" y1="36.3854" x2="202.278" y2="36.3854" gradientUnits="userSpaceOnUse">
<stop stop-color="#EFF3F9"/>
<stop offset="1" stop-color="#B6C9DE"/>
</linearGradient>
<linearGradient id="paint20_linear_7726_1988" x1="225.649" y1="229.625" x2="210.293" y2="157.651" gradientUnits="userSpaceOnUse">
<stop offset="0.2334" stop-color="white" stop-opacity="0"/>
<stop offset="1" stop-color="#BBCBE0"/>
</linearGradient>
<linearGradient id="paint21_linear_7726_1988" x1="158.112" y1="53.9289" x2="220.894" y2="53.9289" gradientUnits="userSpaceOnUse">
<stop stop-color="#EFF3F9"/>
<stop offset="1" stop-color="#B6C9DE"/>
</linearGradient>
<linearGradient id="paint22_linear_7726_1988" x1="194.944" y1="27.956" x2="207.526" y2="27.956" gradientUnits="userSpaceOnUse">
<stop stop-color="#EFF3F9"/>
<stop offset="1" stop-color="#B6C9DE"/>
</linearGradient>
<linearGradient id="paint23_linear_7726_1988" x1="132.19" y1="146.153" x2="132.19" y2="177.805" gradientUnits="userSpaceOnUse">
<stop stop-color="#DDE5F0"/>
<stop offset="1" stop-color="#9FB7CE"/>
</linearGradient>
<linearGradient id="paint24_linear_7726_1988" x1="188.006" y1="146.153" x2="188.006" y2="177.805" gradientUnits="userSpaceOnUse">
<stop stop-color="#DDE5F0"/>
<stop offset="1" stop-color="#9FB7CE"/>
</linearGradient>
<linearGradient id="paint25_linear_7726_1988" x1="159.645" y1="145.475" x2="159.645" y2="178.484" gradientUnits="userSpaceOnUse">
<stop stop-color="#DDE5F0"/>
<stop offset="1" stop-color="#9FB7CE"/>
</linearGradient>
<clipPath id="clip0_7726_1988">
<rect width="330" height="240" fill="white"/>
</clipPath>
</defs>
</svg>
