<svg width="330" height="240" viewBox="0 0 330 240" fill="none" xmlns="http://www.w3.org/2000/svg">
<g clip-path="url(#clip0_7726_2108)">
<path d="M107.18 89.0545V87.5378H94.0595V89.2991H91.1774V130.587H110.325V89.0545H107.18ZM108.666 125.855H92.6362V124.631H108.666V125.855ZM108.666 120.215H92.6362V118.992H108.666V120.215ZM108.666 114.575H92.6362V113.352H108.666V114.575ZM108.666 109.087H92.6362V107.864H108.666V109.087ZM108.666 103.612H92.6362V102.389H108.666V103.612ZM108.666 97.9721H92.6362V96.749H108.666V97.9721ZM108.666 92.4837H92.6362V91.2605H108.666V92.4837Z" fill="url(#paint0_linear_7726_2108)"/>
<path d="M81.3924 112.098V63.983H66.8263V60.0957H60.6618V83.8152H59.0028V156.384H85.0262V112.102H81.3924V112.098ZM70.4956 126.246H66.8218V122.683H70.4956V126.246ZM70.4956 120.673H66.8218V117.111H70.4956V120.673ZM70.4956 115.127H66.8218V111.564H70.4956V115.127ZM70.4956 109.594H66.8218V106.031H70.4956V109.594ZM70.4956 104.021H66.8218V100.458H70.4956V104.021ZM70.4956 92.9018H66.8218V89.3392H70.4956V92.9018ZM70.4956 87.3288H66.8218V83.7663H70.4956V87.3288ZM70.4956 81.7781H66.8218V78.2156H70.4956V81.7781ZM70.4956 76.2497H66.8218V72.6871H70.4956V76.2497ZM70.4956 70.6767H66.8218V67.1141H70.4956V70.6767ZM75.9885 126.246H72.3147V122.683H75.9885V126.246ZM75.9885 120.673H72.3147V117.111H75.9885V120.673ZM75.9885 115.127H72.3147V111.564H75.9885V115.127ZM75.9885 109.594H72.3147V106.031H75.9885V109.594ZM75.9885 104.021H72.3147V100.458H75.9885V104.021ZM75.9885 92.9018H72.3147V89.3392H75.9885V92.9018ZM75.9885 87.3288H72.3147V83.7663H75.9885V87.3288ZM75.9885 81.7781H72.3147V78.2156H75.9885V81.7781ZM75.9885 76.2497H72.3147V72.6871H75.9885V76.2497ZM75.9885 70.6767H72.3147V67.1141H75.9885V70.6767Z" fill="url(#paint1_linear_7726_2108)"/>
<path d="M224.746 137.401C224.906 135.333 224.746 67.8035 224.746 67.8035H232.987V82.7966H246.108V114.13H253.549V137.401H224.746Z" fill="url(#paint2_linear_7726_2108)"/>
<path d="M278.656 107.09V104.933H276.432V86.1058H271.006V84.0153H267.346V80.942H265.438V71.9844H264.063V81.0043H262.311V84.0776H256.885V89.1124H253.749V147.479H280.159V107.085H278.656V107.09ZM258.415 130.565H256.627V123.786H258.415V130.565ZM258.415 122.27H256.627V115.492H258.415V122.27ZM258.415 113.975H256.627V107.197H258.415V113.975ZM258.415 105.533H256.627V98.755H258.415V105.533ZM258.415 97.0871H256.627V90.3088H258.415V97.0871ZM262.097 130.565H260.309V123.786H262.097V130.565ZM262.097 122.27H260.309V115.492H262.097V122.27ZM262.097 113.975H260.309V107.197H262.097V113.975ZM262.097 105.533H260.309V98.755H262.097V105.533ZM262.097 97.0871H260.309V90.3088H262.097V97.0871ZM265.78 130.565H263.992V123.786H265.78V130.565ZM265.78 122.27H263.992V115.492H265.78V122.27ZM265.78 113.975H263.992V107.197H265.78V113.975ZM265.78 105.533H263.992V98.755H265.78V105.533ZM265.78 97.0871H263.992V90.3088H265.78V97.0871ZM269.463 130.565H267.675V123.786H269.463V130.565ZM269.463 122.27H267.675V115.492H269.463V122.27ZM269.463 113.975H267.675V107.197H269.463V113.975ZM269.463 105.533H267.675V98.755H269.463V105.533ZM269.463 97.0871H267.675V90.3088H269.463V97.0871ZM273.145 130.565H271.357V123.786H273.145V130.565ZM273.145 122.27H271.357V115.492H273.145V122.27ZM273.145 113.975H271.357V107.197H273.145V113.975ZM273.145 105.533H271.357V98.755H273.145V105.533ZM273.145 97.0871H271.357V90.3088H273.145V97.0871Z" fill="url(#paint3_linear_7726_2108)"/>
<path d="M28.8567 166.195V126.371H33.4156V106.045L49.0981 99.2531V126.05H52.5406V166.195H28.8567Z" fill="url(#paint4_linear_7726_2108)"/>
<path d="M297.835 158.812H284.073V104.048L297.835 110.706V158.812Z" fill="url(#paint5_linear_7726_2108)"/>
<path d="M26.5483 26.8004C26.5483 26.8004 30.7024 15.4677 40.9143 19.9154C43.2716 17.5226 46.1893 15.7835 50.1343 16.5663C54.0794 17.3491 56.6235 20.3068 57.4864 22.2727C58.7228 22.2149 68.6233 22.544 68.6233 32.8137C68.6233 43.0834 56.6413 42.8877 55.774 42.0737C54.7066 43.0256 49.5739 48.1893 43.3472 42.2961C41.9995 43.4481 37.5963 48.3272 30.6357 41.5934C27.4112 42.941 19.7478 43.9774 18.2623 36.0649C16.7768 28.1525 24.4001 25.9198 26.5483 26.8004Z" fill="url(#paint6_linear_7726_2108)"/>
<path d="M256.524 10.424C256.524 10.424 260.678 -0.908674 270.89 3.539C273.247 1.14615 276.165 -0.592888 280.11 0.189903C284.055 0.972695 286.599 3.9304 287.462 5.89627C288.699 5.83845 298.599 6.16758 298.599 16.4373C298.599 26.707 286.617 26.5113 285.75 25.6973C284.682 26.6491 279.55 31.8129 273.323 25.9197C271.975 27.0717 267.572 31.9508 260.612 25.217C257.387 26.5646 249.724 27.6009 248.238 19.6885C246.753 11.7806 254.376 9.54337 256.524 10.424Z" fill="url(#paint7_linear_7726_2108)"/>
<path d="M203.446 34.6728C203.446 34.6728 206.452 26.4668 213.844 29.6913C215.552 27.9568 217.661 26.6981 220.52 27.2674C223.376 27.8367 225.217 29.976 225.84 31.3948C226.734 31.3548 233.904 31.5905 233.904 39.0226C233.904 46.4547 225.231 46.3123 224.603 45.7252C223.83 46.4146 220.116 50.1507 215.606 45.8898C214.632 46.7215 211.443 50.2574 206.408 45.3828C204.073 46.3568 198.527 47.1085 197.45 41.3799C196.374 35.6557 201.889 34.0367 203.446 34.6728Z" fill="url(#paint8_linear_7726_2108)"/>
<path d="M165 240C256.127 240 330 213.137 330 180C330 146.863 256.127 120 165 120C73.873 120 0 146.863 0 180C0 213.137 73.873 240 165 240Z" fill="url(#paint9_linear_7726_2108)"/>
<path d="M52.0066 189.314C52.0066 189.314 50.4365 191.542 53.0607 194.86C55.4002 197.814 59.0962 197.24 60.3237 196.293C60.7018 198.863 63.8552 204.281 68.8455 201.216C73.5378 198.339 71.2784 193.962 69.7795 192.241C72.7105 191.413 74.8943 184.391 68.1694 181.967C69.1657 179.067 69.3436 177.755 67.8848 175.148C66.4793 172.64 64.171 172.24 60.4883 173.765L55.16 176.011L51.7664 169.678L49.9518 170.727L53.8657 176.776L48.6797 179.378C48.6797 179.378 44.2454 181.113 46.1579 185.872C47.9325 190.279 52.0066 189.314 52.0066 189.314Z" fill="url(#paint10_linear_7726_2108)"/>
<path d="M42.978 162.308H59.0163C59.0163 162.308 64.1979 162.455 65.2297 156.535C66.3639 150.037 61.636 149.143 61.636 149.143C61.636 149.143 64.4825 147.835 63.8643 142.92C63.2461 138.006 58.9185 137.387 57.1172 137.614C57.4107 134.701 58.0245 128.105 51.1751 128.038C44.5614 127.972 44.6014 134.63 45.0951 137.254C42.7378 137.281 35.6171 140.817 40.6252 148.573C37.8987 150.908 36.7468 152.256 36.8669 155.623C36.987 158.994 39.0462 162.308 42.978 162.308Z" fill="url(#paint11_linear_7726_2108)"/>
<path d="M58.6206 153.31L51.78 157.811L51.5932 153.457L55.9208 148.36L51.5265 151.909L50.9572 138.611L50.5391 151.998L45.9269 148.324L50.4947 153.359L50.3568 157.838L43.3206 152.67L50.3079 159.457L49.952 170.732H52.336L51.8557 159.524L58.6206 153.31Z" fill="#C6D5E6"/>
<path d="M284.362 181.17C284.362 181.17 282.917 183.225 285.332 186.276C287.485 188.998 290.891 188.469 292.021 187.593C292.368 189.959 295.277 194.945 299.871 192.13C304.19 189.479 302.113 185.449 300.73 183.866C303.429 183.105 305.44 176.634 299.249 174.406C300.169 171.737 300.334 170.527 298.986 168.13C297.692 165.822 295.566 165.448 292.177 166.858L287.267 168.926L284.14 163.095L282.472 164.06L286.075 169.629L281.302 172.026C281.302 172.026 277.219 173.623 278.981 178.008C280.608 182.064 284.362 181.17 284.362 181.17Z" fill="url(#paint12_linear_7726_2108)"/>
<path d="M276.05 156.303H290.816C290.816 156.303 295.588 156.441 296.536 150.988C297.576 145.006 293.226 144.184 293.226 144.184C293.226 144.184 295.851 142.978 295.277 138.455C294.703 133.932 290.722 133.358 289.063 133.571C289.335 130.889 289.9 124.814 283.593 124.752C277.504 124.689 277.54 130.818 277.993 133.238C275.823 133.26 269.262 136.516 273.879 143.663C271.371 145.811 270.308 147.057 270.419 150.152C270.53 153.252 272.429 156.303 276.05 156.303Z" fill="url(#paint13_linear_7726_2108)"/>
<path d="M290.455 148.017L284.153 152.158L283.984 148.151L287.965 143.459L283.922 146.728L283.397 134.479L283.01 146.808L278.763 143.423L282.974 148.062L282.841 152.189L276.365 147.426L282.797 153.675L282.472 164.06H284.665L284.224 153.737L290.455 148.017Z" fill="#C6D5E6"/>
<path d="M88.8912 141.052C88.8912 141.052 88.1128 142.155 89.4116 143.797C90.568 145.26 92.396 144.975 93.0053 144.504C93.1921 145.776 94.7532 148.453 97.2217 146.941C99.5434 145.518 98.427 143.352 97.6842 142.502C99.1342 142.093 100.215 138.619 96.8881 137.423C97.3818 135.991 97.4708 135.342 96.7458 134.052C96.0519 132.811 94.9089 132.611 93.0898 133.367L90.4523 134.479L88.7755 131.348L87.8771 131.868L89.8119 134.857L87.2455 136.142C87.2455 136.142 85.0528 137.001 86.0002 139.353C86.8764 141.533 88.8912 141.052 88.8912 141.052Z" fill="url(#paint14_linear_7726_2108)"/>
<path d="M84.4257 127.696H92.3559C92.3559 127.696 94.9178 127.767 95.4293 124.841C95.9897 121.625 93.6502 121.185 93.6502 121.185C93.6502 121.185 95.0601 120.535 94.7532 118.107C94.4463 115.678 92.307 115.371 91.4175 115.483C91.5642 114.042 91.8667 110.777 88.4775 110.746C85.2041 110.715 85.2263 114.006 85.4709 115.305C84.3056 115.318 80.7831 117.066 83.2604 120.904C81.9128 122.056 81.339 122.728 81.4013 124.391C81.4636 126.055 82.4821 127.696 84.4257 127.696Z" fill="url(#paint15_linear_7726_2108)"/>
<path d="M92.1645 123.244L88.7799 125.472L88.6865 123.319L90.8258 120.798L88.6553 122.554L88.3751 115.976L88.1661 122.594L85.8844 120.78L88.1439 123.271L88.0771 125.485L84.5946 122.928L88.0504 126.286L87.877 131.863H89.0556L88.8154 126.317L92.1645 123.244Z" fill="#C6D5E6"/>
<path d="M243.524 145.107L310.5 196.857C310.5 196.857 164.413 241.393 162.637 239.966C160.86 238.539 97.5 139.5 97.5 139.5L243.524 145.107Z" fill="url(#paint16_linear_7726_2108)"/>
<path d="M223.874 90.7358C222.637 70.1742 208.08 53.2018 188.719 48.3361L181.452 48.3316L175.768 72.6515L186.794 82.1562L177.289 88.7477L181.599 99.2664L173.615 88.6231L179.192 81.7781L164.364 75.6937L168.545 62.7688L157.91 51.1425C156.296 51.1425 153.454 51.1203 150.643 51.1381C137.878 59.2373 131.727 74.3283 130.748 90.7625C113.834 91.8966 100.469 105.969 100.469 123.168C100.469 141.11 115.012 155.65 132.95 155.65H222.161C240.103 155.65 254.643 141.106 254.643 123.168C254.647 105.809 241.02 91.6253 223.874 90.7358Z" fill="url(#paint17_linear_7726_2108)"/>
<path d="M216.606 90.7313C215.37 70.1696 200.813 53.1973 181.452 48.3315L174.331 55.2877L168.5 72.647L179.526 82.1517L170.021 88.7432L174.331 99.2619L166.348 88.6186L171.925 81.7737L157.096 75.6892L161.277 62.7643L150.643 51.138C135.374 58.1342 124.531 73.1274 123.481 90.758C106.566 91.8921 93.201 105.965 93.201 123.164C93.201 141.106 107.745 155.645 125.682 155.645H214.894C232.836 155.645 247.375 141.101 247.375 123.164C247.375 105.804 233.752 91.6208 216.606 90.7313Z" fill="url(#paint18_linear_7726_2108)"/>
<path d="M196.774 149.481L174.073 171.163C171.983 172.898 168.554 172.239 167.584 171.221L149.117 149.476C147.116 147.564 148.464 144.179 151.226 144.179H158.475V113.201C158.475 112.076 159.383 111.159 160.508 111.159H185.384C186.505 111.159 187.416 112.071 187.416 113.201V144.184H194.666C197.428 144.184 198.776 147.568 196.774 149.481Z" fill="url(#paint19_linear_7726_2108)"/>
<path d="M190.458 149.463L169.461 171.061C168.878 171.661 167.962 171.661 167.379 171.061L146.382 149.463C144.532 147.559 145.777 144.188 148.33 144.188H155.033V113.33C155.033 112.209 155.873 111.297 156.91 111.297H179.917C180.954 111.297 181.794 112.205 181.794 113.33V144.188H188.497C191.063 144.188 192.309 147.559 190.458 149.463Z" fill="url(#paint20_linear_7726_2108)"/>
</g>
<defs>
<linearGradient id="paint0_linear_7726_2108" x1="100.751" y1="130.588" x2="100.751" y2="87.5395" gradientUnits="userSpaceOnUse">
<stop offset="5.35827e-07" stop-color="white"/>
<stop offset="1" stop-color="#DBE3EE"/>
</linearGradient>
<linearGradient id="paint1_linear_7726_2108" x1="72.0109" y1="156.381" x2="72.0109" y2="60.0935" gradientUnits="userSpaceOnUse">
<stop offset="5.35827e-07" stop-color="white" stop-opacity="0"/>
<stop offset="1" stop-color="#DBE3EE"/>
</linearGradient>
<linearGradient id="paint2_linear_7726_2108" x1="239.147" y1="137.399" x2="239.147" y2="67.8009" gradientUnits="userSpaceOnUse">
<stop offset="5.35827e-07" stop-color="white" stop-opacity="0"/>
<stop offset="1" stop-color="#DBE3EE"/>
</linearGradient>
<linearGradient id="paint3_linear_7726_2108" x1="266.956" y1="147.482" x2="266.956" y2="71.9863" gradientUnits="userSpaceOnUse">
<stop offset="5.35827e-07" stop-color="white" stop-opacity="0"/>
<stop offset="1" stop-color="#DBE3EE"/>
</linearGradient>
<linearGradient id="paint4_linear_7726_2108" x1="40.6968" y1="166.197" x2="40.6968" y2="99.2531" gradientUnits="userSpaceOnUse">
<stop offset="5.35827e-07" stop-color="white" stop-opacity="0"/>
<stop offset="1" stop-color="#EDF1F9"/>
</linearGradient>
<linearGradient id="paint5_linear_7726_2108" x1="290.956" y1="158.811" x2="290.956" y2="104.046" gradientUnits="userSpaceOnUse">
<stop offset="5.35827e-07" stop-color="white" stop-opacity="0"/>
<stop offset="1" stop-color="#EDF1F9"/>
</linearGradient>
<linearGradient id="paint6_linear_7726_2108" x1="43.3492" y1="45.0832" x2="43.3492" y2="16.3773" gradientUnits="userSpaceOnUse">
<stop offset="0.2332" stop-color="white" stop-opacity="0"/>
<stop offset="1" stop-color="#D3DFEE"/>
</linearGradient>
<linearGradient id="paint7_linear_7726_2108" x1="273.324" y1="28.7066" x2="273.324" y2="0.00069809" gradientUnits="userSpaceOnUse">
<stop offset="0.2332" stop-color="white" stop-opacity="0"/>
<stop offset="1" stop-color="#D3DFEE"/>
</linearGradient>
<linearGradient id="paint8_linear_7726_2108" x1="215.607" y1="47.9087" x2="215.607" y2="27.1304" gradientUnits="userSpaceOnUse">
<stop offset="0.2332" stop-color="white" stop-opacity="0"/>
<stop offset="1" stop-color="#D3DFEE"/>
</linearGradient>
<linearGradient id="paint9_linear_7726_2108" x1="165" y1="240.001" x2="165" y2="119.998" gradientUnits="userSpaceOnUse">
<stop offset="0.4065" stop-color="white" stop-opacity="0"/>
<stop offset="1" stop-color="#DAE4EF"/>
</linearGradient>
<linearGradient id="paint10_linear_7726_2108" x1="72.0117" y1="198.677" x2="49.1345" y2="171.413" gradientUnits="userSpaceOnUse">
<stop offset="0.4034" stop-color="#EFF4F8"/>
<stop offset="1" stop-color="#D4DFEC"/>
</linearGradient>
<linearGradient id="paint11_linear_7726_2108" x1="36.854" y1="145.175" x2="65.4022" y2="145.175" gradientUnits="userSpaceOnUse">
<stop offset="0.1022" stop-color="#F0F5F8"/>
<stop offset="1" stop-color="#B4C7DC"/>
</linearGradient>
<linearGradient id="paint12_linear_7726_2108" x1="302.785" y1="189.793" x2="281.718" y2="164.687" gradientUnits="userSpaceOnUse">
<stop offset="0.4034" stop-color="#EFF4F8"/>
<stop offset="1" stop-color="#D4DFEC"/>
</linearGradient>
<linearGradient id="paint13_linear_7726_2108" x1="270.41" y1="140.526" x2="296.698" y2="140.526" gradientUnits="userSpaceOnUse">
<stop offset="0.1022" stop-color="#F0F5F8"/>
<stop offset="1" stop-color="#B4C7DC"/>
</linearGradient>
<linearGradient id="paint14_linear_7726_2108" x1="98.7866" y1="145.685" x2="87.4711" y2="132.2" gradientUnits="userSpaceOnUse">
<stop offset="1.4385e-07" stop-color="#EAEFF6"/>
<stop offset="1" stop-color="#CDDAE9"/>
</linearGradient>
<linearGradient id="paint15_linear_7726_2108" x1="81.3968" y1="119.223" x2="95.5173" y2="119.223" gradientUnits="userSpaceOnUse">
<stop offset="0.1022" stop-color="#F0F5F8"/>
<stop offset="1" stop-color="#B4C7DC"/>
</linearGradient>
<linearGradient id="paint16_linear_7726_2108" x1="228.183" y1="221.683" x2="195.658" y2="110.724" gradientUnits="userSpaceOnUse">
<stop offset="0.0938" stop-color="white" stop-opacity="0"/>
<stop offset="0.9362" stop-color="#BBCBE0"/>
</linearGradient>
<linearGradient id="paint17_linear_7726_2108" x1="100.468" y1="101.994" x2="254.647" y2="101.994" gradientUnits="userSpaceOnUse">
<stop stop-color="#DFE8F3"/>
<stop offset="1" stop-color="#9FB7CE"/>
</linearGradient>
<linearGradient id="paint18_linear_7726_2108" x1="93.1986" y1="101.993" x2="247.378" y2="101.993" gradientUnits="userSpaceOnUse">
<stop stop-color="#EFF3F9"/>
<stop offset="1" stop-color="#B6C9DE"/>
</linearGradient>
<linearGradient id="paint19_linear_7726_2108" x1="148.16" y1="141.7" x2="197.729" y2="141.7" gradientUnits="userSpaceOnUse">
<stop stop-color="#DFE8F3"/>
<stop offset="1" stop-color="#9FB7CE"/>
</linearGradient>
<linearGradient id="paint20_linear_7726_2108" x1="145.504" y1="141.407" x2="191.345" y2="141.407" gradientUnits="userSpaceOnUse">
<stop stop-color="white"/>
<stop offset="1" stop-color="#CCD9E8"/>
</linearGradient>
<clipPath id="clip0_7726_2108">
<rect width="330" height="240" fill="white"/>
</clipPath>
</defs>
</svg>
