<svg width="330" height="240" viewBox="0 0 330 240" fill="none" xmlns="http://www.w3.org/2000/svg">
<path d="M107.18 89.059V87.5423H94.0593V89.3036H91.1772V130.591H110.325V89.059H107.18ZM108.666 125.855H92.6361V124.631H108.666V125.855ZM108.666 120.219H92.6361V118.996H108.666V120.219ZM108.666 114.58H92.6361V113.357H108.666V114.58ZM108.666 109.091H92.6361V107.868H108.666V109.091ZM108.666 103.612H92.6361V102.389H108.666V103.612ZM108.666 97.9765H92.6361V96.7534H108.666V97.9765ZM108.666 92.4837H92.6361V91.265H108.666V92.4837Z" fill="url(#paint0_linear_7726_2140)"/>
<path d="M81.3881 112.102V63.983H66.822V60.0957H60.6575V83.8152H58.9985V156.383H85.0219V112.102H81.3881ZM70.4958 126.25H66.822V122.688H70.4958V126.25ZM70.4958 120.678H66.822V117.115H70.4958V120.678ZM70.4958 115.127H66.822V111.564H70.4958V115.127ZM70.4958 109.598H66.822V106.036H70.4958V109.598ZM70.4958 104.021H66.822V100.458H70.4958V104.021ZM70.4958 92.9018H66.822V89.3392H70.4958V92.9018ZM70.4958 87.3288H66.822V83.7663H70.4958V87.3288ZM70.4958 81.7826H66.822V78.22H70.4958V81.7826ZM70.4958 76.2497H66.822V72.6871H70.4958V76.2497ZM70.4958 70.6767H66.822V67.1141H70.4958V70.6767ZM75.9887 126.25H72.3149V122.688H75.9887V126.25ZM75.9887 120.678H72.3149V117.115H75.9887V120.678ZM75.9887 115.127H72.3149V111.564H75.9887V115.127ZM75.9887 109.598H72.3149V106.036H75.9887V109.598ZM75.9887 104.021H72.3149V100.458H75.9887V104.021ZM75.9887 92.9018H72.3149V89.3392H75.9887V92.9018ZM75.9887 87.3288H72.3149V83.7663H75.9887V87.3288ZM75.9887 81.7826H72.3149V78.22H75.9887V81.7826ZM75.9887 76.2497H72.3149V72.6871H75.9887V76.2497ZM75.9887 70.6767H72.3149V67.1141H75.9887V70.6767Z" fill="url(#paint1_linear_7726_2140)"/>
<path d="M224.741 137.401C224.901 135.333 224.741 67.8035 224.741 67.8035H232.983V82.7966H246.103V114.13H253.544V137.401H224.741Z" fill="url(#paint2_linear_7726_2140)"/>
<path d="M278.656 107.094V104.937H276.432V86.1102H271.006V84.0198H267.346V80.9464H265.438V71.9888H264.063V81.0087H262.311V84.0821H256.885V89.1168H253.749V147.484H280.159V107.09H278.656V107.094ZM258.415 130.569H256.627V123.791H258.415V130.569ZM258.415 122.274H256.627V115.496H258.415V122.274ZM258.415 113.979H256.627V107.201H258.415V113.979ZM258.415 105.533H256.627V98.755H258.415V105.533ZM258.415 97.0915H256.627V90.3133H258.415V97.0915ZM262.097 130.569H260.309V123.791H262.097V130.569ZM262.097 122.274H260.309V115.496H262.097V122.274ZM262.097 113.979H260.309V107.201H262.097V113.979ZM262.097 105.533H260.309V98.755H262.097V105.533ZM262.097 97.0915H260.309V90.3133H262.097V97.0915ZM265.776 130.569H263.988V123.791H265.776V130.569ZM265.776 122.274H263.988V115.496H265.776V122.274ZM265.776 113.979H263.988V107.201H265.776V113.979ZM265.776 105.533H263.988V98.755H265.776V105.533ZM265.776 97.0915H263.988V90.3133H265.776V97.0915ZM269.458 130.569H267.67V123.791H269.458V130.569ZM269.458 122.274H267.67V115.496H269.458V122.274ZM269.458 113.979H267.67V107.201H269.458V113.979ZM269.458 105.533H267.67V98.755H269.458V105.533ZM269.458 97.0915H267.67V90.3133H269.458V97.0915ZM273.141 130.569H271.353V123.791H273.141V130.569ZM273.141 122.274H271.353V115.496H273.141V122.274ZM273.141 113.979H271.353V107.201H273.141V113.979ZM273.141 105.533H271.353V98.755H273.141V105.533ZM273.141 97.0915H271.353V90.3133H273.141V97.0915Z" fill="url(#paint3_linear_7726_2140)"/>
<path d="M28.8521 166.199V126.375H33.4154V106.049L49.0979 99.2574V126.055H52.5359V166.199H28.8521Z" fill="url(#paint4_linear_7726_2140)"/>
<path d="M297.834 158.812H284.073V104.048L297.834 110.706V158.812Z" fill="url(#paint5_linear_7726_2140)"/>
<path d="M26.5484 26.8003C26.5484 26.8003 30.7025 15.4676 40.9144 19.9153C43.2717 17.5224 46.1893 15.7834 50.1344 16.5662C54.0795 17.349 56.6236 20.3067 57.4864 22.2726C58.7229 22.2147 68.6234 22.5439 68.6234 32.8136C68.6234 43.0832 56.6414 42.8875 55.7741 42.0736C54.7067 43.0254 49.574 48.1892 43.3473 42.296C41.9996 43.448 37.5964 48.3271 30.6358 41.5933C27.4112 42.9409 19.7479 43.9772 18.2624 36.0648C16.7768 28.1568 24.3957 25.9241 26.5484 26.8003Z" fill="url(#paint6_linear_7726_2140)"/>
<path d="M256.524 10.424C256.524 10.424 260.678 -0.908674 270.89 3.53901C273.247 1.14615 276.165 -0.592888 280.11 0.189903C284.055 0.977142 286.599 3.9304 287.462 5.89628C288.699 5.83846 298.599 6.16758 298.599 16.4373C298.599 26.707 286.617 26.5113 285.75 25.6973C284.682 26.6491 279.55 31.8129 273.323 25.9197C271.975 27.0717 267.572 31.9508 260.612 25.217C257.387 26.5646 249.724 27.601 248.238 19.6885C246.753 11.7806 254.372 9.54782 256.524 10.424Z" fill="url(#paint7_linear_7726_2140)"/>
<path d="M203.446 34.6772C203.446 34.6772 206.452 26.4712 213.844 29.6958C215.552 27.9612 217.66 26.7025 220.52 27.2718C223.38 27.8411 225.217 29.9805 225.84 31.3993C226.734 31.3592 233.903 31.595 233.903 39.027C233.903 46.4591 225.23 46.3168 224.603 45.7297C223.829 46.4191 220.116 50.1551 215.606 45.8943C214.632 46.726 211.443 50.2619 206.408 45.3872C204.073 46.3613 198.527 47.1129 197.45 41.3843C196.369 35.6601 201.889 34.0412 203.446 34.6772Z" fill="url(#paint8_linear_7726_2140)"/>
<path d="M165 240C256.127 240 330 213.137 330 180C330 146.863 256.127 120 165 120C73.873 120 0 146.863 0 180C0 213.137 73.873 240 165 240Z" fill="url(#paint9_linear_7726_2140)"/>
<path d="M52.0023 189.314C52.0023 189.314 50.4323 191.542 53.0564 194.86C55.3959 197.814 59.0919 197.24 60.3195 196.293C60.6975 198.863 63.8509 204.281 68.8412 201.216C73.5335 198.338 71.2741 193.962 69.7752 192.241C72.7063 191.413 74.8901 184.391 68.1652 181.967C69.1615 179.067 69.3394 177.755 67.8805 175.148C66.4751 172.64 64.1667 172.239 60.484 173.765L55.1557 176.011L51.7621 169.678L49.9475 170.727L53.8614 176.776L48.6754 179.378C48.6754 179.378 44.2411 181.113 46.1536 185.872C47.9282 190.284 52.0023 189.314 52.0023 189.314Z" fill="url(#paint10_linear_7726_2140)"/>
<path d="M42.978 162.312H59.0163C59.0163 162.312 64.1979 162.459 65.2297 156.539C66.3639 150.041 61.636 149.147 61.636 149.147C61.636 149.147 64.4825 147.84 63.8643 142.925C63.2416 138.015 58.9185 137.392 57.1171 137.619C57.4107 134.706 58.0245 128.11 51.175 128.043C44.5613 127.976 44.6014 134.634 45.0951 137.259C42.7378 137.285 35.6171 140.821 40.6252 148.578C37.8987 150.913 36.7468 152.261 36.8669 155.627C36.9825 158.994 39.0462 162.312 42.978 162.312Z" fill="url(#paint11_linear_7726_2140)"/>
<path d="M58.6203 153.31L51.7798 157.811L51.593 153.461L55.9161 148.364L51.5263 151.914L50.957 138.615L50.5389 151.998L45.9222 148.324L50.4944 153.363L50.3565 157.842L43.3203 152.674L50.3032 159.457L49.9518 170.736H52.3313L51.851 159.524L58.6203 153.31Z" fill="#C6D5E6"/>
<path d="M284.363 181.175C284.363 181.175 282.917 183.23 285.332 186.281C287.485 189.003 290.892 188.474 292.022 187.597C292.369 189.964 295.277 194.949 299.872 192.134C304.191 189.483 302.113 185.454 300.73 183.87C303.43 183.11 305.44 176.638 299.249 174.41C300.17 171.741 300.334 170.532 298.987 168.134C297.692 165.826 295.566 165.452 292.177 166.862L287.267 168.93L284.14 163.1L282.472 164.065L286.075 169.633L281.303 172.03C281.303 172.03 277.22 173.627 278.981 178.013C280.609 182.064 284.363 181.175 284.363 181.175Z" fill="url(#paint12_linear_7726_2140)"/>
<path d="M276.045 156.308H290.812C290.812 156.308 295.584 156.446 296.531 150.993C297.572 145.011 293.222 144.188 293.222 144.188C293.222 144.188 295.846 142.983 295.273 138.459C294.699 133.936 290.718 133.362 289.059 133.576C289.331 130.894 289.895 124.818 283.589 124.756C277.5 124.694 277.535 130.823 277.989 133.242C275.819 133.265 269.258 136.52 273.875 143.668C271.366 145.816 270.303 147.061 270.415 150.157C270.53 153.252 272.429 156.308 276.045 156.308Z" fill="url(#paint13_linear_7726_2140)"/>
<path d="M290.452 148.017L284.154 152.163L283.985 148.155L287.965 143.463L283.922 146.732L283.398 134.483L283.011 146.812L278.763 143.427L282.971 148.066L282.842 152.189L276.366 147.43L282.797 153.679L282.468 164.065H284.665L284.22 153.742L290.452 148.017Z" fill="#C6D5E6"/>
<path d="M88.8914 141.057C88.8914 141.057 88.1131 142.16 89.4118 143.801C90.5682 145.264 92.3962 144.98 93.0055 144.508C93.1923 145.78 94.7535 148.458 97.2219 146.946C99.5436 145.522 98.4273 143.356 97.6845 142.507C99.1344 142.098 100.215 138.624 96.8884 137.428C97.382 135.995 97.471 135.346 96.746 134.056C96.0522 132.815 94.9091 132.615 93.09 133.371L90.4526 134.483L88.7758 131.352L87.8774 131.872L89.8121 134.861L87.2458 136.147C87.2458 136.147 85.0531 137.005 86.0004 139.358C86.8766 141.537 88.8914 141.057 88.8914 141.057Z" fill="url(#paint14_linear_7726_2140)"/>
<path d="M84.426 127.7H92.3562C92.3562 127.7 94.918 127.772 95.4295 124.845C95.9899 121.629 93.6504 121.189 93.6504 121.189C93.6504 121.189 95.0604 120.54 94.7535 118.111C94.4466 115.683 92.3072 115.376 91.4177 115.487C91.5645 114.046 91.8669 110.781 88.4778 110.75C85.2043 110.719 85.2265 114.01 85.4712 115.309C84.3059 115.323 80.7833 117.07 83.2607 120.909C81.913 122.061 81.3393 122.732 81.4015 124.396C81.4593 126.059 82.4823 127.7 84.426 127.7Z" fill="url(#paint15_linear_7726_2140)"/>
<path d="M92.1605 123.248L88.7802 125.477L88.6868 123.324L90.8262 120.802L88.6557 122.554L88.371 115.976L88.1665 122.599L85.8803 120.784L88.1442 123.275L88.0731 125.49L84.595 122.932L88.0508 126.29L87.8729 131.868H89.0515L88.8158 126.322L92.1605 123.248Z" fill="#C6D5E6"/>
<path d="M123.8 162.485L114 164.002L185.645 240L303 203.794L217.438 151.5L123.8 162.485Z" fill="url(#paint16_linear_7726_2140)"/>
<path d="M211.985 155.627H142.561C137.482 155.627 133.364 151.509 133.364 146.43V51.8719C133.364 46.7926 137.482 42.6741 142.561 42.6741H211.985C217.064 42.6741 221.183 46.7926 221.183 51.8719V146.43C221.183 151.509 217.064 155.627 211.985 155.627Z" fill="url(#paint17_linear_7726_2140)"/>
<path d="M192.015 172.804H122.591C117.512 172.804 113.394 168.686 113.394 163.607V69.0489C113.394 63.9696 117.512 59.8511 122.591 59.8511H192.015C197.094 59.8511 201.213 63.9696 201.213 69.0489V163.607C201.213 168.686 197.094 172.804 192.015 172.804Z" fill="url(#paint18_linear_7726_2140)"/>
<path d="M140.431 73.1941H124.406V89.2191H140.431V73.1941Z" fill="white"/>
<path d="M186.158 73.1941H149.682V77.8063H186.158V73.1941Z" fill="white"/>
<path d="M170.626 81.5912H149.682V86.2035H170.626V81.5912Z" fill="white"/>
<path d="M140.431 101.548H124.406V117.573H140.431V101.548Z" fill="white"/>
<path d="M186.158 101.548H149.682V106.16H186.158V101.548Z" fill="white"/>
<path d="M170.626 109.95H149.682V114.562H170.626V109.95Z" fill="white"/>
<path d="M140.431 130.631H124.406V146.656H140.431V130.631Z" fill="white"/>
<path d="M186.158 130.631H149.682V135.244H186.158V130.631Z" fill="white"/>
<path d="M170.626 139.033H149.682V143.645H170.626V139.033Z" fill="white"/>
<path d="M238.876 171.274L231.342 160.836C236.692 155.654 240.032 148.404 240.032 140.385C240.032 124.685 227.259 111.911 211.558 111.911C195.858 111.911 183.084 124.685 183.084 140.385C183.084 156.085 195.858 168.859 211.558 168.859C216.046 168.859 220.293 167.814 224.07 165.955L231.666 176.478C232.538 177.683 233.481 179.16 234.86 179.16C235.763 179.16 237.168 178.146 237.875 177.479C239.908 175.566 240.032 172.924 238.876 171.274ZM191.09 140.385C191.09 129.097 200.275 119.917 211.558 119.917C222.842 119.917 232.026 129.101 232.026 140.385C232.026 151.669 222.842 160.853 211.558 160.853C200.275 160.853 191.09 151.669 191.09 140.385Z" fill="url(#paint19_linear_7726_2140)"/>
<path d="M237.244 172.315L228.949 160.831C234.299 155.65 237.639 148.4 237.639 140.381C237.639 124.68 224.866 111.907 209.165 111.907C193.465 111.907 180.691 124.68 180.691 140.381C180.691 156.081 193.465 168.855 209.165 168.855C213.653 168.855 217.901 167.809 221.677 165.95L230.034 177.519C230.906 178.724 232.262 179.365 233.645 179.365C234.548 179.365 235.46 179.089 236.247 178.524C238.231 177.087 238.68 174.308 237.244 172.315ZM188.693 140.385C188.693 129.097 197.877 119.917 209.161 119.917C220.445 119.917 229.629 129.101 229.629 140.385C229.629 151.669 220.445 160.853 209.161 160.853C197.877 160.853 188.693 151.669 188.693 140.385Z" fill="url(#paint20_linear_7726_2140)"/>
<defs>
<linearGradient id="paint0_linear_7726_2140" x1="100.749" y1="130.591" x2="100.749" y2="87.5423" gradientUnits="userSpaceOnUse">
<stop offset="5.35827e-07" stop-color="white" stop-opacity="0"/>
<stop offset="1" stop-color="#DBE3EE"/>
</linearGradient>
<linearGradient id="paint1_linear_7726_2140" x1="72.0097" y1="156.384" x2="72.0097" y2="60.0962" gradientUnits="userSpaceOnUse">
<stop offset="5.35827e-07" stop-color="white" stop-opacity="0"/>
<stop offset="1" stop-color="#DBE3EE"/>
</linearGradient>
<linearGradient id="paint2_linear_7726_2140" x1="239.145" y1="137.401" x2="239.145" y2="67.8037" gradientUnits="userSpaceOnUse">
<stop offset="5.35827e-07" stop-color="white" stop-opacity="0"/>
<stop offset="1" stop-color="#DBE3EE"/>
</linearGradient>
<linearGradient id="paint3_linear_7726_2140" x1="266.954" y1="147.484" x2="266.954" y2="71.9891" gradientUnits="userSpaceOnUse">
<stop offset="5.35827e-07" stop-color="white" stop-opacity="0"/>
<stop offset="1" stop-color="#DBE3EE"/>
</linearGradient>
<linearGradient id="paint4_linear_7726_2140" x1="40.6952" y1="166.199" x2="40.6952" y2="99.2559" gradientUnits="userSpaceOnUse">
<stop offset="5.35827e-07" stop-color="white" stop-opacity="0"/>
<stop offset="1" stop-color="#EDF1F9"/>
</linearGradient>
<linearGradient id="paint5_linear_7726_2140" x1="290.954" y1="158.814" x2="290.954" y2="104.049" gradientUnits="userSpaceOnUse">
<stop offset="5.35827e-07" stop-color="white" stop-opacity="0"/>
<stop offset="1" stop-color="#EDF1F9"/>
</linearGradient>
<linearGradient id="paint6_linear_7726_2140" x1="43.3479" y1="45.0859" x2="43.3479" y2="16.38" gradientUnits="userSpaceOnUse">
<stop offset="0.2332" stop-color="white" stop-opacity="0"/>
<stop offset="1" stop-color="#D3DFEE"/>
</linearGradient>
<linearGradient id="paint7_linear_7726_2140" x1="273.323" y1="28.7094" x2="273.323" y2="0.00350072" gradientUnits="userSpaceOnUse">
<stop offset="0.2332" stop-color="white" stop-opacity="0"/>
<stop offset="1" stop-color="#D3DFEE"/>
</linearGradient>
<linearGradient id="paint8_linear_7726_2140" x1="215.605" y1="47.9115" x2="215.605" y2="27.1332" gradientUnits="userSpaceOnUse">
<stop offset="0.2332" stop-color="white" stop-opacity="0"/>
<stop offset="1" stop-color="#D3DFEE"/>
</linearGradient>
<linearGradient id="paint9_linear_7726_2140" x1="164.998" y1="240" x2="164.998" y2="119.997" gradientUnits="userSpaceOnUse">
<stop offset="0.4065" stop-color="white" stop-opacity="0"/>
<stop offset="1" stop-color="#DAE4EF"/>
</linearGradient>
<linearGradient id="paint10_linear_7726_2140" x1="72.0105" y1="198.679" x2="49.1333" y2="171.415" gradientUnits="userSpaceOnUse">
<stop offset="0.4034" stop-color="#EFF4F8"/>
<stop offset="1" stop-color="#D4DFEC"/>
</linearGradient>
<linearGradient id="paint11_linear_7726_2140" x1="36.8526" y1="145.178" x2="65.4008" y2="145.178" gradientUnits="userSpaceOnUse">
<stop offset="0.1022" stop-color="#F0F5F8"/>
<stop offset="1" stop-color="#B4C7DC"/>
</linearGradient>
<linearGradient id="paint12_linear_7726_2140" x1="302.784" y1="189.796" x2="281.717" y2="164.69" gradientUnits="userSpaceOnUse">
<stop offset="0.4034" stop-color="#EFF4F8"/>
<stop offset="1" stop-color="#D4DFEC"/>
</linearGradient>
<linearGradient id="paint13_linear_7726_2140" x1="270.408" y1="140.529" x2="296.697" y2="140.529" gradientUnits="userSpaceOnUse">
<stop offset="0.1022" stop-color="#F0F5F8"/>
<stop offset="1" stop-color="#B4C7DC"/>
</linearGradient>
<linearGradient id="paint14_linear_7726_2140" x1="98.7854" y1="145.688" x2="87.4699" y2="132.203" gradientUnits="userSpaceOnUse">
<stop offset="1.4385e-07" stop-color="#EAEFF6"/>
<stop offset="1" stop-color="#CDDAE9"/>
</linearGradient>
<linearGradient id="paint15_linear_7726_2140" x1="81.3956" y1="119.225" x2="95.5161" y2="119.225" gradientUnits="userSpaceOnUse">
<stop offset="0.1022" stop-color="#F0F5F8"/>
<stop offset="1" stop-color="#B4C7DC"/>
</linearGradient>
<linearGradient id="paint16_linear_7726_2140" x1="226.307" y1="231.13" x2="207.232" y2="143.667" gradientUnits="userSpaceOnUse">
<stop offset="0.1887" stop-color="white" stop-opacity="0"/>
<stop offset="1" stop-color="#BBCBE0"/>
</linearGradient>
<linearGradient id="paint17_linear_7726_2140" x1="133.364" y1="99.1518" x2="221.184" y2="99.1518" gradientUnits="userSpaceOnUse">
<stop stop-color="#EFF3F9"/>
<stop offset="1" stop-color="#B6C9DE"/>
</linearGradient>
<linearGradient id="paint18_linear_7726_2140" x1="113.394" y1="116.326" x2="201.215" y2="116.326" gradientUnits="userSpaceOnUse">
<stop stop-color="#EFF3F9"/>
<stop offset="1" stop-color="#B6C9DE"/>
</linearGradient>
<linearGradient id="paint19_linear_7726_2140" x1="240.034" y1="145.536" x2="183.082" y2="145.536" gradientUnits="userSpaceOnUse">
<stop stop-color="#EFF3F9"/>
<stop offset="1" stop-color="#A3B9D1"/>
</linearGradient>
<linearGradient id="paint20_linear_7726_2140" x1="180.689" y1="145.638" x2="238.086" y2="145.638" gradientUnits="userSpaceOnUse">
<stop stop-color="#EFF3F9"/>
<stop offset="1" stop-color="#B6C9DE"/>
</linearGradient>
</defs>
</svg>
