<svg width="330" height="240" viewBox="0 0 330 240" fill="none" xmlns="http://www.w3.org/2000/svg">
<g clip-path="url(#clip0_7726_1909)">
<path d="M107.18 89.059V87.5423H94.0595V89.3036H91.1774V130.591H110.325V89.059H107.18ZM108.666 125.855H92.6363V124.631H108.666V125.855ZM108.666 120.219H92.6363V118.996H108.666V120.219ZM108.666 114.58H92.6363V113.357H108.666V114.58ZM108.666 109.091H92.6363V107.868H108.666V109.091ZM108.666 103.612H92.6363V102.389H108.666V103.612ZM108.666 97.9766H92.6363V96.7534H108.666V97.9766ZM108.666 92.4881H92.6363V91.265H108.666V92.4881Z" fill="url(#paint0_linear_7726_1909)"/>
<path d="M81.3925 112.102V63.983H66.8264V60.0957H60.6575V83.8152H58.9985V156.384H85.0218V112.102H81.3925ZM70.4957 126.25H66.8219V122.688H70.4957V126.25ZM70.4957 120.678H66.8219V117.115H70.4957V120.678ZM70.4957 115.127H66.8219V111.564H70.4957V115.127ZM70.4957 109.598H66.8219V106.036H70.4957V109.598ZM70.4957 104.021H66.8219V100.458H70.4957V104.021ZM70.4957 92.9018H66.8219V89.3392H70.4957V92.9018ZM70.4957 87.3288H66.8219V83.7662H70.4957V87.3288ZM70.4957 81.7826H66.8219V78.22H70.4957V81.7826ZM70.4957 76.2497H66.8219V72.6871H70.4957V76.2497ZM70.4957 70.6767H66.8219V67.1141H70.4957V70.6767ZM75.9886 126.25H72.3148V122.688H75.9886V126.25ZM75.9886 120.678H72.3148V117.115H75.9886V120.678ZM75.9886 115.127H72.3148V111.564H75.9886V115.127ZM75.9886 109.598H72.3148V106.036H75.9886V109.598ZM75.9886 104.021H72.3148V100.458H75.9886V104.021ZM75.9886 92.9018H72.3148V89.3392H75.9886V92.9018ZM75.9886 87.3288H72.3148V83.7662H75.9886V87.3288ZM75.9886 81.7826H72.3148V78.22H75.9886V81.7826ZM75.9886 76.2497H72.3148V72.6871H75.9886V76.2497ZM75.9886 70.6767H72.3148V67.1141H75.9886V70.6767Z" fill="url(#paint1_linear_7726_1909)"/>
<path d="M224.741 137.401C224.901 135.333 224.741 67.8035 224.741 67.8035H232.983V82.7966H246.103V114.13H253.544V137.401H224.741Z" fill="url(#paint2_linear_7726_1909)"/>
<path d="M278.656 107.094V104.937H276.432V86.1102H271.006V84.0198H267.346V80.9464H265.438V71.9888H264.063V81.0087H262.311V84.0821H256.885V89.1168H253.749V147.484H280.159V107.09H278.656V107.094ZM258.415 130.569H256.627V123.791H258.415V130.569ZM258.415 122.274H256.627V115.496H258.415V122.274ZM258.415 113.979H256.627V107.201H258.415V113.979ZM258.415 105.533H256.627V98.755H258.415V105.533ZM258.415 97.0915H256.627V90.3133H258.415V97.0915ZM262.097 130.569H260.309V123.791H262.097V130.569ZM262.097 122.274H260.309V115.496H262.097V122.274ZM262.097 113.979H260.309V107.201H262.097V113.979ZM262.097 105.533H260.309V98.755H262.097V105.533ZM262.097 97.0915H260.309V90.3133H262.097V97.0915ZM265.78 130.569H263.992V123.791H265.78V130.569ZM265.78 122.274H263.992V115.496H265.78V122.274ZM265.78 113.979H263.992V107.201H265.78V113.979ZM265.78 105.533H263.992V98.755H265.78V105.533ZM265.78 97.0915H263.992V90.3133H265.78V97.0915ZM269.463 130.569H267.675V123.791H269.463V130.569ZM269.463 122.274H267.675V115.496H269.463V122.274ZM269.463 113.979H267.675V107.201H269.463V113.979ZM269.463 105.533H267.675V98.755H269.463V105.533ZM269.463 97.0915H267.675V90.3133H269.463V97.0915ZM273.145 130.569H271.357V123.791H273.145V130.569ZM273.145 122.274H271.357V115.496H273.145V122.274ZM273.145 113.979H271.357V107.201H273.145V113.979ZM273.145 105.533H271.357V98.755H273.145V105.533ZM273.145 97.0915H271.357V90.3133H273.145V97.0915Z" fill="url(#paint3_linear_7726_1909)"/>
<path d="M28.8521 166.199V126.375H33.4154V106.049L49.0979 99.2574V126.055H52.5404V166.199H28.8521Z" fill="url(#paint4_linear_7726_1909)"/>
<path d="M297.834 158.816H284.073V104.048L297.834 110.706V158.816Z" fill="url(#paint5_linear_7726_1909)"/>
<path d="M26.5482 26.8003C26.5482 26.8003 30.7023 15.4676 40.9142 19.9153C43.2715 17.5224 46.1891 15.7834 50.1342 16.5662C54.0793 17.3534 56.6234 20.3067 57.4862 22.2726C58.7227 22.2147 68.6232 22.5439 68.6232 32.8136C68.6232 43.0833 56.6412 42.8876 55.7739 42.0736C54.7064 43.0254 49.5738 48.1892 43.3471 42.296C41.9994 43.448 37.5962 48.3271 30.6356 41.5933C27.411 42.9409 19.7477 43.9772 18.2622 36.0648C16.7766 28.1524 24.4 25.9241 26.5482 26.8003Z" fill="url(#paint6_linear_7726_1909)"/>
<path d="M256.524 10.424C256.524 10.424 260.678 -0.908674 270.89 3.53901C273.248 1.14615 276.165 -0.592888 280.11 0.189903C284.055 0.977142 286.6 3.9304 287.462 5.89628C288.699 5.83846 298.599 6.16758 298.599 16.4373C298.599 26.707 286.617 26.5113 285.75 25.6973C284.683 26.6491 279.55 31.8129 273.323 25.9197C271.976 27.0717 267.572 31.9508 260.612 25.217C257.387 26.5646 249.724 27.6009 248.238 19.6885C246.753 11.7806 254.372 9.54782 256.524 10.424Z" fill="url(#paint7_linear_7726_1909)"/>
<path d="M203.446 34.6772C203.446 34.6772 206.452 26.4712 213.844 29.6958C215.552 27.9612 217.66 26.7025 220.52 27.2718C223.376 27.8411 225.217 29.9805 225.84 31.3993C226.734 31.3592 233.903 31.595 233.903 39.027C233.903 46.4591 225.23 46.3168 224.603 45.7297C223.829 46.4191 220.116 50.1551 215.606 45.8942C214.632 46.726 211.443 50.2619 206.408 45.3872C204.073 46.3613 198.527 47.1129 197.45 41.3843C196.374 35.6601 201.889 34.0412 203.446 34.6772Z" fill="url(#paint8_linear_7726_1909)"/>
<path d="M165 240C256.127 240 330 213.137 330 180C330 146.863 256.127 120 165 120C73.873 120 0 146.863 0 180C0 213.137 73.873 240 165 240Z" fill="url(#paint9_linear_7726_1909)"/>
<path d="M108 144.895L166.905 240L304.5 209.534L220.009 144L108 144.895Z" fill="url(#paint10_linear_7726_1909)"/>
<path d="M108.483 141.334H159.098V74.0938L108.483 87.3745V141.334Z" fill="url(#paint11_linear_7726_1909)"/>
<path d="M220.16 118.726H159.098V74.0938L220.16 88.0417V118.726Z" fill="url(#paint12_linear_7726_1909)"/>
<path d="M108.483 87.3746L90.9194 108.301L108.483 116.151V87.3746Z" fill="url(#paint13_linear_7726_1909)"/>
<path d="M168.202 168.732L108.483 144.509V87.3746L168.202 102.577V168.732Z" fill="url(#paint14_linear_7726_1909)"/>
<path d="M168.202 168.731L220.16 143.673V88.0417L168.202 102.577V168.731Z" fill="url(#paint15_linear_7726_1909)"/>
<path d="M220.16 88.0417L237.755 111.597L186.803 131.811L168.202 102.577L220.16 88.0417Z" fill="url(#paint16_linear_7726_1909)"/>
<path d="M108.483 87.3746L92.6941 113.767L154.673 134.235L168.202 102.577L108.483 87.3746Z" fill="url(#paint17_linear_7726_1909)"/>
<path d="M52.0068 189.314C52.0068 189.314 50.4368 191.542 53.0609 194.86C55.4004 197.814 59.0964 197.24 60.324 196.292C60.702 198.863 63.8554 204.281 68.8457 201.216C73.538 198.338 71.2786 193.962 69.7797 192.241C72.7108 191.413 74.8946 184.39 68.1697 181.966C69.166 179.067 69.3439 177.755 67.885 175.148C66.4796 172.64 64.1712 172.239 60.4885 173.765L55.1602 176.011L51.7666 169.678L49.952 170.727L53.866 176.776L48.68 179.378C48.68 179.378 44.2456 181.113 46.1581 185.872C47.9327 190.284 52.0068 189.314 52.0068 189.314Z" fill="url(#paint18_linear_7726_1909)"/>
<path d="M42.978 162.312H59.0163C59.0163 162.312 64.1979 162.459 65.2297 156.539C66.3639 150.041 61.636 149.147 61.636 149.147C61.636 149.147 64.4825 147.839 63.8643 142.925C63.2461 138.01 58.9185 137.392 57.1171 137.619C57.4107 134.705 58.0245 128.11 51.175 128.043C44.5613 127.976 44.6014 134.634 45.0951 137.258C42.7378 137.285 35.6171 140.821 40.6252 148.578C37.8987 150.913 36.7468 152.26 36.8669 155.627C36.987 158.994 39.0462 162.312 42.978 162.312Z" fill="url(#paint19_linear_7726_1909)"/>
<path d="M58.6204 153.31L51.7799 157.811L51.5931 153.461L55.9207 148.364L51.5264 151.914L50.9571 138.615L50.539 151.998L45.9223 148.324L50.4945 153.363L50.3567 157.842L43.3204 152.674L50.3033 159.457L49.9519 170.736H52.3359L51.8555 159.524L58.6204 153.31Z" fill="#C6D5E6"/>
<path d="M284.363 181.175C284.363 181.175 282.917 183.23 285.332 186.281C287.485 189.003 290.892 188.473 292.022 187.597C292.368 189.963 295.277 194.949 299.872 192.134C304.19 189.483 302.113 185.454 300.73 183.87C303.43 183.11 305.44 176.638 299.249 174.41C300.17 171.741 300.334 170.532 298.987 168.134C297.692 165.826 295.566 165.452 292.177 166.862L287.267 168.93L284.14 163.099L282.472 164.065L286.075 169.633L281.303 172.03C281.303 172.03 277.22 173.627 278.981 178.013C280.609 182.064 284.363 181.175 284.363 181.175Z" fill="url(#paint20_linear_7726_1909)"/>
<path d="M276.05 156.308H290.816C290.816 156.308 295.588 156.446 296.536 150.993C297.577 145.011 293.227 144.188 293.227 144.188C293.227 144.188 295.851 142.983 295.277 138.459C294.703 133.936 290.723 133.362 289.064 133.576C289.335 130.894 289.9 124.818 283.593 124.756C277.504 124.694 277.54 130.823 277.993 133.242C275.823 133.264 269.263 136.52 273.879 143.668C271.371 145.816 270.308 147.061 270.419 150.157C270.53 153.252 272.429 156.308 276.05 156.308Z" fill="url(#paint21_linear_7726_1909)"/>
<path d="M290.451 148.017L284.153 152.163L283.984 148.155L287.965 143.463L283.922 146.732L283.397 134.483L283.01 146.812L278.763 143.427L282.97 148.066L282.841 152.189L276.366 147.43L282.797 153.679L282.472 164.065H284.665L284.225 153.741L290.451 148.017Z" fill="#C6D5E6"/>
<path d="M88.8914 141.057C88.8914 141.057 88.1131 142.16 89.4118 143.801C90.5682 145.264 92.3962 144.98 93.0055 144.508C93.1923 145.78 94.7535 148.458 97.2219 146.945C99.5436 145.522 98.4273 143.356 97.6845 142.507C99.1344 142.097 100.215 138.624 96.8884 137.427C97.382 135.995 97.471 135.346 96.746 134.056C96.0522 132.815 94.9091 132.615 93.09 133.371L90.4526 134.483L88.7758 131.352L87.8774 131.872L89.8121 134.861L87.2458 136.146C87.2458 136.146 85.0531 137.005 86.0004 139.358C86.8766 141.537 88.8914 141.057 88.8914 141.057Z" fill="url(#paint22_linear_7726_1909)"/>
<path d="M84.426 127.7H92.3562C92.3562 127.7 94.918 127.772 95.4295 124.845C95.9899 121.629 93.6504 121.189 93.6504 121.189C93.6504 121.189 95.0604 120.54 94.7535 118.111C94.4466 115.683 92.3072 115.376 91.4177 115.487C91.5645 114.046 91.8669 110.781 88.4778 110.75C85.2043 110.719 85.2265 114.01 85.4712 115.309C84.3059 115.322 80.7833 117.07 83.2607 120.909C81.913 122.061 81.3393 122.732 81.4015 124.396C81.4638 126.059 82.4823 127.7 84.426 127.7Z" fill="url(#paint23_linear_7726_1909)"/>
<path d="M92.1649 123.248L88.7802 125.476L88.6868 123.324L90.8261 120.802L88.6556 122.559L88.371 115.976L88.1664 122.599L85.8847 120.784L88.1442 123.275L88.073 125.49L84.5949 122.932L88.0508 126.29L87.8728 131.868H89.0515L88.8158 126.322L92.1649 123.248Z" fill="#C6D5E6"/>
<path d="M199.171 19.0448C198.998 19.0448 198.833 18.9425 198.762 18.7735C198.664 18.5466 198.771 18.2842 198.994 18.1908C199.536 17.9595 199.83 17.8439 199.83 17.8439C200.061 17.7549 200.314 17.8661 200.403 18.0974C200.492 18.3242 200.381 18.5822 200.15 18.6712C200.145 18.6712 199.865 18.7823 199.345 19.0047C199.287 19.0359 199.229 19.0448 199.171 19.0448Z" fill="url(#paint24_linear_7726_1909)"/>
<path d="M168.536 98.9651C168.358 98.9651 168.184 98.8539 168.118 98.676C167.904 98.1022 167.735 97.5018 167.615 96.8925C167.571 96.6523 167.726 96.4166 167.967 96.3721C168.207 96.3232 168.442 96.4833 168.487 96.7235C168.594 97.2839 168.749 97.8354 168.949 98.3602C169.034 98.5915 168.918 98.845 168.691 98.934C168.643 98.9562 168.589 98.9651 168.536 98.9651ZM174.505 95.5448C174.5 95.5448 174.496 95.5448 174.496 95.5448C173.886 95.5315 173.277 95.4915 172.686 95.4292C172.441 95.4025 172.263 95.1846 172.29 94.9399C172.316 94.6953 172.534 94.5174 172.779 94.5441C173.348 94.6064 173.931 94.642 174.518 94.6553C174.763 94.6597 174.958 94.8643 174.954 95.109C174.945 95.3536 174.745 95.5448 174.505 95.5448ZM176.284 95.5181C176.048 95.5181 175.852 95.3358 175.839 95.0956C175.826 94.851 176.012 94.6419 176.257 94.6286C176.831 94.5975 177.413 94.5441 177.996 94.4685C178.241 94.4374 178.463 94.6108 178.494 94.8554C178.525 95.1001 178.352 95.3224 178.107 95.3536C177.502 95.4292 176.897 95.487 176.301 95.5181C176.301 95.5181 176.293 95.5181 176.284 95.5181ZM167.864 95.487C167.624 95.487 167.428 95.2958 167.419 95.0556C167.415 94.9533 167.415 94.8465 167.415 94.7398C167.415 94.5441 167.419 94.3484 167.428 94.1527C167.419 94.1483 167.415 94.1483 167.406 94.1438C166.837 93.9348 166.276 93.7035 165.734 93.4633C165.511 93.361 165.409 93.0986 165.507 92.8762C165.609 92.6538 165.872 92.5515 166.094 92.6494C166.552 92.854 167.028 93.0497 167.508 93.232C167.508 93.2231 167.508 93.2187 167.513 93.2098C167.544 92.9652 167.766 92.7962 168.011 92.8228C168.256 92.854 168.429 93.0764 168.398 93.321C168.336 93.7969 168.309 94.2728 168.309 94.7398C168.309 94.8376 168.309 94.9355 168.313 95.0289C168.318 95.2735 168.127 95.4781 167.882 95.487C167.873 95.487 167.869 95.487 167.864 95.487ZM170.973 95.1623C170.942 95.1623 170.915 95.1579 170.884 95.1534C170.395 95.0556 169.91 94.9399 169.443 94.8065L169.118 94.7131C168.883 94.6419 168.749 94.3973 168.82 94.1616C168.892 93.9259 169.136 93.7924 169.372 93.8636L169.683 93.957C170.128 94.086 170.591 94.1972 171.058 94.2906C171.298 94.3395 171.453 94.5752 171.405 94.8154C171.365 95.02 171.182 95.1623 170.973 95.1623ZM179.815 95.0689C179.606 95.0689 179.419 94.9222 179.379 94.7087C179.33 94.4685 179.486 94.2328 179.731 94.1838C180.3 94.0726 180.869 93.9392 181.434 93.788C181.67 93.7257 181.914 93.8636 181.981 94.1038C182.048 94.3439 181.906 94.5841 181.665 94.6508C181.083 94.8065 180.491 94.9444 179.904 95.06C179.873 95.0645 179.842 95.0689 179.815 95.0689ZM183.249 94.1483C183.062 94.1483 182.888 94.0326 182.826 93.8458C182.746 93.6145 182.871 93.361 183.102 93.281C183.653 93.0942 184.205 92.8851 184.739 92.6627C184.966 92.5693 185.228 92.6761 185.321 92.9029C185.415 93.1297 185.308 93.3922 185.081 93.4856C184.53 93.7168 183.96 93.9303 183.391 94.126C183.347 94.1394 183.298 94.1483 183.249 94.1483ZM186.531 92.7784C186.367 92.7784 186.211 92.6894 186.135 92.5337C186.024 92.3158 186.113 92.049 186.331 91.9378C186.86 91.6709 187.372 91.3863 187.857 91.0927C188.066 90.9637 188.341 91.0349 188.466 91.2439C188.59 91.453 188.524 91.7287 188.315 91.8533C187.808 92.1601 187.274 92.4537 186.727 92.7294C186.665 92.7606 186.598 92.7784 186.531 92.7784ZM164.319 92.7206C164.248 92.7206 164.177 92.7028 164.11 92.6672C163.577 92.3825 163.052 92.0756 162.545 91.7554C162.336 91.6264 162.273 91.3507 162.407 91.1416C162.536 90.9326 162.812 90.8703 163.021 91.0037C163.505 91.3106 164.017 91.6086 164.528 91.8799C164.746 91.9956 164.826 92.2669 164.711 92.4804C164.631 92.636 164.475 92.7206 164.319 92.7206ZM168.3 91.9689C168.26 91.9689 168.224 91.9644 168.184 91.9556C167.949 91.8933 167.806 91.6487 167.869 91.4085C168.024 90.8347 168.22 90.2521 168.456 89.6739C168.549 89.4471 168.807 89.3359 169.034 89.4293C169.261 89.5227 169.372 89.7806 169.279 90.0075C169.061 90.5501 168.874 91.1016 168.727 91.6398C168.678 91.8355 168.496 91.9689 168.3 91.9689ZM189.569 90.9281C189.431 90.9281 189.298 90.8659 189.213 90.7458C189.066 90.5501 189.111 90.2699 189.306 90.1231C189.791 89.7673 190.236 89.3937 190.636 89.0201C190.814 88.8511 191.099 88.86 191.263 89.0379C191.432 89.2158 191.424 89.5004 191.246 89.665C190.823 90.0608 190.347 90.4567 189.836 90.8347C189.751 90.9014 189.658 90.9281 189.569 90.9281ZM161.313 90.8214C161.219 90.8214 161.126 90.7947 161.05 90.7324C160.566 90.3722 160.09 89.9941 159.636 89.5983C159.449 89.4382 159.431 89.158 159.592 88.9712C159.752 88.7843 160.032 88.7666 160.219 88.9267C160.655 89.3047 161.113 89.6739 161.58 90.0164C161.775 90.1631 161.82 90.4433 161.673 90.639C161.584 90.7591 161.451 90.8214 161.313 90.8214ZM169.621 88.6732C169.55 88.6732 169.479 88.6554 169.412 88.6198C169.194 88.5042 169.114 88.2373 169.23 88.0194C169.51 87.4945 169.83 86.9697 170.186 86.4582C170.324 86.2581 170.604 86.2047 170.804 86.347C171.004 86.4849 171.058 86.7651 170.915 86.9653C170.582 87.4456 170.279 87.9437 170.017 88.4374C169.932 88.5887 169.781 88.6732 169.621 88.6732ZM158.631 88.4953C158.515 88.4953 158.404 88.4508 158.315 88.3618C157.893 87.9348 157.479 87.4856 157.087 87.0275C156.927 86.8407 156.95 86.5605 157.136 86.4004C157.323 86.2403 157.603 86.2625 157.764 86.4493C158.142 86.8896 158.537 87.3211 158.942 87.7347C159.116 87.9082 159.116 88.1928 158.938 88.3618C158.858 88.4508 158.742 88.4953 158.631 88.4953ZM192.131 88.4775C192.037 88.4775 191.944 88.4463 191.859 88.3885C191.664 88.2417 191.628 87.9615 191.775 87.7658C191.828 87.6947 191.882 87.6235 191.935 87.5479C192.224 87.1387 192.487 86.7295 192.713 86.3248C192.833 86.1113 193.105 86.0357 193.318 86.1558C193.532 86.2759 193.607 86.5472 193.487 86.7607C193.247 87.1921 192.967 87.628 192.66 88.0638C192.602 88.1439 192.544 88.2239 192.482 88.304C192.398 88.4196 192.264 88.4775 192.131 88.4775ZM156.327 85.7911C156.189 85.7911 156.056 85.7288 155.967 85.6087C155.615 85.1239 155.273 84.6213 154.953 84.1098C154.824 83.9008 154.886 83.625 155.095 83.4961C155.304 83.3671 155.58 83.4294 155.709 83.6384C156.016 84.1321 156.345 84.6169 156.687 85.0839C156.834 85.284 156.789 85.5598 156.589 85.7066C156.509 85.7644 156.416 85.7911 156.327 85.7911ZM171.636 85.751C171.534 85.751 171.431 85.7155 171.347 85.6443C171.16 85.4842 171.138 85.204 171.298 85.0172C171.685 84.568 172.103 84.1232 172.548 83.6918C172.726 83.5228 173.006 83.5228 173.175 83.7007C173.344 83.8786 173.344 84.1588 173.166 84.3278C172.743 84.737 172.343 85.1639 171.974 85.5909C171.889 85.6977 171.765 85.751 171.636 85.751ZM193.843 85.373C193.794 85.373 193.745 85.3641 193.696 85.3463C193.465 85.2662 193.345 85.0083 193.425 84.777C193.625 84.2166 193.75 83.674 193.803 83.1536C193.825 82.909 194.043 82.7311 194.288 82.7533C194.533 82.7755 194.71 82.9935 194.688 83.2381C194.63 83.8296 194.488 84.4434 194.266 85.0705C194.199 85.2618 194.025 85.373 193.843 85.373ZM174.184 83.2692C174.055 83.2692 173.931 83.2159 173.842 83.1091C173.686 82.9179 173.713 82.6377 173.9 82.482C174.358 82.1039 174.843 81.7348 175.341 81.379C175.541 81.2366 175.817 81.2856 175.959 81.4857C176.101 81.6859 176.052 81.9616 175.852 82.1039C175.372 82.4464 174.905 82.8022 174.465 83.1669C174.385 83.2381 174.282 83.2692 174.184 83.2692ZM154.446 82.7755C154.285 82.7755 154.13 82.691 154.05 82.5398C153.77 82.0105 153.507 81.459 153.262 80.912C153.165 80.6851 153.267 80.4227 153.489 80.3249C153.716 80.227 153.979 80.3293 154.076 80.5517C154.312 81.0854 154.566 81.6147 154.837 82.1262C154.953 82.3441 154.868 82.611 154.65 82.7266C154.583 82.7578 154.512 82.7755 154.446 82.7755ZM194.137 81.8771C193.937 81.8771 193.754 81.7392 193.705 81.5346C193.581 81.0098 193.354 80.5206 193.043 80.0847C192.9 79.8846 192.945 79.6088 193.145 79.462C193.345 79.3197 193.621 79.3642 193.767 79.5643C194.15 80.098 194.421 80.6896 194.573 81.3256C194.63 81.5658 194.484 81.806 194.243 81.8638C194.203 81.8727 194.168 81.8771 194.137 81.8771ZM177.084 81.21C176.933 81.21 176.786 81.1343 176.706 80.9965C176.577 80.7874 176.644 80.5117 176.853 80.3871C177.364 80.0758 177.894 79.7734 178.427 79.4931C178.645 79.3775 178.912 79.462 179.028 79.68C179.144 79.8979 179.059 80.1648 178.841 80.2804C178.325 80.5517 177.814 80.8408 177.32 81.1432C177.244 81.1877 177.164 81.21 177.084 81.21ZM180.233 79.5554C180.064 79.5554 179.9 79.4576 179.828 79.293C179.731 79.0706 179.828 78.8038 180.055 78.7059C180.611 78.4613 181.176 78.23 181.732 78.0299C181.963 77.9454 182.217 78.0654 182.301 78.2967C182.386 78.528 182.266 78.7815 182.035 78.866C181.496 79.0617 180.949 79.2841 180.411 79.5198C180.353 79.5421 180.295 79.5554 180.233 79.5554ZM153.009 79.5198C152.827 79.5198 152.658 79.4087 152.591 79.2263C152.386 78.6614 152.199 78.0832 152.035 77.505C151.968 77.2693 152.106 77.0247 152.342 76.9535C152.578 76.8868 152.822 77.0247 152.893 77.2604C153.053 77.8208 153.231 78.3812 153.427 78.9238C153.512 79.1551 153.391 79.4086 153.16 79.4931C153.111 79.5154 153.058 79.5198 153.009 79.5198ZM192.131 79.035C192.042 79.035 191.953 79.0084 191.873 78.955C191.446 78.6525 190.952 78.3901 190.401 78.1722C190.174 78.0832 190.058 77.8253 190.152 77.594C190.24 77.3672 190.498 77.2515 190.73 77.3449C191.348 77.5896 191.908 77.8831 192.389 78.2256C192.589 78.3679 192.638 78.6436 192.495 78.8438C192.411 78.9683 192.273 79.035 192.131 79.035ZM183.578 78.3412C183.382 78.3412 183.204 78.2122 183.151 78.0165C183.084 77.7808 183.222 77.5362 183.458 77.4695C184.063 77.3004 184.659 77.1626 185.228 77.0558C185.468 77.0114 185.699 77.1715 185.748 77.4116C185.793 77.6518 185.633 77.8831 185.393 77.932C184.845 78.0343 184.276 78.1677 183.698 78.3279C183.658 78.3368 183.618 78.3412 183.578 78.3412ZM188.853 77.7497C188.835 77.7497 188.817 77.7497 188.799 77.7452C188.484 77.7052 188.146 77.6874 187.79 77.6874C187.576 77.6785 187.341 77.6963 187.105 77.7096C186.86 77.723 186.647 77.5406 186.633 77.2916C186.62 77.0469 186.802 76.8334 187.052 76.8201C187.305 76.8023 187.55 76.7979 187.79 76.7979C187.79 76.7979 187.79 76.7979 187.794 76.7979C188.186 76.7979 188.559 76.8201 188.911 76.8646C189.155 76.8957 189.329 77.1181 189.298 77.3583C189.266 77.5851 189.071 77.7497 188.853 77.7497ZM152.035 76.0996C151.83 76.0996 151.644 75.9573 151.599 75.7482C151.475 75.1567 151.368 74.5607 151.288 73.9647C151.252 73.7201 151.421 73.4977 151.666 73.4621C151.91 73.4265 152.133 73.5955 152.168 73.8402C152.248 74.4139 152.351 74.9921 152.471 75.5614C152.52 75.8016 152.369 76.0373 152.128 76.0907C152.097 76.0996 152.066 76.0996 152.035 76.0996ZM151.546 72.577C151.314 72.577 151.119 72.3991 151.101 72.1634C151.065 71.6208 151.048 71.0781 151.048 70.5444V70.3487C151.048 70.1041 151.252 69.8951 151.497 69.9084C151.741 69.9084 151.942 70.113 151.937 70.3576V70.5444C151.937 71.0559 151.955 71.5807 151.99 72.1011C152.008 72.3457 151.821 72.5592 151.577 72.577C151.563 72.577 151.555 72.577 151.546 72.577ZM151.581 69.0233C151.568 69.0233 151.555 69.0233 151.541 69.0233C151.297 69.0011 151.114 68.7831 151.136 68.5385C151.185 67.9826 151.261 67.431 151.354 66.9062L151.372 66.8351L151.43 66.6749C151.51 66.4437 151.764 66.3236 151.995 66.4036C152.226 66.4837 152.351 66.7372 152.266 66.9685L152.222 67.093C152.142 67.56 152.071 68.0849 152.022 68.6141C151.999 68.8499 151.808 69.0233 151.581 69.0233ZM152.457 65.5986C152.404 65.5986 152.351 65.5897 152.297 65.5675C152.066 65.4785 151.95 65.225 152.039 64.9937C152.253 64.4333 152.471 63.8773 152.698 63.3303C152.791 63.1035 153.049 62.9923 153.276 63.0857C153.503 63.1791 153.614 63.437 153.52 63.6639C153.298 64.2065 153.08 64.7535 152.871 65.3095C152.804 65.4874 152.635 65.5986 152.457 65.5986ZM153.805 62.3073C153.747 62.3073 153.685 62.294 153.627 62.2717C153.4 62.1739 153.303 61.9115 153.4 61.6846C153.641 61.1376 153.89 60.595 154.143 60.0568C154.25 59.8344 154.512 59.741 154.735 59.8433C154.957 59.9501 155.05 60.2125 154.948 60.4348C154.699 60.9641 154.454 61.5023 154.214 62.0449C154.139 62.2095 153.979 62.3073 153.805 62.3073ZM155.322 59.0916C155.255 59.0916 155.188 59.0783 155.122 59.0427C154.904 58.9315 154.815 58.6647 154.926 58.4467C155.193 57.913 155.469 57.3837 155.749 56.8589C155.864 56.641 156.136 56.5609 156.349 56.6766C156.567 56.7922 156.647 57.0635 156.532 57.277C156.256 57.7929 155.984 58.3178 155.718 58.847C155.642 58.9983 155.486 59.0916 155.322 59.0916ZM156.999 55.9516C156.923 55.9516 156.847 55.9338 156.781 55.8938C156.567 55.7737 156.491 55.5024 156.612 55.2889C156.905 54.7685 157.208 54.2526 157.514 53.7411C157.639 53.5321 157.915 53.4609 158.124 53.5899C158.333 53.7144 158.404 53.9902 158.275 54.1992C157.973 54.7018 157.675 55.2133 157.385 55.7248C157.305 55.8715 157.154 55.9516 156.999 55.9516ZM158.827 52.9005C158.746 52.9005 158.662 52.8782 158.591 52.8293C158.382 52.6959 158.319 52.4246 158.453 52.2155C158.773 51.7085 159.098 51.2104 159.427 50.7167C159.565 50.5121 159.841 50.4587 160.045 50.5921C160.25 50.73 160.303 51.0058 160.17 51.2104C159.845 51.6996 159.525 52.1933 159.205 52.6914C159.12 52.8293 158.973 52.9005 158.827 52.9005ZM160.801 49.9428C160.712 49.9428 160.623 49.9161 160.548 49.8627C160.348 49.7204 160.299 49.4446 160.441 49.2445C160.784 48.7552 161.135 48.2705 161.486 47.7901C161.633 47.59 161.909 47.5499 162.109 47.6967C162.305 47.8435 162.349 48.1192 162.202 48.3194C161.855 48.7908 161.508 49.2712 161.17 49.756C161.077 49.8761 160.939 49.9428 160.801 49.9428ZM162.909 47.074C162.816 47.074 162.718 47.0429 162.638 46.9806C162.442 46.8294 162.407 46.5492 162.558 46.3579C162.923 45.882 163.292 45.415 163.666 44.9525C163.821 44.7612 164.101 44.7301 164.293 44.8858C164.484 45.0414 164.515 45.3216 164.359 45.5129C163.99 45.971 163.626 46.4336 163.261 46.9006C163.176 47.0162 163.043 47.074 162.909 47.074ZM165.147 44.3076C165.044 44.3076 164.942 44.272 164.862 44.2008C164.675 44.0407 164.649 43.7605 164.809 43.5737C165.196 43.1156 165.587 42.6664 165.978 42.2216C166.139 42.0393 166.423 42.0215 166.606 42.1816C166.788 42.3461 166.806 42.6263 166.646 42.8087C166.259 43.249 165.872 43.6938 165.489 44.1475C165.396 44.2542 165.271 44.3076 165.147 44.3076ZM167.5 41.639C167.393 41.639 167.286 41.5989 167.197 41.5233C167.015 41.3588 167.006 41.0741 167.17 40.8962C167.575 40.4559 167.984 40.02 168.393 39.593C168.563 39.4151 168.847 39.4107 169.021 39.5797C169.199 39.7487 169.203 40.0333 169.034 40.2068C168.629 40.6293 168.224 41.0608 167.82 41.4966C167.74 41.59 167.62 41.639 167.5 41.639ZM169.964 39.0726C169.848 39.0726 169.737 39.0282 169.648 38.9437C169.474 38.7702 169.474 38.49 169.648 38.3165C170.07 37.894 170.497 37.4759 170.924 37.0623C171.102 36.8933 171.382 36.8977 171.551 37.0756C171.72 37.2535 171.716 37.5338 171.538 37.7028C171.115 38.1075 170.693 38.5211 170.275 38.9437C170.19 39.0282 170.079 39.0726 169.964 39.0726ZM172.53 36.6042C172.41 36.6042 172.29 36.5553 172.205 36.4619C172.041 36.2795 172.049 35.9993 172.232 35.8347C172.672 35.4256 173.112 35.0253 173.557 34.6339C173.74 34.4693 174.02 34.4871 174.184 34.6694C174.349 34.8518 174.331 35.132 174.149 35.2966C173.713 35.688 173.273 36.0838 172.837 36.4885C172.743 36.5642 172.637 36.6042 172.53 36.6042ZM175.19 34.238C175.065 34.238 174.94 34.1846 174.852 34.0824C174.691 33.8955 174.714 33.6153 174.9 33.4552C175.359 33.0638 175.812 32.6813 176.27 32.3033C176.462 32.1476 176.742 32.1743 176.897 32.3655C177.053 32.5568 177.026 32.837 176.835 32.9927C176.386 33.3663 175.932 33.7443 175.479 34.1313C175.394 34.2024 175.292 34.238 175.19 34.238ZM177.934 31.9742C177.805 31.9742 177.671 31.9163 177.587 31.8051C177.436 31.6139 177.467 31.3337 177.658 31.178C178.129 30.8044 178.601 30.4353 179.068 30.0794C179.264 29.9282 179.544 29.9682 179.691 30.1639C179.842 30.3596 179.802 30.6398 179.606 30.7866C179.144 31.1424 178.677 31.5027 178.21 31.8763C178.129 31.943 178.032 31.9742 177.934 31.9742ZM180.762 29.8081C180.625 29.8081 180.491 29.7459 180.402 29.6258C180.255 29.4301 180.3 29.1499 180.496 29.0031C180.98 28.6428 181.465 28.2959 181.946 27.9535C182.146 27.8111 182.421 27.8601 182.564 28.0602C182.706 28.2603 182.657 28.5361 182.457 28.6784C181.981 29.0164 181.505 29.3634 181.02 29.7192C180.945 29.7814 180.851 29.8081 180.762 29.8081ZM183.662 27.7489C183.52 27.7489 183.382 27.6821 183.293 27.5576C183.155 27.353 183.204 27.0773 183.409 26.9394C183.911 26.5969 184.405 26.2633 184.894 25.9431C185.099 25.8097 185.375 25.863 185.513 26.0676C185.646 26.2722 185.593 26.548 185.388 26.6859C184.903 27.0061 184.414 27.3352 183.916 27.6732C183.836 27.7222 183.747 27.7489 183.662 27.7489ZM186.633 25.7874C186.487 25.7874 186.344 25.7163 186.26 25.5828C186.126 25.3738 186.189 25.1025 186.398 24.9691C186.914 24.6399 187.421 24.3286 187.914 24.0217C188.123 23.8927 188.399 23.9594 188.524 24.1685C188.653 24.3775 188.586 24.6533 188.377 24.7778C187.883 25.0802 187.385 25.3916 186.874 25.7163C186.798 25.7652 186.713 25.7874 186.633 25.7874ZM189.671 23.9283C189.52 23.9283 189.369 23.8482 189.289 23.7104C189.164 23.4969 189.235 23.2256 189.444 23.101C189.974 22.7897 190.494 22.4917 190.992 22.207C191.206 22.087 191.477 22.1626 191.597 22.3761C191.717 22.5896 191.642 22.8609 191.428 22.9809C190.93 23.2612 190.418 23.5547 189.894 23.866C189.827 23.9061 189.747 23.9283 189.671 23.9283ZM192.776 22.1759C192.616 22.1759 192.464 22.0914 192.384 21.9446C192.269 21.7267 192.349 21.4598 192.562 21.3398C193.114 21.0418 193.643 20.7616 194.146 20.5036C194.363 20.3924 194.63 20.4769 194.746 20.6948C194.857 20.9128 194.773 21.1796 194.555 21.2953C194.057 21.5532 193.536 21.829 192.989 22.1225C192.918 22.1581 192.847 22.1759 192.776 22.1759ZM195.938 20.5392C195.773 20.5392 195.618 20.4458 195.538 20.2901C195.431 20.0677 195.52 19.8053 195.742 19.6941C196.338 19.4006 196.881 19.1426 197.361 18.9202C197.584 18.8179 197.85 18.9158 197.953 19.1382C198.055 19.3605 197.957 19.6274 197.735 19.7297C197.263 19.9476 196.725 20.2056 196.134 20.4947C196.071 20.5258 196.005 20.5392 195.938 20.5392Z" fill="url(#paint25_linear_7726_1909)"/>
<path d="M169.821 101.305C169.697 101.305 169.572 101.251 169.483 101.149C169.474 101.136 169.239 100.864 168.932 100.362C168.803 100.153 168.869 99.8769 169.078 99.7523C169.288 99.6234 169.563 99.6901 169.688 99.8991C169.95 100.331 170.15 100.566 170.15 100.566C170.31 100.753 170.288 101.033 170.101 101.193C170.03 101.269 169.924 101.305 169.821 101.305Z" fill="url(#paint26_linear_7726_1909)"/>
<path d="M193.412 6.6758L227.174 1.04059L216.629 20.9484L193.412 6.6758Z" fill="url(#paint27_linear_7726_1909)"/>
<path d="M218.999 5.84406L206.283 14.2813L204.638 20.9484L202.236 12.0975L218.999 5.84406Z" fill="url(#paint28_linear_7726_1909)"/>
<path d="M210.762 17.3413L204.638 20.9484L206.185 14.2057L210.762 17.3413Z" fill="#B4C6D9"/>
</g>
<defs>
<linearGradient id="paint0_linear_7726_1909" x1="100.75" y1="130.591" x2="100.75" y2="87.5426" gradientUnits="userSpaceOnUse">
<stop offset="5.35827e-07" stop-color="white" stop-opacity="0"/>
<stop offset="1" stop-color="#DBE3EE"/>
</linearGradient>
<linearGradient id="paint1_linear_7726_1909" x1="72.0105" y1="156.384" x2="72.0105" y2="60.0965" gradientUnits="userSpaceOnUse">
<stop offset="5.35827e-07" stop-color="white" stop-opacity="0"/>
<stop offset="1" stop-color="#DBE3EE"/>
</linearGradient>
<linearGradient id="paint2_linear_7726_1909" x1="239.146" y1="137.402" x2="239.146" y2="67.804" gradientUnits="userSpaceOnUse">
<stop offset="5.35827e-07" stop-color="white" stop-opacity="0"/>
<stop offset="1" stop-color="#DBE3EE"/>
</linearGradient>
<linearGradient id="paint3_linear_7726_1909" x1="266.955" y1="147.485" x2="266.955" y2="71.9894" gradientUnits="userSpaceOnUse">
<stop offset="5.35827e-07" stop-color="white" stop-opacity="0"/>
<stop offset="1" stop-color="#DBE3EE"/>
</linearGradient>
<linearGradient id="paint4_linear_7726_1909" x1="40.6961" y1="166.2" x2="40.6961" y2="99.2561" gradientUnits="userSpaceOnUse">
<stop offset="5.35827e-07" stop-color="white" stop-opacity="0"/>
<stop offset="1" stop-color="#EDF1F9"/>
</linearGradient>
<linearGradient id="paint5_linear_7726_1909" x1="290.955" y1="158.814" x2="290.955" y2="104.049" gradientUnits="userSpaceOnUse">
<stop offset="5.35827e-07" stop-color="white" stop-opacity="0"/>
<stop offset="1" stop-color="#EDF1F9"/>
</linearGradient>
<linearGradient id="paint6_linear_7726_1909" x1="43.3485" y1="45.0861" x2="43.3485" y2="16.3802" gradientUnits="userSpaceOnUse">
<stop offset="0.2332" stop-color="white" stop-opacity="0"/>
<stop offset="1" stop-color="#D3DFEE"/>
</linearGradient>
<linearGradient id="paint7_linear_7726_1909" x1="273.324" y1="28.7096" x2="273.324" y2="0.00376763" gradientUnits="userSpaceOnUse">
<stop offset="0.2332" stop-color="white" stop-opacity="0"/>
<stop offset="1" stop-color="#D3DFEE"/>
</linearGradient>
<linearGradient id="paint8_linear_7726_1909" x1="215.606" y1="47.9118" x2="215.606" y2="27.1335" gradientUnits="userSpaceOnUse">
<stop offset="0.2332" stop-color="white" stop-opacity="0"/>
<stop offset="1" stop-color="#D3DFEE"/>
</linearGradient>
<linearGradient id="paint9_linear_7726_1909" x1="164.999" y1="240" x2="164.999" y2="119.997" gradientUnits="userSpaceOnUse">
<stop offset="0.4065" stop-color="white" stop-opacity="0"/>
<stop offset="1" stop-color="#DAE4EF"/>
</linearGradient>
<linearGradient id="paint10_linear_7726_1909" x1="215.394" y1="232.627" x2="199.932" y2="130.919" gradientUnits="userSpaceOnUse">
<stop offset="0.1468" stop-color="white" stop-opacity="0"/>
<stop offset="1" stop-color="#BBCBE0"/>
</linearGradient>
<linearGradient id="paint11_linear_7726_1909" x1="108.482" y1="107.713" x2="159.1" y2="107.713" gradientUnits="userSpaceOnUse">
<stop offset="5.30912e-07" stop-color="#E5ECF3"/>
<stop offset="1" stop-color="#BECFE0"/>
</linearGradient>
<linearGradient id="paint12_linear_7726_1909" x1="159.1" y1="96.4093" x2="220.158" y2="96.4093" gradientUnits="userSpaceOnUse">
<stop stop-color="#D9E3ED"/>
<stop offset="1" stop-color="#ACC2DB"/>
</linearGradient>
<linearGradient id="paint13_linear_7726_1909" x1="99.7006" y1="116.15" x2="99.7006" y2="87.3744" gradientUnits="userSpaceOnUse">
<stop stop-color="#EFF3F9"/>
<stop offset="0.9705" stop-color="#9CB6D2"/>
</linearGradient>
<linearGradient id="paint14_linear_7726_1909" x1="108.482" y1="128.052" x2="168.204" y2="128.052" gradientUnits="userSpaceOnUse">
<stop stop-color="#EFF3F9"/>
<stop offset="1" stop-color="#B4C7DC"/>
</linearGradient>
<linearGradient id="paint15_linear_7726_1909" x1="156.481" y1="154.759" x2="226.699" y2="95.8382" gradientUnits="userSpaceOnUse">
<stop stop-color="#EFF3F9"/>
<stop offset="0.9705" stop-color="#9CB6D2"/>
</linearGradient>
<linearGradient id="paint16_linear_7726_1909" x1="168.204" y1="109.927" x2="237.755" y2="109.927" gradientUnits="userSpaceOnUse">
<stop stop-color="#D5E0EE"/>
<stop offset="1" stop-color="#F5F9FA"/>
</linearGradient>
<linearGradient id="paint17_linear_7726_1909" x1="92.6953" y1="110.804" x2="168.204" y2="110.804" gradientUnits="userSpaceOnUse">
<stop offset="4.42426e-07" stop-color="#F7FAFB"/>
<stop offset="1" stop-color="#D5E0EE"/>
</linearGradient>
<linearGradient id="paint18_linear_7726_1909" x1="72.0115" y1="198.679" x2="49.1343" y2="171.415" gradientUnits="userSpaceOnUse">
<stop offset="0.4034" stop-color="#EFF4F8"/>
<stop offset="1" stop-color="#D4DFEC"/>
</linearGradient>
<linearGradient id="paint19_linear_7726_1909" x1="36.8535" y1="145.178" x2="65.4017" y2="145.178" gradientUnits="userSpaceOnUse">
<stop offset="0.1022" stop-color="#F0F5F8"/>
<stop offset="1" stop-color="#B4C7DC"/>
</linearGradient>
<linearGradient id="paint20_linear_7726_1909" x1="302.785" y1="189.796" x2="281.718" y2="164.69" gradientUnits="userSpaceOnUse">
<stop offset="0.4034" stop-color="#EFF4F8"/>
<stop offset="1" stop-color="#D4DFEC"/>
</linearGradient>
<linearGradient id="paint21_linear_7726_1909" x1="270.409" y1="140.529" x2="296.698" y2="140.529" gradientUnits="userSpaceOnUse">
<stop offset="0.1022" stop-color="#F0F5F8"/>
<stop offset="1" stop-color="#B4C7DC"/>
</linearGradient>
<linearGradient id="paint22_linear_7726_1909" x1="98.7863" y1="145.688" x2="87.4708" y2="132.203" gradientUnits="userSpaceOnUse">
<stop offset="1.4385e-07" stop-color="#EAEFF6"/>
<stop offset="1" stop-color="#CDDAE9"/>
</linearGradient>
<linearGradient id="paint23_linear_7726_1909" x1="81.3965" y1="119.226" x2="95.517" y2="119.226" gradientUnits="userSpaceOnUse">
<stop offset="0.1022" stop-color="#F0F5F8"/>
<stop offset="1" stop-color="#B4C7DC"/>
</linearGradient>
<linearGradient id="paint24_linear_7726_1909" x1="199.58" y1="101.312" x2="199.58" y2="17.8161" gradientUnits="userSpaceOnUse">
<stop offset="5.35827e-07" stop-color="#F3F6F9"/>
<stop offset="1" stop-color="#D0DAE8"/>
</linearGradient>
<linearGradient id="paint25_linear_7726_1909" x1="174.52" y1="100.46" x2="174.52" y2="17.827" gradientUnits="userSpaceOnUse">
<stop offset="5.35827e-07" stop-color="#F3F6F9"/>
<stop offset="1" stop-color="#D0DAE8"/>
</linearGradient>
<linearGradient id="paint26_linear_7726_1909" x1="169.569" y1="101.304" x2="169.569" y2="17.8255" gradientUnits="userSpaceOnUse">
<stop offset="5.35827e-07" stop-color="#F3F6F9"/>
<stop offset="1" stop-color="#D0DAE8"/>
</linearGradient>
<linearGradient id="paint27_linear_7726_1909" x1="193.414" y1="10.9965" x2="227.172" y2="10.9965" gradientUnits="userSpaceOnUse">
<stop stop-color="#F3F6F9"/>
<stop offset="1" stop-color="#B5C6D8"/>
</linearGradient>
<linearGradient id="paint28_linear_7726_1909" x1="210.616" y1="20.9505" x2="210.616" y2="5.84463" gradientUnits="userSpaceOnUse">
<stop stop-color="#D5E0EE"/>
<stop offset="1" stop-color="#F5F9FA"/>
</linearGradient>
<clipPath id="clip0_7726_1909">
<rect width="330" height="240" fill="white"/>
</clipPath>
</defs>
</svg>
