<svg width="330" height="240" viewBox="0 0 330 240" fill="none" xmlns="http://www.w3.org/2000/svg">
<g clip-path="url(#clip0_7726_1861)">
<path d="M107.18 89.0545V87.5378H94.0595V89.2991H91.1774V130.587H110.325V89.0545H107.18ZM108.666 125.855H92.6362V124.631H108.666V125.855ZM108.666 120.215H92.6362V118.992H108.666V120.215ZM108.666 114.58H92.6362V113.357H108.666V114.58ZM108.666 109.087H92.6362V107.864H108.666V109.087ZM108.666 103.612H92.6362V102.389H108.666V103.612ZM108.666 97.9721H92.6362V96.749H108.666V97.9721ZM108.666 92.4837H92.6362V91.2606H108.666V92.4837Z" fill="url(#paint0_linear_7726_1861)"/>
<path d="M81.3924 112.098V63.983H66.8263V60.0957H60.6618V83.8152H59.0028V156.384H85.0262V112.102H81.3924V112.098ZM70.4956 126.246H66.8218V122.683H70.4956V126.246ZM70.4956 120.673H66.8218V117.111H70.4956V120.673ZM70.4956 115.127H66.8218V111.564H70.4956V115.127ZM70.4956 109.594H66.8218V106.031H70.4956V109.594ZM70.4956 104.021H66.8218V100.458H70.4956V104.021ZM70.4956 92.9018H66.8218V89.3392H70.4956V92.9018ZM70.4956 87.3288H66.8218V83.7663H70.4956V87.3288ZM70.4956 81.7781H66.8218V78.2155H70.4956V81.7781ZM70.4956 76.2497H66.8218V72.6871H70.4956V76.2497ZM70.4956 70.6767H66.8218V67.1141H70.4956V70.6767ZM75.9885 126.246H72.3147V122.683H75.9885V126.246ZM75.9885 120.673H72.3147V117.111H75.9885V120.673ZM75.9885 115.127H72.3147V111.564H75.9885V115.127ZM75.9885 109.594H72.3147V106.031H75.9885V109.594ZM75.9885 104.021H72.3147V100.458H75.9885V104.021ZM75.9885 92.9018H72.3147V89.3392H75.9885V92.9018ZM75.9885 87.3288H72.3147V83.7663H75.9885V87.3288ZM75.9885 81.7781H72.3147V78.2155H75.9885V81.7781ZM75.9885 76.2497H72.3147V72.6871H75.9885V76.2497ZM75.9885 70.6767H72.3147V67.1141H75.9885V70.6767Z" fill="url(#paint1_linear_7726_1861)"/>
<path d="M224.746 137.401C224.906 135.333 224.746 67.8035 224.746 67.8035H232.987V82.7966H246.108V114.13H253.549V137.401H224.746Z" fill="url(#paint2_linear_7726_1861)"/>
<path d="M278.656 107.09V104.933H276.432V86.1058H271.006V84.0153H267.346V80.942H265.437V71.9844H264.063V81.0043H262.315V84.0776H256.889V89.1124H253.753V147.479H280.164V107.085H278.656V107.09ZM258.415 130.565H256.627V123.786H258.415V130.565ZM258.415 122.27H256.627V115.492H258.415V122.27ZM258.415 113.975H256.627V107.197H258.415V113.975ZM258.415 105.533H256.627V98.7549H258.415V105.533ZM258.415 97.0871H256.627V90.3088H258.415V97.0871ZM262.097 130.565H260.309V123.786H262.097V130.565ZM262.097 122.27H260.309V115.492H262.097V122.27ZM262.097 113.975H260.309V107.197H262.097V113.975ZM262.097 105.533H260.309V98.7549H262.097V105.533ZM262.097 97.0871H260.309V90.3088H262.097V97.0871ZM265.78 130.565H263.992V123.786H265.78V130.565ZM265.78 122.27H263.992V115.492H265.78V122.27ZM265.78 113.975H263.992V107.197H265.78V113.975ZM265.78 105.533H263.992V98.7549H265.78V105.533ZM265.78 97.0871H263.992V90.3088H265.78V97.0871ZM269.463 130.565H267.675V123.786H269.463V130.565ZM269.463 122.27H267.675V115.492H269.463V122.27ZM269.463 113.975H267.675V107.197H269.463V113.975ZM269.463 105.533H267.675V98.7549H269.463V105.533ZM269.463 97.0871H267.675V90.3088H269.463V97.0871ZM273.145 130.565H271.357V123.786H273.145V130.565ZM273.145 122.27H271.357V115.492H273.145V122.27ZM273.145 113.975H271.357V107.197H273.145V113.975ZM273.145 105.533H271.357V98.7549H273.145V105.533ZM273.145 97.0871H271.357V90.3088H273.145V97.0871Z" fill="url(#paint3_linear_7726_1861)"/>
<path d="M28.8566 166.195V126.371H33.4154V106.045L49.098 99.2531V126.05H52.5405V166.195H28.8566Z" fill="url(#paint4_linear_7726_1861)"/>
<path d="M297.839 158.812H284.078V104.048L297.839 110.706V158.812Z" fill="url(#paint5_linear_7726_1861)"/>
<path d="M26.5526 26.8004C26.5526 26.8004 30.7067 15.4677 40.9186 19.9154C43.2759 17.5226 46.1936 15.7835 50.1386 16.5663C54.0837 17.3535 56.6278 20.3068 57.4907 22.2727C58.7271 22.2149 68.6277 22.544 68.6277 32.8137C68.6277 43.0834 56.6456 42.8877 55.7783 42.0737C54.7109 43.0256 49.5782 48.1893 43.3515 42.2961C42.0038 43.4481 37.6006 48.3272 30.64 41.5934C27.4155 42.941 19.7521 43.9774 18.2666 36.0649C16.7811 28.1525 24.3999 25.9198 26.5526 26.8004Z" fill="url(#paint6_linear_7726_1861)"/>
<path d="M256.529 10.424C256.529 10.424 260.683 -0.908674 270.895 3.53901C273.252 1.14615 276.17 -0.592888 280.115 0.189903C284.06 0.977142 286.604 3.9304 287.467 5.89628C288.703 5.83846 298.604 6.16758 298.604 16.4373C298.604 26.707 286.622 26.5113 285.754 25.6973C284.687 26.6491 279.554 31.8129 273.328 25.9197C271.98 27.0717 267.577 31.9508 260.616 25.217C257.391 26.5646 249.728 27.6009 248.243 19.6885C246.753 11.7806 254.376 9.54337 256.529 10.424Z" fill="url(#paint7_linear_7726_1861)"/>
<path d="M157.799 27.8856C157.799 27.8856 160.806 19.6797 168.198 22.9042C169.906 21.1696 172.014 19.911 174.874 20.4803C177.734 21.0496 179.571 23.1889 180.193 24.6077C181.087 24.5677 188.257 24.8034 188.257 32.2355C188.257 39.6675 179.584 39.5252 178.957 38.9381C178.183 39.6275 174.469 43.3636 169.959 39.1027C168.985 39.9344 165.796 43.4703 160.761 38.5957C158.426 39.5697 152.88 40.3214 151.804 34.5927C150.723 28.8686 156.243 27.2496 157.799 27.8856Z" fill="url(#paint8_linear_7726_1861)"/>
<path d="M165 240C256.127 240 330 213.137 330 180C330 146.863 256.127 120 165 120C73.873 120 0 146.863 0 180C0 213.137 73.873 240 165 240Z" fill="url(#paint9_linear_7726_1861)"/>
<path d="M52.0068 189.314C52.0068 189.314 50.4367 191.542 53.0609 194.86C55.4003 197.814 59.0964 197.24 60.3239 196.293C60.702 198.863 63.8554 204.281 68.8457 201.216C73.538 198.339 71.2786 193.962 69.7797 192.241C72.7107 191.413 74.8945 184.391 68.1696 181.967C69.1659 179.067 69.3438 177.755 67.885 175.148C66.4795 172.64 64.1712 172.24 60.4885 173.765L55.1602 176.011L51.7666 169.678L49.9519 170.727L53.8659 176.776L48.6799 179.378C48.6799 179.378 44.2456 181.113 46.1581 185.872C47.9327 190.284 52.0068 189.314 52.0068 189.314Z" fill="url(#paint10_linear_7726_1861)"/>
<path d="M42.978 162.308H59.0163C59.0163 162.308 64.1979 162.455 65.2297 156.535C66.3639 150.037 61.636 149.143 61.636 149.143C61.636 149.143 64.4825 147.835 63.8643 142.92C63.246 138.006 58.9185 137.387 57.1171 137.614C57.4107 134.701 58.0245 128.105 51.175 128.038C44.5569 127.976 44.6014 134.634 45.0906 137.258C42.7334 137.285 35.6126 140.821 40.6207 148.578C37.8943 150.913 36.7423 152.261 36.8624 155.627C36.9869 158.994 39.0507 162.308 42.978 162.308Z" fill="url(#paint11_linear_7726_1861)"/>
<path d="M58.6205 153.31L51.7844 157.811L51.5976 153.457L55.9207 148.36L51.5309 151.909L50.9616 138.611L50.539 151.998L45.9268 148.324L50.499 153.359L50.3567 157.838L43.3249 152.67L50.3077 159.457L49.9519 170.732H52.3359L51.8555 159.524L58.6205 153.31Z" fill="#C6D5E6"/>
<path d="M284.363 181.17C284.363 181.17 282.917 183.225 285.332 186.276C287.485 188.998 290.892 188.469 292.021 187.593C292.368 189.959 295.277 194.945 299.872 192.13C304.19 189.479 302.113 185.449 300.73 183.866C303.43 183.105 305.44 176.634 299.249 174.406C300.17 171.737 300.334 170.527 298.986 168.13C297.692 165.822 295.566 165.448 292.177 166.858L287.267 168.926L284.14 163.095L282.472 164.06L286.075 169.629L281.303 172.026C281.303 172.026 277.22 173.623 278.981 178.008C280.613 182.064 284.363 181.17 284.363 181.17Z" fill="url(#paint12_linear_7726_1861)"/>
<path d="M276.05 156.303H290.816C290.816 156.303 295.588 156.441 296.536 150.988C297.576 145.006 293.227 144.184 293.227 144.184C293.227 144.184 295.851 142.978 295.277 138.455C294.703 133.932 290.723 133.358 289.064 133.571C289.335 130.889 289.9 124.814 283.593 124.752C277.504 124.689 277.54 130.818 277.993 133.238C275.823 133.26 269.262 136.516 273.879 143.663C271.371 145.811 270.308 147.057 270.419 150.152C270.53 153.252 272.434 156.303 276.05 156.303Z" fill="url(#paint13_linear_7726_1861)"/>
<path d="M290.456 148.017L284.158 152.163L283.984 148.155L287.969 143.459L283.922 146.728L283.402 134.483L283.015 146.808L278.763 143.427L282.975 148.066L282.846 152.189L276.365 147.426L282.797 153.675L282.472 164.06H284.665L284.225 153.737L290.456 148.017Z" fill="#C6D5E6"/>
<path d="M88.8913 141.052C88.8913 141.052 88.113 142.155 89.4117 143.797C90.5681 145.26 92.3961 144.975 93.0054 144.504C93.1922 145.776 94.7533 148.453 97.2218 146.941C99.5435 145.518 98.4271 143.352 97.6844 142.502C99.1343 142.093 100.215 138.62 96.8882 137.423C97.3819 135.991 97.4709 135.342 96.7459 134.052C96.0521 132.811 94.909 132.611 93.0899 133.367L90.4524 134.479L88.7757 131.348L87.8772 131.868L89.812 134.857L87.2457 136.142C87.2457 136.142 85.053 137.001 86.0003 139.353C86.8765 141.533 88.8913 141.052 88.8913 141.052Z" fill="url(#paint14_linear_7726_1861)"/>
<path d="M84.4258 127.696H92.356C92.356 127.696 94.9179 127.767 95.4294 124.841C95.9898 121.625 93.6503 121.185 93.6503 121.185C93.6503 121.185 95.0602 120.535 94.7533 118.107C94.4464 115.678 92.3071 115.371 91.4176 115.483C91.5643 114.042 91.8668 110.777 88.4777 110.746C85.2042 110.715 85.2264 114.006 85.471 115.305C84.3057 115.318 80.7832 117.066 83.2605 120.904C81.9129 122.056 81.3391 122.728 81.4014 124.391C81.4637 126.059 82.4822 127.696 84.4258 127.696Z" fill="url(#paint15_linear_7726_1861)"/>
<path d="M92.1649 123.244L88.7802 125.472L88.6912 123.319L90.8306 120.798L88.6557 122.554L88.3754 115.976L88.1664 122.599L85.8848 120.78L88.1442 123.271L88.0775 125.485L84.5994 122.928L88.0508 126.286L87.8773 131.863H89.0559L88.8158 126.322L92.1649 123.244Z" fill="#C6D5E6"/>
<path d="M182.031 173.254L298.5 214.135L169.832 240L108 172.5L182.031 173.254Z" fill="url(#paint16_linear_7726_1861)"/>
<path d="M121.395 162.25L108.506 164.385L149.482 174.815L182.084 165.452L172.472 164.06L121.395 162.25Z" fill="url(#paint17_linear_7726_1861)"/>
<path d="M135.414 47.3887C135.414 47.3887 99.1522 81.8938 132.576 126.104C163.617 167.165 216.878 137.183 218.821 133.202C193.505 109.025 135.414 47.3887 135.414 47.3887Z" fill="url(#paint18_linear_7726_1861)"/>
<path d="M192.931 74.6174C216.335 98.0211 228.526 123.769 220.16 132.135C211.798 140.496 186.046 128.31 162.643 104.906C139.239 81.5024 127.048 55.7548 135.414 47.3887C143.78 39.0226 169.528 51.2181 192.931 74.6174Z" fill="url(#paint19_linear_7726_1861)"/>
<path d="M162.643 104.906C164.742 107.005 166.864 109.016 168.99 110.928L205.825 66.3225L203.69 64.023L159.867 102.055C160.775 103.011 161.7 103.959 162.643 104.906Z" fill="url(#paint20_linear_7726_1861)"/>
<path d="M205.825 69.4448C209.635 69.4448 212.724 66.3563 212.724 62.5464C212.724 58.7366 209.635 55.6481 205.825 55.6481C202.015 55.6481 198.927 58.7366 198.927 62.5464C198.927 66.3563 202.015 69.4448 205.825 69.4448Z" fill="url(#paint21_linear_7726_1861)"/>
<path d="M225.217 70.4945C223.634 70.4633 222.277 69.2669 222.09 67.6524C219.675 46.9573 203.37 47.1975 202.627 47.2198C200.857 47.2642 198.153 46.3969 198.513 43.0033C198.7 41.2421 199.554 40.8195 201.324 40.7617C201.573 40.7528 207.48 40.5883 213.751 43.7417C219.577 46.6727 225.929 52.9706 229.242 65.7488C229.242 69.8362 226.854 70.4945 225.217 70.4945Z" fill="url(#paint22_linear_7726_1861)"/>
<path d="M226.022 68.8843C224.439 68.8843 223.06 67.7146 222.838 66.1045C220.009 45.4584 202.618 46.0188 201.88 46.0499C200.11 46.13 198.602 44.769 198.513 42.9988C198.424 41.2286 199.776 39.7209 201.542 39.6275C201.791 39.6141 207.693 39.3295 214.027 42.3583C219.911 45.1737 227.321 51.4227 229.211 65.2283C229.451 66.9896 228.219 68.6086 226.462 68.8532C226.316 68.8754 226.169 68.8843 226.022 68.8843Z" fill="url(#paint23_linear_7726_1861)"/>
<path d="M237.288 70.3031C235.002 70.1474 234.01 68.1282 233.917 66.4025C233.192 52.6725 227.352 43.0255 216.553 37.7238C208.351 33.6987 201.849 33.6453 201.76 33.6409C201.756 33.6409 197.85 33.8277 198.504 29.4867C199.211 28.3348 199.905 27.2318 201.684 27.2095C202.076 27.2051 209.828 27.254 219.386 31.9507C228.357 36.3539 241.496 46.041 241.496 66.2824C241.5 69.974 238.453 70.3965 237.288 70.3031Z" fill="url(#paint24_linear_7726_1861)"/>
<path d="M238.342 68.8843C236.634 68.8843 235.211 67.5367 235.131 65.8154C234.508 52.081 228.735 42.394 217.976 37.0123C209.801 32.9248 201.822 32.9204 201.733 32.916C201.729 32.916 201.724 32.916 201.72 32.916C199.95 32.916 198.513 31.4838 198.504 29.7136C198.495 27.939 199.928 26.4891 201.707 26.4802C202.098 26.4802 211.331 26.4891 220.858 31.2525C229.794 35.7224 240.642 45.2938 241.562 65.5174C241.642 67.2921 240.268 68.7954 238.493 68.8754C238.44 68.8843 238.391 68.8843 238.342 68.8843Z" fill="url(#paint25_linear_7726_1861)"/>
<path d="M161.389 145.802V153.715L148.744 155.685V165.457L172.472 160.529V147.421C168.803 147.248 165.085 146.741 161.389 145.802Z" fill="url(#paint26_linear_7726_1861)"/>
<path d="M169.025 147.159V155.272L150.505 158.501L150.589 155.681C150.589 155.681 151.902 122.835 137.122 122.835C122.342 122.835 120.207 147.635 120.207 152.398C120.207 157.162 120.207 165.372 120.207 165.372L148.25 172.271H150.096L175.799 165.128V147.488C173.562 147.501 171.298 147.399 169.025 147.159Z" fill="url(#paint27_linear_7726_1861)"/>
<path d="M118.357 165.372C118.357 165.372 118.357 157.162 118.357 152.398C118.357 147.635 120.492 122.835 135.272 122.835C150.051 122.835 148.739 155.681 148.739 155.681L148.246 172.271L118.357 165.372Z" fill="url(#paint28_linear_7726_1861)"/>
<path d="M139.728 140.981C139.728 138.486 137.998 136.467 135.868 136.467H134.547L134.4 136.805C132.994 137.481 132.007 139.095 132.007 140.981C132.007 142.871 132.999 144.486 134.404 145.162L134.493 145.491L135.823 145.496C135.837 145.496 135.85 145.5 135.863 145.5C135.877 145.5 135.885 145.5 135.899 145.5H135.961V145.496C138.051 145.433 139.728 143.441 139.728 140.981Z" fill="url(#paint29_linear_7726_1861)"/>
<path d="M134.698 145.496C136.83 145.496 138.559 143.474 138.559 140.981C138.559 138.488 136.83 136.467 134.698 136.467C132.566 136.467 130.837 138.488 130.837 140.981C130.837 143.474 132.566 145.496 134.698 145.496Z" fill="url(#paint30_linear_7726_1861)"/>
<path d="M108.506 172.079V164.385L149.482 174.815V183.746L108.506 172.079Z" fill="url(#paint31_linear_7726_1861)"/>
<path d="M182.083 173.182V165.452L149.482 174.815V183.746L182.083 173.182Z" fill="url(#paint32_linear_7726_1861)"/>
</g>
<defs>
<linearGradient id="paint0_linear_7726_1861" x1="100.752" y1="130.588" x2="100.752" y2="87.5401" gradientUnits="userSpaceOnUse">
<stop offset="5.35827e-07" stop-color="white" stop-opacity="0"/>
<stop offset="1" stop-color="#DBE3EE"/>
</linearGradient>
<linearGradient id="paint1_linear_7726_1861" x1="72.0123" y1="156.381" x2="72.0123" y2="60.0941" gradientUnits="userSpaceOnUse">
<stop offset="5.35827e-07" stop-color="white" stop-opacity="0"/>
<stop offset="1" stop-color="#DBE3EE"/>
</linearGradient>
<linearGradient id="paint2_linear_7726_1861" x1="239.148" y1="137.399" x2="239.148" y2="67.8015" gradientUnits="userSpaceOnUse">
<stop offset="5.35827e-07" stop-color="white" stop-opacity="0"/>
<stop offset="1" stop-color="#DBE3EE"/>
</linearGradient>
<linearGradient id="paint3_linear_7726_1861" x1="266.957" y1="147.482" x2="266.957" y2="71.987" gradientUnits="userSpaceOnUse">
<stop offset="5.35827e-07" stop-color="white" stop-opacity="0"/>
<stop offset="1" stop-color="#DBE3EE"/>
</linearGradient>
<linearGradient id="paint4_linear_7726_1861" x1="40.6981" y1="166.197" x2="40.6981" y2="99.2537" gradientUnits="userSpaceOnUse">
<stop offset="5.35827e-07" stop-color="white" stop-opacity="0"/>
<stop offset="1" stop-color="#EDF1F9"/>
</linearGradient>
<linearGradient id="paint5_linear_7726_1861" x1="290.957" y1="158.812" x2="290.957" y2="104.046" gradientUnits="userSpaceOnUse">
<stop offset="5.35827e-07" stop-color="white" stop-opacity="0"/>
<stop offset="1" stop-color="#EDF1F9"/>
</linearGradient>
<linearGradient id="paint6_linear_7726_1861" x1="43.3504" y1="45.0838" x2="43.3504" y2="16.3779" gradientUnits="userSpaceOnUse">
<stop offset="0.2332" stop-color="white" stop-opacity="0"/>
<stop offset="1" stop-color="#D3DFEE"/>
</linearGradient>
<linearGradient id="paint7_linear_7726_1861" x1="273.326" y1="28.7072" x2="273.326" y2="0.00127641" gradientUnits="userSpaceOnUse">
<stop offset="0.2332" stop-color="white" stop-opacity="0"/>
<stop offset="1" stop-color="#D3DFEE"/>
</linearGradient>
<linearGradient id="paint8_linear_7726_1861" x1="169.958" y1="41.12" x2="169.958" y2="20.3417" gradientUnits="userSpaceOnUse">
<stop offset="0.2332" stop-color="white" stop-opacity="0"/>
<stop offset="1" stop-color="#D3DFEE"/>
</linearGradient>
<linearGradient id="paint9_linear_7726_1861" x1="165.001" y1="240.002" x2="165.001" y2="119.999" gradientUnits="userSpaceOnUse">
<stop offset="0.4065" stop-color="white" stop-opacity="0"/>
<stop offset="1" stop-color="#DAE4EF"/>
</linearGradient>
<linearGradient id="paint10_linear_7726_1861" x1="72.0133" y1="198.677" x2="49.1361" y2="171.413" gradientUnits="userSpaceOnUse">
<stop offset="0.4034" stop-color="#EFF4F8" stop-opacity="0"/>
<stop offset="1" stop-color="#D4DFEC"/>
</linearGradient>
<linearGradient id="paint11_linear_7726_1861" x1="36.8554" y1="145.176" x2="65.4036" y2="145.176" gradientUnits="userSpaceOnUse">
<stop offset="0.1022" stop-color="#F0F5F8"/>
<stop offset="1" stop-color="#B4C7DC"/>
</linearGradient>
<linearGradient id="paint12_linear_7726_1861" x1="302.787" y1="189.794" x2="281.72" y2="164.688" gradientUnits="userSpaceOnUse">
<stop offset="0.4034" stop-color="#EFF4F8"/>
<stop offset="1" stop-color="#D4DFEC"/>
</linearGradient>
<linearGradient id="paint13_linear_7726_1861" x1="270.411" y1="140.527" x2="296.7" y2="140.527" gradientUnits="userSpaceOnUse">
<stop offset="0.1022" stop-color="#F0F5F8"/>
<stop offset="1" stop-color="#B4C7DC"/>
</linearGradient>
<linearGradient id="paint14_linear_7726_1861" x1="98.7881" y1="145.686" x2="87.4726" y2="132.201" gradientUnits="userSpaceOnUse">
<stop offset="1.4385e-07" stop-color="#EAEFF6"/>
<stop offset="1" stop-color="#CDDAE9"/>
</linearGradient>
<linearGradient id="paint15_linear_7726_1861" x1="81.3983" y1="119.223" x2="95.5188" y2="119.223" gradientUnits="userSpaceOnUse">
<stop offset="0.1022" stop-color="#F0F5F8"/>
<stop offset="1" stop-color="#B4C7DC"/>
</linearGradient>
<linearGradient id="paint16_linear_7726_1861" x1="218.905" y1="230.433" x2="203.967" y2="153.794" gradientUnits="userSpaceOnUse">
<stop offset="0.0938" stop-color="white" stop-opacity="0"/>
<stop offset="0.9362" stop-color="#BBCBE0"/>
</linearGradient>
<linearGradient id="paint17_linear_7726_1861" x1="108.504" y1="168.534" x2="182.082" y2="168.534" gradientUnits="userSpaceOnUse">
<stop stop-color="#EFF3F9"/>
<stop offset="1" stop-color="#B6C9DE"/>
</linearGradient>
<linearGradient id="paint18_linear_7726_1861" x1="129.72" y1="50.6777" x2="188.11" y2="151.813" gradientUnits="userSpaceOnUse">
<stop stop-color="#EFF3F9"/>
<stop offset="1" stop-color="#B6C9DE"/>
</linearGradient>
<linearGradient id="paint19_linear_7726_1861" x1="132.778" y1="89.7623" x2="222.798" y2="89.7623" gradientUnits="userSpaceOnUse">
<stop stop-color="#EFF3F9"/>
<stop offset="1" stop-color="#B6C9DE"/>
</linearGradient>
<linearGradient id="paint20_linear_7726_1861" x1="205.824" y1="87.4776" x2="159.864" y2="87.4776" gradientUnits="userSpaceOnUse">
<stop stop-color="#EFF3F9"/>
<stop offset="1" stop-color="#A1BBD3"/>
</linearGradient>
<linearGradient id="paint21_linear_7726_1861" x1="198.926" y1="62.547" x2="212.722" y2="62.547" gradientUnits="userSpaceOnUse">
<stop stop-color="#EFF3F9"/>
<stop offset="1" stop-color="#B6C9DE"/>
</linearGradient>
<linearGradient id="paint22_linear_7726_1861" x1="198.242" y1="55.328" x2="229.434" y2="55.9488" gradientUnits="userSpaceOnUse">
<stop stop-color="#EFF3F9"/>
<stop offset="1" stop-color="#9BB8D1"/>
</linearGradient>
<linearGradient id="paint23_linear_7726_1861" x1="198.509" y1="54.2492" x2="229.242" y2="54.2492" gradientUnits="userSpaceOnUse">
<stop stop-color="#EFF3F9"/>
<stop offset="1" stop-color="#B6C9DE"/>
</linearGradient>
<linearGradient id="paint24_linear_7726_1861" x1="198.575" y1="48.9203" x2="241.379" y2="48.61" gradientUnits="userSpaceOnUse">
<stop stop-color="#EFF3F9"/>
<stop offset="1" stop-color="#9BB8D1"/>
</linearGradient>
<linearGradient id="paint25_linear_7726_1861" x1="198.502" y1="47.6836" x2="241.56" y2="47.6836" gradientUnits="userSpaceOnUse">
<stop stop-color="#EFF3F9"/>
<stop offset="1" stop-color="#B6C9DE"/>
</linearGradient>
<linearGradient id="paint26_linear_7726_1861" x1="160.608" y1="165.455" x2="160.608" y2="145.801" gradientUnits="userSpaceOnUse">
<stop stop-color="#E5EBF4"/>
<stop offset="1" stop-color="#9BB8D1"/>
</linearGradient>
<linearGradient id="paint27_linear_7726_1861" x1="148.003" y1="172.27" x2="148.003" y2="122.835" gradientUnits="userSpaceOnUse">
<stop stop-color="#EFF3F9"/>
<stop offset="1" stop-color="#B6C9DE"/>
</linearGradient>
<linearGradient id="paint28_linear_7726_1861" x1="118.358" y1="147.553" x2="148.772" y2="147.553" gradientUnits="userSpaceOnUse">
<stop stop-color="#EFF3F9"/>
<stop offset="1" stop-color="#B6C9DE"/>
</linearGradient>
<linearGradient id="paint29_linear_7726_1861" x1="132.01" y1="140.983" x2="139.729" y2="140.983" gradientUnits="userSpaceOnUse">
<stop stop-color="#E5EBF4"/>
<stop offset="1" stop-color="#9BB8D1"/>
</linearGradient>
<linearGradient id="paint30_linear_7726_1861" x1="134.699" y1="145.5" x2="134.699" y2="136.467" gradientUnits="userSpaceOnUse">
<stop stop-color="#E5EBF4"/>
<stop offset="1" stop-color="#9BB8D1"/>
</linearGradient>
<linearGradient id="paint31_linear_7726_1861" x1="108.504" y1="174.067" x2="149.481" y2="174.067" gradientUnits="userSpaceOnUse">
<stop stop-color="#EFF3F9"/>
<stop offset="1" stop-color="#B6C9DE"/>
</linearGradient>
<linearGradient id="paint32_linear_7726_1861" x1="149.481" y1="174.601" x2="182.081" y2="174.601" gradientUnits="userSpaceOnUse">
<stop stop-color="#EFF3F9"/>
<stop offset="1" stop-color="#B6C9DE"/>
</linearGradient>
<clipPath id="clip0_7726_1861">
<rect width="330" height="240" fill="white"/>
</clipPath>
</defs>
</svg>
