<svg width="330" height="240" viewBox="0 0 330 240" fill="none" xmlns="http://www.w3.org/2000/svg">
<g clip-path="url(#clip0_7726_1955)">
<path d="M107.18 89.0545V87.5378H94.0596V89.2991H91.1775V130.587H110.325V89.0545H107.18ZM108.666 125.855H92.6363V124.631H108.666V125.855ZM108.666 120.219H92.6363V118.996H108.666V120.219ZM108.666 114.58H92.6363V113.357H108.666V114.58ZM108.666 109.091H92.6363V107.868H108.666V109.091ZM108.666 103.612H92.6363V102.389H108.666V103.612ZM108.666 97.9765H92.6363V96.7534H108.666V97.9765ZM108.666 92.4837H92.6363V91.2606H108.666V92.4837Z" fill="url(#paint0_linear_7726_1955)"/>
<path d="M81.3924 112.102V63.983H66.8263V60.0957H60.6618V83.8152H59.0028V156.383H85.0262V112.102H81.3924ZM70.4956 126.246H66.8218V122.683H70.4956V126.246ZM70.4956 120.678H66.8218V117.115H70.4956V120.678ZM70.4956 115.127H66.8218V111.564H70.4956V115.127ZM70.4956 109.594H66.8218V106.031H70.4956V109.594ZM70.4956 104.021H66.8218V100.458H70.4956V104.021ZM70.4956 92.9018H66.8218V89.3392H70.4956V92.9018ZM70.4956 87.3288H66.8218V83.7662H70.4956V87.3288ZM70.4956 81.7826H66.8218V78.22H70.4956V81.7826ZM70.4956 76.2497H66.8218V72.6871H70.4956V76.2497ZM70.4956 70.6767H66.8218V67.1141H70.4956V70.6767ZM75.9885 126.246H72.3147V122.683H75.9885V126.246ZM75.9885 120.678H72.3147V117.115H75.9885V120.678ZM75.9885 115.127H72.3147V111.564H75.9885V115.127ZM75.9885 109.594H72.3147V106.031H75.9885V109.594ZM75.9885 104.021H72.3147V100.458H75.9885V104.021ZM75.9885 92.9018H72.3147V89.3392H75.9885V92.9018ZM75.9885 87.3288H72.3147V83.7662H75.9885V87.3288ZM75.9885 81.7826H72.3147V78.22H75.9885V81.7826ZM75.9885 76.2497H72.3147V72.6871H75.9885V76.2497ZM75.9885 70.6767H72.3147V67.1141H75.9885V70.6767Z" fill="url(#paint1_linear_7726_1955)"/>
<path d="M224.746 137.401C224.906 135.333 224.746 67.8035 224.746 67.8035H232.987V82.7966H246.108V114.13H253.549V137.401H224.746Z" fill="url(#paint2_linear_7726_1955)"/>
<path d="M278.656 107.09V104.933H276.432V86.1057H271.006V84.0153H267.345V80.9419H265.437V71.9843H264.063V81.0042H262.311V84.0776H256.885V89.1123H253.749V147.479H280.159V107.085H278.656V107.09ZM258.415 130.569H256.627V123.791H258.415V130.569ZM258.415 122.274H256.627V115.496H258.415V122.274ZM258.415 113.979H256.627V107.201H258.415V113.979ZM258.415 105.533H256.627V98.7593H258.415V105.533ZM258.415 97.0915H256.627V90.3132H258.415V97.0915ZM262.097 130.569H260.309V123.791H262.097V130.569ZM262.097 122.274H260.309V115.496H262.097V122.274ZM262.097 113.979H260.309V107.201H262.097V113.979ZM262.097 105.533H260.309V98.7593H262.097V105.533ZM262.097 97.0915H260.309V90.3132H262.097V97.0915ZM265.78 130.569H263.992V123.791H265.78V130.569ZM265.78 122.274H263.992V115.496H265.78V122.274ZM265.78 113.979H263.992V107.201H265.78V113.979ZM265.78 105.533H263.992V98.7593H265.78V105.533ZM265.78 97.0915H263.992V90.3132H265.78V97.0915ZM269.463 130.569H267.675V123.791H269.463V130.569ZM269.463 122.274H267.675V115.496H269.463V122.274ZM269.463 113.979H267.675V107.201H269.463V113.979ZM269.463 105.533H267.675V98.7593H269.463V105.533ZM269.463 97.0915H267.675V90.3132H269.463V97.0915ZM273.145 130.569H271.357V123.791H273.145V130.569ZM273.145 122.274H271.357V115.496H273.145V122.274ZM273.145 113.979H271.357V107.201H273.145V113.979ZM273.145 105.533H271.357V98.7593H273.145V105.533ZM273.145 97.0915H271.357V90.3132H273.145V97.0915Z" fill="url(#paint3_linear_7726_1955)"/>
<path d="M28.8521 166.199V126.37H33.4154V106.049L49.0979 99.2574V126.05H52.5404V166.199H28.8521Z" fill="url(#paint4_linear_7726_1955)"/>
<path d="M297.834 158.812H284.073V104.048L297.834 110.706V158.812Z" fill="url(#paint5_linear_7726_1955)"/>
<path d="M26.5482 26.8004C26.5482 26.8004 30.7023 15.4677 40.9142 19.9154C43.2715 17.5226 46.1891 15.7835 50.1342 16.5663C54.0793 17.3535 56.6234 20.3068 57.4862 22.2727C58.7227 22.2149 68.6232 22.544 68.6232 32.8137C68.6232 43.0834 56.6412 42.8877 55.7739 42.0737C54.7064 43.0256 49.5738 48.1893 43.3471 42.2961C41.9994 43.4481 37.5962 48.3272 30.6356 41.5934C27.411 42.941 19.7477 43.9774 18.2622 36.0649C16.7766 28.1525 24.4 25.9242 26.5482 26.8004Z" fill="url(#paint6_linear_7726_1955)"/>
<path d="M256.525 10.424C256.525 10.424 260.679 -0.908674 270.891 3.539C273.248 1.14615 276.165 -0.592888 280.111 0.189903C284.056 0.972695 286.6 3.9304 287.463 5.89628C288.699 5.83846 298.6 6.16758 298.6 16.4373C298.6 26.707 286.618 26.5113 285.75 25.6973C284.683 26.6491 279.55 31.8129 273.323 25.9197C271.976 27.0717 267.573 31.9508 260.612 25.217C257.387 26.5646 249.724 27.6009 248.238 19.6885C246.753 11.7806 254.376 9.54782 256.525 10.424Z" fill="url(#paint7_linear_7726_1955)"/>
<path d="M203.446 34.6772C203.446 34.6772 206.452 26.4712 213.844 29.6958C215.552 27.9612 217.66 26.7025 220.52 27.2718C223.376 27.8411 225.217 29.9805 225.84 31.3993C226.734 31.3592 233.903 31.595 233.903 39.027C233.903 46.4591 225.23 46.3168 224.603 45.7297C223.829 46.4191 220.115 50.1551 215.606 45.8942C214.631 46.726 211.443 50.2619 206.408 45.3872C204.073 46.3613 198.526 47.1129 197.45 41.3843C196.374 35.6601 201.889 34.0412 203.446 34.6772Z" fill="url(#paint8_linear_7726_1955)"/>
<path d="M165 240C256.127 240 330 213.137 330 180C330 146.863 256.127 120 165 120C73.873 120 0 146.863 0 180C0 213.137 73.873 240 165 240Z" fill="url(#paint9_linear_7726_1955)"/>
<path d="M52.0068 189.314C52.0068 189.314 50.4368 191.542 53.0609 194.86C55.4004 197.814 59.0964 197.24 60.324 196.293C60.702 198.863 63.8554 204.281 68.8457 201.216C73.538 198.339 71.2786 193.962 69.7797 192.241C72.7108 191.413 74.8946 184.391 68.1697 181.967C69.166 179.067 69.3439 177.755 67.885 175.148C66.4796 172.64 64.1712 172.24 60.4885 173.765L55.1602 176.011L51.7666 169.678L49.952 170.727L53.866 176.776L48.68 179.378C48.68 179.378 44.2456 181.113 46.1581 185.872C47.9327 190.284 52.0068 189.314 52.0068 189.314Z" fill="url(#paint10_linear_7726_1955)"/>
<path d="M42.978 162.312H59.0163C59.0163 162.312 64.1979 162.459 65.2297 156.539C66.3639 150.041 61.636 149.147 61.636 149.147C61.636 149.147 64.4825 147.84 63.8643 142.925C63.246 138.01 58.9185 137.392 57.1171 137.619C57.4107 134.706 58.0245 128.11 51.175 128.043C44.5614 127.976 44.6014 134.634 45.0951 137.259C42.7378 137.285 35.6171 140.821 40.6252 148.578C37.8987 150.913 36.7468 152.261 36.8669 155.627C36.987 158.994 39.0462 162.312 42.978 162.312Z" fill="url(#paint11_linear_7726_1955)"/>
<path d="M58.6205 153.31L51.7799 157.811L51.5931 153.457L55.9207 148.36L51.5264 151.914L50.9571 138.611L50.539 151.998L45.9223 148.324L50.4945 153.364L50.3567 157.842L43.3204 152.67L50.3033 159.457L49.9519 170.732H52.3359L51.8555 159.524L58.6205 153.31Z" fill="#C6D5E6"/>
<path d="M284.363 181.175C284.363 181.175 282.917 183.23 285.332 186.281C287.485 189.003 290.892 188.474 292.021 187.597C292.368 189.964 295.277 194.949 299.872 192.134C304.19 189.483 302.113 185.454 300.73 183.87C303.43 183.11 305.44 176.638 299.249 174.41C300.17 171.741 300.334 170.532 298.986 168.134C297.692 165.826 295.566 165.452 292.177 166.862L287.267 168.93L284.14 163.1L282.472 164.065L286.075 169.633L281.303 172.03C281.303 172.03 277.22 173.627 278.981 178.013C280.609 182.064 284.363 181.175 284.363 181.175Z" fill="url(#paint12_linear_7726_1955)"/>
<path d="M276.05 156.303H290.816C290.816 156.303 295.588 156.441 296.536 150.988C297.577 145.006 293.227 144.184 293.227 144.184C293.227 144.184 295.851 142.978 295.277 138.455C294.703 133.932 290.723 133.358 289.064 133.571C289.335 130.889 289.9 124.814 283.593 124.752C277.504 124.689 277.54 130.818 277.993 133.238C275.823 133.26 269.263 136.516 273.879 143.663C271.371 145.811 270.308 147.057 270.419 150.152C270.53 153.248 272.429 156.303 276.05 156.303Z" fill="url(#paint13_linear_7726_1955)"/>
<path d="M290.456 148.017L284.153 152.163L283.984 148.155L287.965 143.459L283.922 146.732L283.397 134.483L283.01 146.812L278.763 143.427L282.97 148.066L282.841 152.189L276.366 147.43L282.797 153.679L282.472 164.06H284.665L284.225 153.742L290.456 148.017Z" fill="#C6D5E6"/>
<path d="M88.8914 141.057C88.8914 141.057 88.1131 142.16 89.4118 143.801C90.5682 145.264 92.3962 144.98 93.0055 144.508C93.1923 145.78 94.7535 148.458 97.2219 146.945C99.5436 145.522 98.4272 143.356 97.6845 142.507C99.1344 142.097 100.215 138.624 96.8884 137.427C97.382 135.995 97.471 135.346 96.746 134.056C96.0522 132.815 94.9091 132.615 93.09 133.371L90.4526 134.483L88.7758 131.352L87.8774 131.872L89.8121 134.861L87.2458 136.146C87.2458 136.146 85.0531 137.005 86.0004 139.358C86.8766 141.537 88.8914 141.057 88.8914 141.057Z" fill="url(#paint14_linear_7726_1955)"/>
<path d="M84.4259 127.7H92.3562C92.3562 127.7 94.918 127.772 95.4295 124.845C95.9899 121.629 93.6504 121.189 93.6504 121.189C93.6504 121.189 95.0603 120.54 94.7535 118.111C94.4466 115.683 92.3072 115.376 91.4177 115.487C91.5645 114.046 91.8669 110.781 88.4778 110.75C85.2043 110.719 85.2265 114.01 85.4712 115.309C84.3059 115.322 80.7833 117.07 83.2607 120.909C81.913 122.061 81.3393 122.732 81.4015 124.396C81.4638 126.059 82.4823 127.7 84.4259 127.7Z" fill="url(#paint15_linear_7726_1955)"/>
<path d="M92.1649 123.248L88.7802 125.472L88.6868 123.319L90.8262 120.798L88.6557 122.554L88.3711 115.976L88.1665 122.599L85.8848 120.78L88.1442 123.275L88.0731 125.49L84.595 122.932L88.0508 126.286L87.8774 131.863H89.0515L88.8158 126.322L92.1649 123.248Z" fill="#C6D5E6"/>
<path d="M209.864 147.812L301.5 200.456L178.025 240L118.5 144L209.864 147.812Z" fill="url(#paint16_linear_7726_1955)"/>
<path d="M222.281 67.6835C206.661 65.7131 201.333 52.6725 200.323 46.0677C200.101 44.6133 198.989 43.4614 197.548 43.1723C184.578 40.5837 168.442 40.904 166.57 40.9529C164.702 40.904 148.561 40.5837 135.592 43.1723C134.151 43.4614 133.039 44.6133 132.816 46.0677C131.807 52.6725 126.478 65.7131 110.858 67.6835C109.106 67.9058 107.78 69.378 107.776 71.1482C107.758 87.4801 107.602 82.2318 107.602 95.8417C107.602 110.279 111.952 139.678 123.952 151.162C135.569 162.277 148.219 170.563 165.689 178.551C166.227 178.827 166.863 178.831 167.406 178.569L167.437 178.551C184.903 170.563 197.557 162.277 209.174 151.162C221.178 139.682 225.524 110.283 225.524 95.8417C225.524 82.2318 225.368 87.4801 225.35 71.1482C225.359 69.3825 224.034 67.9058 222.281 67.6835Z" fill="url(#paint17_linear_7726_1955)"/>
<path d="M212.71 74.9287C199.776 73.2964 195.359 62.4974 194.523 57.0268C194.341 55.8214 193.42 54.8696 192.224 54.6295C181.483 52.4857 168.117 52.7525 166.57 52.7926C165.022 52.7525 151.657 52.4857 140.915 54.6295C139.719 54.8696 138.803 55.8214 138.616 57.0268C137.78 62.4974 133.368 73.2964 120.429 74.9287C118.975 75.111 117.881 76.3341 117.876 77.7974C117.863 91.3228 117.734 86.9774 117.734 98.2478C117.734 110.203 121.337 134.554 131.277 144.059C140.898 153.261 151.376 160.124 165.84 166.742C166.285 166.969 166.81 166.973 167.259 166.755L167.286 166.742C181.754 160.128 192.228 153.266 201.849 144.059C211.789 134.55 215.392 110.203 215.392 98.2478C215.392 86.9774 215.263 91.3228 215.249 77.7974C215.258 76.3341 214.16 75.111 212.71 74.9287Z" fill="url(#paint18_linear_7726_1955)"/>
<path d="M182.274 99.8491H150.869C149.277 99.8491 147.987 101.139 147.987 102.731V127.242C147.987 128.835 149.277 130.124 150.869 130.124H182.274C183.867 130.124 185.157 128.835 185.157 127.242V102.731C185.157 101.139 183.867 99.8491 182.274 99.8491ZM168.34 114.66L168.722 123.226H164.284L164.653 114.624C163.612 113.988 162.914 112.85 162.914 111.538C162.914 109.541 164.533 107.926 166.525 107.926C168.522 107.926 170.137 109.545 170.137 111.538C170.137 112.872 169.412 114.033 168.34 114.66Z" fill="url(#paint19_linear_7726_1955)"/>
<path d="M181.821 96.371H175.407V93.1108C175.407 88.2406 171.444 84.2733 166.57 84.2733C161.7 84.2733 157.737 88.2362 157.737 93.1108V96.371H151.323V93.1108C151.323 84.7003 158.164 77.8597 166.574 77.8597C174.985 77.8597 181.825 84.7003 181.825 93.1108V96.371H181.821Z" fill="url(#paint20_linear_7726_1955)"/>
</g>
<defs>
<linearGradient id="paint0_linear_7726_1955" x1="100.75" y1="130.59" x2="100.75" y2="87.5417" gradientUnits="userSpaceOnUse">
<stop offset="5.35827e-07" stop-color="white" stop-opacity="0"/>
<stop offset="1" stop-color="#DBE3EE"/>
</linearGradient>
<linearGradient id="paint1_linear_7726_1955" x1="72.0106" y1="156.383" x2="72.0106" y2="60.0956" gradientUnits="userSpaceOnUse">
<stop offset="5.35827e-07" stop-color="white" stop-opacity="0"/>
<stop offset="1" stop-color="#DBE3EE"/>
</linearGradient>
<linearGradient id="paint2_linear_7726_1955" x1="239.146" y1="137.401" x2="239.146" y2="67.8031" gradientUnits="userSpaceOnUse">
<stop offset="5.35827e-07" stop-color="white" stop-opacity="0"/>
<stop offset="1" stop-color="#DBE3EE"/>
</linearGradient>
<linearGradient id="paint3_linear_7726_1955" x1="266.955" y1="147.484" x2="266.955" y2="71.9885" gradientUnits="userSpaceOnUse">
<stop offset="5.35827e-07" stop-color="white" stop-opacity="0"/>
<stop offset="1" stop-color="#DBE3EE"/>
</linearGradient>
<linearGradient id="paint4_linear_7726_1955" x1="40.6962" y1="166.199" x2="40.6962" y2="99.2553" gradientUnits="userSpaceOnUse">
<stop offset="5.35827e-07" stop-color="white" stop-opacity="0"/>
<stop offset="1" stop-color="#EDF1F9"/>
</linearGradient>
<linearGradient id="paint5_linear_7726_1955" x1="290.955" y1="158.813" x2="290.955" y2="104.048" gradientUnits="userSpaceOnUse">
<stop offset="5.35827e-07" stop-color="white" stop-opacity="0"/>
<stop offset="1" stop-color="#EDF1F9"/>
</linearGradient>
<linearGradient id="paint6_linear_7726_1955" x1="43.3487" y1="45.0854" x2="43.3487" y2="16.3795" gradientUnits="userSpaceOnUse">
<stop offset="0.2332" stop-color="white" stop-opacity="0"/>
<stop offset="1" stop-color="#D3DFEE"/>
</linearGradient>
<linearGradient id="paint7_linear_7726_1955" x1="273.324" y1="28.7087" x2="273.324" y2="0.0028779" gradientUnits="userSpaceOnUse">
<stop offset="0.2332" stop-color="white" stop-opacity="0"/>
<stop offset="1" stop-color="#D3DFEE"/>
</linearGradient>
<linearGradient id="paint8_linear_7726_1955" x1="215.606" y1="47.9109" x2="215.606" y2="27.1326" gradientUnits="userSpaceOnUse">
<stop offset="0.2332" stop-color="white" stop-opacity="0"/>
<stop offset="1" stop-color="#D3DFEE"/>
</linearGradient>
<linearGradient id="paint9_linear_7726_1955" x1="164.999" y1="240.003" x2="164.999" y2="120" gradientUnits="userSpaceOnUse">
<stop offset="0.4065" stop-color="white" stop-opacity="0"/>
<stop offset="1" stop-color="#DAE4EF"/>
</linearGradient>
<linearGradient id="paint10_linear_7726_1955" x1="72.0116" y1="198.679" x2="49.1344" y2="171.415" gradientUnits="userSpaceOnUse">
<stop offset="0.4034" stop-color="#EFF4F8"/>
<stop offset="1" stop-color="#D4DFEC"/>
</linearGradient>
<linearGradient id="paint11_linear_7726_1955" x1="36.8537" y1="145.177" x2="65.4019" y2="145.177" gradientUnits="userSpaceOnUse">
<stop offset="0.1022" stop-color="#F0F5F8"/>
<stop offset="1" stop-color="#B4C7DC"/>
</linearGradient>
<linearGradient id="paint12_linear_7726_1955" x1="302.785" y1="189.796" x2="281.718" y2="164.689" gradientUnits="userSpaceOnUse">
<stop offset="0.4034" stop-color="#EFF4F8"/>
<stop offset="1" stop-color="#D4DFEC"/>
</linearGradient>
<linearGradient id="paint13_linear_7726_1955" x1="270.409" y1="140.528" x2="296.698" y2="140.528" gradientUnits="userSpaceOnUse">
<stop offset="0.1022" stop-color="#F0F5F8"/>
<stop offset="1" stop-color="#B4C7DC"/>
</linearGradient>
<linearGradient id="paint14_linear_7726_1955" x1="98.7864" y1="145.687" x2="87.471" y2="132.202" gradientUnits="userSpaceOnUse">
<stop offset="1.4385e-07" stop-color="#EAEFF6"/>
<stop offset="1" stop-color="#CDDAE9"/>
</linearGradient>
<linearGradient id="paint15_linear_7726_1955" x1="81.3967" y1="119.225" x2="95.5172" y2="119.225" gradientUnits="userSpaceOnUse">
<stop offset="0.1022" stop-color="#F0F5F8"/>
<stop offset="1" stop-color="#B4C7DC"/>
</linearGradient>
<linearGradient id="paint16_linear_7726_1955" x1="228.442" y1="227.559" x2="202.7" y2="123.225" gradientUnits="userSpaceOnUse">
<stop offset="0.0698" stop-color="white" stop-opacity="0"/>
<stop offset="0.7853" stop-color="#BBCBE0"/>
<stop offset="1" stop-color="#BBCBE0"/>
</linearGradient>
<linearGradient id="paint17_linear_7726_1955" x1="107.609" y1="109.836" x2="225.535" y2="109.836" gradientUnits="userSpaceOnUse">
<stop stop-color="#EFF3F9"/>
<stop offset="1" stop-color="#B6C9DE"/>
</linearGradient>
<linearGradient id="paint18_linear_7726_1955" x1="117.741" y1="109.836" x2="215.403" y2="109.836" gradientUnits="userSpaceOnUse">
<stop stop-color="#DDE5F0"/>
<stop offset="1" stop-color="#9FB7CE"/>
</linearGradient>
<linearGradient id="paint19_linear_7726_1955" x1="147.988" y1="114.987" x2="185.156" y2="114.987" gradientUnits="userSpaceOnUse">
<stop offset="0.1453" stop-color="white"/>
<stop offset="1" stop-color="#D8E3EF"/>
</linearGradient>
<linearGradient id="paint20_linear_7726_1955" x1="151.322" y1="87.1158" x2="181.822" y2="87.1158" gradientUnits="userSpaceOnUse">
<stop offset="0.1453" stop-color="white"/>
<stop offset="1" stop-color="#D8E3EF"/>
</linearGradient>
<clipPath id="clip0_7726_1955">
<rect width="330" height="240" fill="white"/>
</clipPath>
</defs>
</svg>
