<svg width="306" height="240" viewBox="0 0 306 240" fill="none" xmlns="http://www.w3.org/2000/svg">
<path d="M107.185 90.182V88.6462H94.0642V90.4297H91.1821V132.24H110.329V90.182H107.185ZM108.67 127.448H92.641V126.209H108.67V127.448ZM108.67 121.737H92.641V120.498H108.67V121.737ZM108.67 116.026H92.641V114.787H108.67V116.026ZM108.67 110.468H92.641V109.229H108.67V110.468ZM108.67 104.924H92.641V103.685H108.67V104.924ZM108.67 99.2125H92.641V97.9739H108.67V99.2125ZM108.67 93.6546H92.641V92.416H108.67V93.6546Z" fill="url(#paint0_linear_7726_2073)"/>
<path d="M81.3925 113.517V64.7935H66.8264V60.857H60.6619V84.8767H59.0029V158.359H85.0263V113.517H81.3925ZM70.5002 127.845H66.8264V124.237H70.5002V127.845ZM70.5002 122.201H66.8264V118.593H70.5002V122.201ZM70.5002 116.585H66.8264V112.977H70.5002V116.585ZM70.5002 110.982H66.8264V107.374H70.5002V110.982ZM70.5002 105.338H66.8264V101.731H70.5002V105.338ZM70.5002 94.0783H66.8264V90.4706H70.5002V94.0783ZM70.5002 88.4348H66.8264V84.8272H70.5002V88.4348ZM70.5002 82.8139H66.8264V79.2062H70.5002V82.8139ZM70.5002 77.2109H66.8264V73.6033H70.5002V77.2109ZM70.5002 71.5674H66.8264V67.9598H70.5002V71.5674ZM75.9931 127.845H72.3193V124.237H75.9931V127.845ZM75.9931 122.201H72.3193V118.593H75.9931V122.201ZM75.9931 116.585H72.3193V112.977H75.9931V116.585ZM75.9931 110.982H72.3193V107.374H75.9931V110.982ZM75.9931 105.338H72.3193V101.731H75.9931V105.338ZM75.9931 94.0783H72.3193V90.4706H75.9931V94.0783ZM75.9931 88.4348H72.3193V84.8272H75.9931V88.4348ZM75.9931 82.8139H72.3193V79.2062H75.9931V82.8139ZM75.9931 77.2109H72.3193V73.6033H75.9931V77.2109ZM75.9931 71.5674H72.3193V67.9598H75.9931V71.5674Z" fill="url(#paint1_linear_7726_2073)"/>
<path d="M224.746 139.135C224.906 137.041 224.746 68.6569 224.746 68.6569H232.987V83.8398H246.108V115.57H253.549V139.135H224.746Z" fill="url(#paint2_linear_7726_2073)"/>
<path d="M278.66 108.446V106.261H276.437V87.1959H271.01V85.0791H267.35V81.9668H265.442V72.8958H264.068V82.0299H262.315V85.1421H256.889V90.2406H253.753V149.346H280.164V108.441H278.66V108.446ZM258.415 132.218H256.627V125.354H258.415V132.218ZM258.415 123.818H256.627V116.954H258.415V123.818ZM258.415 115.418H256.627V108.554H258.415V115.418ZM258.415 106.869H256.627V100.005H258.415V106.869ZM258.415 98.3163H256.627V91.4522H258.415V98.3163ZM262.097 132.218H260.309V125.354H262.097V132.218ZM262.097 123.818H260.309V116.954H262.097V123.818ZM262.097 115.418H260.309V108.554H262.097V115.418ZM262.097 106.869H260.309V100.005H262.097V106.869ZM262.097 98.3163H260.309V91.4522H262.097V98.3163ZM265.78 132.218H263.992V125.354H265.78V132.218ZM265.78 123.818H263.992V116.954H265.78V123.818ZM265.78 115.418H263.992V108.554H265.78V115.418ZM265.78 106.869H263.992V100.005H265.78V106.869ZM265.78 98.3163H263.992V91.4522H265.78V98.3163ZM269.463 132.218H267.675V125.354H269.463V132.218ZM269.463 123.818H267.675V116.954H269.463V123.818ZM269.463 115.418H267.675V108.554H269.463V115.418ZM269.463 106.869H267.675V100.005H269.463V106.869ZM269.463 98.3163H267.675V91.4522H269.463V98.3163ZM273.145 132.218H271.357V125.354H273.145V132.218ZM273.145 123.818H271.357V116.954H273.145V123.818ZM273.145 115.418H271.357V108.554H273.145V115.418ZM273.145 106.869H271.357V100.005H273.145V106.869ZM273.145 98.3163H271.357V91.4522H273.145V98.3163Z" fill="url(#paint3_linear_7726_2073)"/>
<path d="M28.8567 168.299V127.971H33.4156V107.387L49.1025 100.51V127.646H52.5406V168.299H28.8567Z" fill="url(#paint4_linear_7726_2073)"/>
<path d="M297.839 160.822H284.077V105.365L297.839 112.107V160.822Z" fill="url(#paint5_linear_7726_2073)"/>
<path d="M26.5528 27.1398C26.5528 27.1398 30.7069 15.6636 40.9188 20.1676C43.2761 17.7445 46.1937 15.9834 50.1388 16.7761C54.0839 17.5733 56.628 20.564 57.4908 22.5547C58.7273 22.4962 68.6278 22.8295 68.6278 33.2291C68.6278 43.6288 56.6458 43.4306 55.7785 42.6064C54.711 43.5703 49.5784 48.7994 43.3517 42.8316C42.004 43.9981 37.6008 48.939 30.6402 42.12C27.4156 43.4847 19.7523 44.5341 18.2668 36.5215C16.7812 28.509 24.4001 26.248 26.5528 27.1398Z" fill="url(#paint6_linear_7726_2073)"/>
<path d="M256.529 10.556C256.529 10.556 260.683 -0.920176 270.895 3.5838C273.252 1.16066 276.17 -0.600393 280.115 0.192307C284.06 0.98951 286.604 3.98015 287.467 5.97091C288.703 5.91236 298.604 6.24565 298.604 16.6453C298.604 27.045 286.622 26.8468 285.755 26.0226C284.687 26.9865 279.554 32.2156 273.328 26.2478C271.98 27.4143 267.577 32.3552 260.616 25.5362C257.392 26.9009 249.728 27.9503 248.243 19.9377C246.753 11.9297 254.376 9.66416 256.529 10.556Z" fill="url(#paint7_linear_7726_2073)"/>
<path d="M203.45 35.1119C203.45 35.1119 206.457 26.8021 213.849 30.0675C215.557 28.3109 217.665 27.0363 220.525 27.6128C223.38 28.1893 225.222 30.3557 225.844 31.7925C226.738 31.752 233.908 31.9907 233.908 39.5168C233.908 47.043 225.235 46.8988 224.608 46.3043C223.834 47.0024 220.12 50.7858 215.61 46.471C214.636 47.3132 211.447 50.8939 206.412 45.9575C204.077 46.9439 198.531 47.705 197.455 41.9039C196.374 36.1073 201.894 34.4679 203.45 35.1119Z" fill="url(#paint8_linear_7726_2073)"/>
<path d="M165 240C256.127 240 330 213.477 330 180.759C330 148.042 256.127 121.519 165 121.519C73.873 121.519 0 148.042 0 180.759C0 213.477 73.873 240 165 240Z" fill="url(#paint9_linear_7726_2073)"/>
<path d="M52.0072 191.713C52.0072 191.713 50.4372 193.969 53.0613 197.329C55.4008 200.32 59.0968 199.739 60.3243 198.779C60.7024 201.383 63.8558 206.869 68.8461 203.765C73.5384 200.851 71.279 196.419 69.7801 194.676C72.7111 193.839 74.8949 186.727 68.17 184.272C69.1663 181.336 69.3442 180.007 67.8854 177.368C66.4799 174.827 64.1716 174.422 60.4889 175.967L55.1606 178.241L51.767 171.828L49.9524 172.891L53.8663 179.016L48.6803 181.651C48.6803 181.651 44.246 183.407 46.1585 188.227C47.9331 192.69 52.0072 191.713 52.0072 191.713Z" fill="url(#paint10_linear_7726_2073)"/>
<path d="M42.9785 164.363H59.0168C59.0168 164.363 64.1983 164.512 65.2302 158.517C66.3644 151.937 61.6365 151.031 61.6365 151.031C61.6365 151.031 64.483 149.707 63.8648 144.73C63.2421 139.758 58.9189 139.127 57.1176 139.357C57.4112 136.407 58.025 129.728 51.1755 129.66C44.5618 129.592 44.6019 136.335 45.0956 138.992C42.7383 139.019 35.6176 142.6 40.6256 150.455C37.8992 152.819 36.7473 154.184 36.8674 157.594C36.9874 161.008 39.0512 164.363 42.9785 164.363Z" fill="url(#paint11_linear_7726_2073)"/>
<path d="M58.6254 155.248L51.7849 159.806L51.5981 155.401L55.9213 150.239L51.5314 153.833L50.9621 140.367L50.544 153.924L45.9273 150.203L50.4995 155.302L50.3572 159.837L43.3254 154.604L50.3083 161.472L49.9569 172.894H52.3364L51.8561 161.544L58.6254 155.248Z" fill="#C6D5E6"/>
<path d="M284.362 183.464C284.362 183.464 282.917 185.545 285.332 188.635C287.485 191.391 290.892 190.855 292.021 189.968C292.368 192.364 295.277 197.413 299.872 194.562C304.19 191.877 302.113 187.797 300.73 186.193C303.43 185.423 305.44 178.87 299.249 176.613C300.17 173.911 300.334 172.686 298.986 170.258C297.692 167.921 295.566 167.542 292.177 168.97L287.267 171.065L284.14 165.16L282.472 166.137L286.075 171.776L281.303 174.204C281.303 174.204 277.22 175.821 278.981 180.262C280.613 184.365 284.362 183.464 284.362 183.464Z" fill="url(#paint12_linear_7726_2073)"/>
<path d="M276.05 158.282H290.816C290.816 158.282 295.588 158.422 296.536 152.9C297.577 146.842 293.227 146.009 293.227 146.009C293.227 146.009 295.851 144.789 295.277 140.208C294.703 135.627 290.723 135.046 289.064 135.263C289.335 132.547 289.9 126.394 283.593 126.331C277.504 126.268 277.54 132.475 277.993 134.925C275.823 134.947 269.263 138.244 273.879 145.482C271.371 147.658 270.308 148.919 270.419 152.053C270.535 155.193 272.434 158.282 276.05 158.282Z" fill="url(#paint13_linear_7726_2073)"/>
<path d="M290.456 149.887L284.158 154.085L283.984 150.027L287.969 145.275L283.927 148.586L283.402 136.182L283.015 148.667L278.763 145.239L282.975 149.937L282.846 154.117L276.365 149.293L282.797 155.621L282.472 166.138H284.665L284.225 155.684L290.456 149.887Z" fill="#C6D5E6"/>
<path d="M88.8914 142.837C88.8914 142.837 88.1131 143.954 89.4118 145.616C90.5682 147.097 92.3962 146.809 93.0055 146.332C93.1923 147.62 94.7535 150.331 97.2219 148.8C99.5436 147.359 98.4272 145.165 97.6845 144.305C99.1344 143.891 100.215 140.373 96.8883 139.161C97.382 137.711 97.471 137.054 96.746 135.747C96.0522 134.491 94.9091 134.288 93.09 135.054L90.4526 136.18L88.7758 133.009L87.8774 133.536L89.8121 136.563L87.2458 137.864C87.2458 137.864 85.0531 138.734 86.0004 141.116C86.8766 143.323 88.8914 142.837 88.8914 142.837Z" fill="url(#paint14_linear_7726_2073)"/>
<path d="M84.4264 129.311H92.3566C92.3566 129.311 94.9185 129.384 95.43 126.42C95.9904 123.164 93.6509 122.718 93.6509 122.718C93.6509 122.718 95.0608 122.06 94.7539 119.601C94.4471 117.142 92.3077 116.831 91.4182 116.944C91.565 115.484 91.8674 112.178 88.4783 112.147C85.2048 112.115 85.227 115.448 85.4716 116.763C84.3063 116.777 80.7838 118.547 83.2611 122.434C81.9135 123.6 81.3397 124.281 81.402 125.965C81.4643 127.65 82.4873 129.311 84.4264 129.311Z" fill="url(#paint15_linear_7726_2073)"/>
<path d="M92.1649 124.803L88.7802 127.06L88.6912 124.88L90.8306 122.326L88.6556 124.105L88.3754 117.444L88.1664 124.146L85.8847 122.308L88.1486 124.83L88.0774 127.073L84.5994 124.484L88.0508 127.884L87.8773 133.532H89.0559L88.8202 127.916L92.1649 124.803Z" fill="#C6D5E6"/>
<path d="M186.547 161.013L292.5 212.426L177.2 240L145.5 161.013H186.547Z" fill="url(#paint16_linear_7726_2073)"/>
<path d="M177.819 155.533H154.331L156.11 139.837H176.04L177.819 155.533Z" fill="url(#paint17_linear_7726_2073)"/>
<path d="M186.514 155.535H145.635V161.746H186.514V155.535Z" fill="url(#paint18_linear_7726_2073)"/>
<path d="M225.84 142.08H106.309C101.309 142.08 97.2576 137.977 97.2576 132.915V49.0821C97.2576 44.0196 101.309 39.9165 106.309 39.9165H225.84C230.839 39.9165 234.891 44.0196 234.891 49.0821V132.915C234.891 137.977 230.839 142.08 225.84 142.08Z" fill="url(#paint19_linear_7726_2073)"/>
<path d="M220.414 126.038H111.739C107.692 126.038 104.414 122.718 104.414 118.62V54.9741C104.414 50.8755 107.692 47.556 111.739 47.556H220.414C224.461 47.556 227.739 50.8755 227.739 54.9741V118.624C227.735 122.718 224.457 126.038 220.414 126.038Z" fill="url(#paint20_linear_7726_2073)"/>
<path d="M166.077 138.847C168.376 138.847 170.24 136.959 170.24 134.631C170.24 132.303 168.376 130.415 166.077 130.415C163.777 130.415 161.914 132.303 161.914 134.631C161.914 136.959 163.777 138.847 166.077 138.847Z" fill="#ECF0F7"/>
<path d="M195.906 83.0538C195.746 82.3602 195.404 81.7228 194.918 81.208C194.432 80.6932 193.818 80.3198 193.141 80.1266L192.188 79.9051C189.84 79.183 187.853 77.5804 186.634 75.4247C185.414 73.269 185.053 70.723 185.625 68.307L185.906 67.3893C186.078 66.6991 186.066 65.975 185.871 65.2911C185.677 64.6073 185.306 63.988 184.797 63.4969C183.703 62.666 182.549 61.9202 181.344 61.2658C180.174 60.5408 178.952 59.9061 177.688 59.3671C177.016 59.1621 176.301 59.1435 175.62 59.3133C174.938 59.4831 174.314 59.835 173.813 60.3323L173.141 61.0601C171.361 62.7708 169.001 63.7244 166.547 63.7244C164.093 63.7244 161.733 62.7708 159.953 61.0601L159.313 60.3481C158.811 59.8508 158.187 59.4989 157.505 59.3291C156.824 59.1594 156.11 59.1779 155.438 59.3829C154.163 59.9148 152.93 60.5443 151.75 61.2658C150.544 61.9303 149.39 62.6867 148.297 63.5285C147.783 64.0161 147.407 64.6344 147.209 65.319C147.011 66.0037 146.999 66.7295 147.172 67.4209L147.453 68.3386C148.019 70.7524 147.654 73.2941 146.431 75.4439C145.208 77.5938 143.221 79.1896 140.875 79.9051L139.938 80.1266C139.263 80.3222 138.653 80.6967 138.169 81.2114C137.686 81.726 137.347 82.3621 137.188 83.0538C137.015 84.4389 136.947 85.8354 136.984 87.231C136.95 88.6003 137.018 89.9702 137.188 91.3291C137.336 92.0346 137.67 92.6865 138.154 93.2156C138.638 93.7448 139.254 94.1317 139.938 94.3354L140.844 94.5411C143.207 95.2536 145.21 96.8571 146.439 99.0209C147.669 101.185 148.032 103.744 147.453 106.171L147.172 107.089C146.999 107.78 147.011 108.506 147.209 109.19C147.407 109.875 147.783 110.493 148.297 110.981C149.389 111.824 150.543 112.581 151.75 113.244C152.926 113.945 154.154 114.553 155.422 115.063C156.093 115.269 156.806 115.289 157.487 115.122C158.168 114.955 158.793 114.607 159.297 114.114L159.938 113.481C161.721 111.765 164.087 110.808 166.547 110.808C169.007 110.808 171.373 111.765 173.156 113.481L173.797 114.177C174.301 114.67 174.926 115.018 175.607 115.185C176.288 115.352 177.001 115.332 177.672 115.127C178.94 114.585 180.167 113.951 181.344 113.228C182.55 112.564 183.705 111.808 184.797 110.965C185.31 110.477 185.685 109.858 185.882 109.174C186.08 108.49 186.094 107.764 185.922 107.073L185.641 106.123C185.062 103.697 185.425 101.137 186.655 98.9735C187.884 96.8096 189.887 95.2061 192.25 94.4937L193.156 94.288C193.838 94.0937 194.455 93.716 194.942 93.195C195.429 92.6741 195.768 92.0293 195.922 91.3291C196.113 89.9666 196.202 88.5913 196.188 87.2152C196.198 85.8229 196.104 84.4317 195.906 83.0538ZM166.5 96.2342C164.614 96.2405 162.768 95.6797 161.196 94.623C159.625 93.5662 158.398 92.061 157.672 90.2979C156.946 88.5348 156.753 86.5931 157.117 84.7188C157.481 82.8444 158.386 81.1216 159.718 79.7686C161.05 78.4156 162.748 77.4932 164.598 77.1182C166.448 76.7432 168.366 76.9325 170.109 77.6621C171.852 78.3917 173.343 79.6288 174.392 81.2167C175.44 82.8046 176 84.672 176 86.5823C176.002 87.8477 175.758 89.1012 175.282 90.2711C174.805 91.441 174.106 92.5044 173.224 93.4007C172.342 94.2969 171.294 95.0085 170.14 95.4946C168.987 95.9808 167.75 96.2321 166.5 96.2342Z" fill="url(#paint21_linear_7726_2073)"/>
<defs>
<linearGradient id="paint0_linear_7726_2073" x1="100.753" y1="132.241" x2="100.753" y2="88.6475" gradientUnits="userSpaceOnUse">
<stop offset="5.35827e-07" stop-color="white"/>
<stop offset="1" stop-color="#DBE3EE"/>
</linearGradient>
<linearGradient id="paint1_linear_7726_2073" x1="72.0131" y1="158.36" x2="72.0131" y2="60.8543" gradientUnits="userSpaceOnUse">
<stop offset="5.35827e-07" stop-color="white" stop-opacity="0"/>
<stop offset="1" stop-color="#DBE3EE"/>
</linearGradient>
<linearGradient id="paint2_linear_7726_2073" x1="239.149" y1="139.137" x2="239.149" y2="68.6584" gradientUnits="userSpaceOnUse">
<stop offset="5.35827e-07" stop-color="white" stop-opacity="0"/>
<stop offset="1" stop-color="#DBE3EE"/>
</linearGradient>
<linearGradient id="paint3_linear_7726_2073" x1="266.958" y1="149.348" x2="266.958" y2="72.8974" gradientUnits="userSpaceOnUse">
<stop offset="5.35827e-07" stop-color="white" stop-opacity="0"/>
<stop offset="1" stop-color="#DBE3EE"/>
</linearGradient>
<linearGradient id="paint4_linear_7726_2073" x1="40.6989" y1="168.3" x2="40.6989" y2="100.509" gradientUnits="userSpaceOnUse">
<stop offset="5.35827e-07" stop-color="white" stop-opacity="0"/>
<stop offset="1" stop-color="#EDF1F9"/>
</linearGradient>
<linearGradient id="paint5_linear_7726_2073" x1="290.957" y1="160.821" x2="290.957" y2="105.363" gradientUnits="userSpaceOnUse">
<stop offset="5.35827e-07" stop-color="white" stop-opacity="0"/>
<stop offset="1" stop-color="#EDF1F9"/>
</linearGradient>
<linearGradient id="paint6_linear_7726_2073" x1="43.3513" y1="45.6535" x2="43.3513" y2="16.5843" gradientUnits="userSpaceOnUse">
<stop offset="0.2332" stop-color="white" stop-opacity="0"/>
<stop offset="1" stop-color="#D3DFEE"/>
</linearGradient>
<linearGradient id="paint7_linear_7726_2073" x1="273.327" y1="29.0695" x2="273.327" y2="0.000301483" gradientUnits="userSpaceOnUse">
<stop offset="0.2332" stop-color="white" stop-opacity="0"/>
<stop offset="1" stop-color="#D3DFEE"/>
</linearGradient>
<linearGradient id="paint8_linear_7726_2073" x1="215.609" y1="48.515" x2="215.609" y2="27.4737" gradientUnits="userSpaceOnUse">
<stop offset="0.2332" stop-color="white"/>
<stop offset="1" stop-color="#D3DFEE"/>
</linearGradient>
<linearGradient id="paint9_linear_7726_2073" x1="164.999" y1="240" x2="164.999" y2="121.516" gradientUnits="userSpaceOnUse">
<stop offset="0.4065" stop-color="white" stop-opacity="0"/>
<stop offset="1" stop-color="#DAE4EF"/>
</linearGradient>
<linearGradient id="paint10_linear_7726_2073" x1="72.0144" y1="201.193" x2="48.7988" y2="173.872" gradientUnits="userSpaceOnUse">
<stop offset="0.4034" stop-color="#EFF4F8"/>
<stop offset="1" stop-color="#D4DFEC"/>
</linearGradient>
<linearGradient id="paint11_linear_7726_2073" x1="36.8566" y1="147.013" x2="65.4048" y2="147.013" gradientUnits="userSpaceOnUse">
<stop offset="0.1022" stop-color="#F0F5F8"/>
<stop offset="1" stop-color="#B4C7DC"/>
</linearGradient>
<linearGradient id="paint12_linear_7726_2073" x1="302.787" y1="192.196" x2="281.409" y2="167.036" gradientUnits="userSpaceOnUse">
<stop offset="0.4034" stop-color="#EFF4F8"/>
<stop offset="1" stop-color="#D4DFEC"/>
</linearGradient>
<linearGradient id="paint13_linear_7726_2073" x1="270.412" y1="142.305" x2="296.701" y2="142.305" gradientUnits="userSpaceOnUse">
<stop offset="0.1022" stop-color="#F0F5F8"/>
<stop offset="1" stop-color="#B4C7DC"/>
</linearGradient>
<linearGradient id="paint14_linear_7726_2073" x1="98.7889" y1="147.528" x2="87.306" y2="134.014" gradientUnits="userSpaceOnUse">
<stop offset="1.4385e-07" stop-color="#EAEFF6"/>
<stop offset="1" stop-color="#CDDAE9"/>
</linearGradient>
<linearGradient id="paint15_linear_7726_2073" x1="81.3996" y1="120.731" x2="95.5201" y2="120.731" gradientUnits="userSpaceOnUse">
<stop offset="0.1022" stop-color="#F0F5F8"/>
<stop offset="1" stop-color="#B4C7DC"/>
</linearGradient>
<linearGradient id="paint16_linear_7726_2073" x1="234.213" y1="227.45" x2="216.162" y2="145.457" gradientUnits="userSpaceOnUse">
<stop offset="0.0938" stop-color="white" stop-opacity="0"/>
<stop offset="0.9362" stop-color="#BBCBE0"/>
</linearGradient>
<linearGradient id="paint17_linear_7726_2073" x1="154.331" y1="147.687" x2="177.819" y2="147.687" gradientUnits="userSpaceOnUse">
<stop stop-color="#DDE5F0"/>
<stop offset="1" stop-color="#9FB7CE"/>
</linearGradient>
<linearGradient id="paint18_linear_7726_2073" x1="145.635" y1="158.641" x2="186.515" y2="158.641" gradientUnits="userSpaceOnUse">
<stop stop-color="#D4DEEC"/>
<stop offset="1" stop-color="#B6C9DE"/>
</linearGradient>
<linearGradient id="paint19_linear_7726_2073" x1="97.2586" y1="90.9994" x2="234.891" y2="90.9994" gradientUnits="userSpaceOnUse">
<stop stop-color="#CED9E9"/>
<stop offset="1" stop-color="#A7BFD6"/>
</linearGradient>
<linearGradient id="paint20_linear_7726_2073" x1="227.736" y1="86.7977" x2="104.413" y2="86.7977" gradientUnits="userSpaceOnUse">
<stop stop-color="#E7ECF4"/>
<stop offset="1" stop-color="#E4E9F3"/>
</linearGradient>
<linearGradient id="paint21_linear_7726_2073" x1="196.186" y1="87.2466" x2="136.974" y2="87.2466" gradientUnits="userSpaceOnUse">
<stop stop-color="#D4DEEB"/>
<stop offset="1" stop-color="#A7BFD6"/>
</linearGradient>
</defs>
</svg>
