<svg width="330" height="240" viewBox="0 0 330 240" fill="none" xmlns="http://www.w3.org/2000/svg">
<path d="M107.185 90.182V88.6462H94.0642V90.4297H91.1821V132.24H110.329V90.182H107.185ZM108.67 127.448H92.641V126.209H108.67V127.448ZM108.67 121.737H92.641V120.498H108.67V121.737ZM108.67 116.026H92.641V114.787H108.67V116.026ZM108.67 110.468H92.641V109.229H108.67V110.468ZM108.67 104.924H92.641V103.685H108.67V104.924ZM108.67 99.2125H92.641V97.9739H108.67V99.2125ZM108.67 93.6546H92.641V92.416H108.67V93.6546Z" fill="url(#paint0_linear_7726_2032)"/>
<path d="M81.3928 113.517V64.7935H66.8266V60.857H60.6622V84.8767H59.0032V158.359H85.0265V113.517H81.3928ZM70.5004 127.845H66.8266V124.237H70.5004V127.845ZM70.5004 122.201H66.8266V118.593H70.5004V122.201ZM70.5004 116.585H66.8266V112.977H70.5004V116.585ZM70.5004 110.982H66.8266V107.374H70.5004V110.982ZM70.5004 105.338H66.8266V101.731H70.5004V105.338ZM70.5004 94.0783H66.8266V90.4706H70.5004V94.0783ZM70.5004 88.4348H66.8266V84.8272H70.5004V88.4348ZM70.5004 82.8139H66.8266V79.2062H70.5004V82.8139ZM70.5004 77.2109H66.8266V73.6033H70.5004V77.2109ZM70.5004 71.5674H66.8266V67.9598H70.5004V71.5674ZM75.9933 127.845H72.3195V124.237H75.9933V127.845ZM75.9933 122.201H72.3195V118.593H75.9933V122.201ZM75.9933 116.585H72.3195V112.977H75.9933V116.585ZM75.9933 110.982H72.3195V107.374H75.9933V110.982ZM75.9933 105.338H72.3195V101.731H75.9933V105.338ZM75.9933 94.0783H72.3195V90.4706H75.9933V94.0783ZM75.9933 88.4348H72.3195V84.8272H75.9933V88.4348ZM75.9933 82.8139H72.3195V79.2062H75.9933V82.8139ZM75.9933 77.2109H72.3195V73.6033H75.9933V77.2109ZM75.9933 71.5674H72.3195V67.9598H75.9933V71.5674Z" fill="url(#paint1_linear_7726_2032)"/>
<path d="M224.746 139.135C224.906 137.041 224.746 68.6569 224.746 68.6569H232.987V83.8398H246.108V115.57H253.549V139.135H224.746Z" fill="url(#paint2_linear_7726_2032)"/>
<path d="M278.66 108.446V106.261H276.437V87.1959H271.01V85.0791H267.35V81.9668H265.442V72.8958H264.068V82.0299H262.315V85.1421H256.889V90.2406H253.753V149.346H280.164V108.441H278.66V108.446ZM258.415 132.218H256.627V125.354H258.415V132.218ZM258.415 123.818H256.627V116.954H258.415V123.818ZM258.415 115.418H256.627V108.554H258.415V115.418ZM258.415 106.869H256.627V100.005H258.415V106.869ZM258.415 98.3163H256.627V91.4522H258.415V98.3163ZM262.097 132.218H260.309V125.354H262.097V132.218ZM262.097 123.818H260.309V116.954H262.097V123.818ZM262.097 115.418H260.309V108.554H262.097V115.418ZM262.097 106.869H260.309V100.005H262.097V106.869ZM262.097 98.3163H260.309V91.4522H262.097V98.3163ZM265.78 132.218H263.992V125.354H265.78V132.218ZM265.78 123.818H263.992V116.954H265.78V123.818ZM265.78 115.418H263.992V108.554H265.78V115.418ZM265.78 106.869H263.992V100.005H265.78V106.869ZM265.78 98.3163H263.992V91.4522H265.78V98.3163ZM269.463 132.218H267.675V125.354H269.463V132.218ZM269.463 123.818H267.675V116.954H269.463V123.818ZM269.463 115.418H267.675V108.554H269.463V115.418ZM269.463 106.869H267.675V100.005H269.463V106.869ZM269.463 98.3163H267.675V91.4522H269.463V98.3163ZM273.145 132.218H271.357V125.354H273.145V132.218ZM273.145 123.818H271.357V116.954H273.145V123.818ZM273.145 115.418H271.357V108.554H273.145V115.418ZM273.145 106.869H271.357V100.005H273.145V106.869ZM273.145 98.3163H271.357V91.4522H273.145V98.3163Z" fill="url(#paint3_linear_7726_2032)"/>
<path d="M28.8569 168.299V127.971H33.4158V107.387L49.1028 100.51V127.646H52.5408V168.299H28.8569Z" fill="url(#paint4_linear_7726_2032)"/>
<path d="M297.839 160.822H284.077V105.365L297.839 112.107V160.822Z" fill="url(#paint5_linear_7726_2032)"/>
<path d="M26.5528 27.1398C26.5528 27.1398 30.7069 15.6636 40.9188 20.1676C43.2761 17.7445 46.1937 15.9834 50.1388 16.7761C54.0839 17.5733 56.628 20.564 57.4908 22.5547C58.7273 22.4962 68.6278 22.8295 68.6278 33.2291C68.6278 43.6288 56.6458 43.4306 55.7785 42.6064C54.711 43.5703 49.5784 48.7994 43.3517 42.8316C42.004 43.9981 37.6008 48.939 30.6402 42.12C27.4156 43.4847 19.7523 44.5341 18.2668 36.5215C16.7812 28.509 24.4001 26.248 26.5528 27.1398Z" fill="url(#paint6_linear_7726_2032)"/>
<path d="M256.529 10.556C256.529 10.556 260.683 -0.920176 270.895 3.5838C273.252 1.16066 276.17 -0.600393 280.115 0.192307C284.06 0.98951 286.604 3.98015 287.467 5.97091C288.703 5.91236 298.604 6.24565 298.604 16.6453C298.604 27.045 286.622 26.8468 285.754 26.0226C284.687 26.9865 279.554 32.2156 273.327 26.2478C271.98 27.4143 267.577 32.3552 260.616 25.5362C257.391 26.9009 249.728 27.9503 248.243 19.9377C246.753 11.9297 254.376 9.66416 256.529 10.556Z" fill="url(#paint7_linear_7726_2032)"/>
<path d="M203.45 35.1119C203.45 35.1119 206.457 26.8021 213.849 30.0675C215.557 28.3109 217.665 27.0363 220.525 27.6128C223.38 28.1893 225.221 30.3557 225.844 31.7925C226.738 31.752 233.908 31.9907 233.908 39.5168C233.908 47.043 225.235 46.8988 224.608 46.3043C223.834 47.0024 220.12 50.7858 215.61 46.471C214.636 47.3132 211.447 50.8939 206.412 45.9575C204.077 46.9439 198.531 47.705 197.455 41.9039C196.374 36.1073 201.893 34.4679 203.45 35.1119Z" fill="url(#paint8_linear_7726_2032)"/>
<path d="M165 240C256.127 240 330 213.477 330 180.759C330 148.042 256.127 121.519 165 121.519C73.873 121.519 0 148.042 0 180.759C0 213.477 73.873 240 165 240Z" fill="url(#paint9_linear_7726_2032)"/>
<path d="M52.0072 191.713C52.0072 191.713 50.4372 193.969 53.0613 197.329C55.4008 200.32 59.0968 199.739 60.3243 198.779C60.7024 201.383 63.8558 206.869 68.8461 203.765C73.5384 200.851 71.279 196.419 69.7801 194.676C72.7111 193.839 74.8949 186.727 68.17 184.272C69.1663 181.336 69.3442 180.007 67.8854 177.368C66.4799 174.827 64.1716 174.422 60.4889 175.967L55.1606 178.241L51.767 171.828L49.9524 172.891L53.8663 179.016L48.6803 181.651C48.6803 181.651 44.246 183.407 46.1585 188.227C47.9331 192.69 52.0072 191.713 52.0072 191.713Z" fill="url(#paint10_linear_7726_2032)"/>
<path d="M42.9785 164.363H59.0168C59.0168 164.363 64.1983 164.512 65.2302 158.517C66.3644 151.937 61.6365 151.031 61.6365 151.031C61.6365 151.031 64.483 149.707 63.8648 144.73C63.2421 139.758 58.9189 139.127 57.1176 139.357C57.4112 136.407 58.025 129.728 51.1755 129.66C44.5618 129.592 44.6019 136.335 45.0956 138.992C42.7383 139.019 35.6176 142.6 40.6256 150.455C37.8992 152.819 36.7473 154.184 36.8674 157.594C36.9874 161.008 39.0512 164.363 42.9785 164.363Z" fill="url(#paint11_linear_7726_2032)"/>
<path d="M58.6254 155.248L51.7849 159.806L51.5981 155.401L55.9213 150.239L51.5314 153.833L50.9621 140.367L50.544 153.924L45.9273 150.203L50.4995 155.302L50.3572 159.837L43.3254 154.604L50.3083 161.472L49.9569 172.894H52.3364L51.8561 161.544L58.6254 155.248Z" fill="#C6D5E6"/>
<path d="M284.362 183.464C284.362 183.464 282.917 185.545 285.332 188.635C287.485 191.391 290.892 190.855 292.021 189.968C292.368 192.364 295.277 197.413 299.872 194.562C304.19 191.877 302.113 187.797 300.73 186.193C303.43 185.423 305.44 178.87 299.249 176.613C300.17 173.911 300.334 172.686 298.986 170.258C297.692 167.921 295.566 167.542 292.177 168.97L287.267 171.065L284.14 165.16L282.472 166.137L286.075 171.776L281.303 174.204C281.303 174.204 277.22 175.821 278.981 180.262C280.613 184.365 284.362 183.464 284.362 183.464Z" fill="url(#paint12_linear_7726_2032)"/>
<path d="M276.05 158.282H290.816C290.816 158.282 295.589 158.422 296.536 152.9C297.577 146.842 293.227 146.009 293.227 146.009C293.227 146.009 295.851 144.789 295.277 140.208C294.704 135.627 290.723 135.046 289.064 135.263C289.335 132.547 289.9 126.394 283.593 126.331C277.504 126.268 277.54 132.475 277.994 134.925C275.823 134.947 269.263 138.244 273.88 145.482C271.371 147.658 270.308 148.919 270.419 152.053C270.535 155.193 272.434 158.282 276.05 158.282Z" fill="url(#paint13_linear_7726_2032)"/>
<path d="M290.456 149.887L284.158 154.085L283.985 150.027L287.97 145.275L283.927 148.586L283.402 136.182L283.015 148.667L278.763 145.239L282.975 149.937L282.846 154.117L276.366 149.293L282.797 155.621L282.472 166.138H284.665L284.225 155.684L290.456 149.887Z" fill="#C6D5E6"/>
<path d="M88.8917 142.837C88.8917 142.837 88.1133 143.954 89.412 145.616C90.5684 147.097 92.3964 146.809 93.0058 146.332C93.1926 147.62 94.7537 150.331 97.2222 148.8C99.5439 147.359 98.4275 145.165 97.6847 144.305C99.1347 143.891 100.215 140.373 96.8886 139.161C97.3823 137.711 97.4712 137.054 96.7463 135.747C96.0524 134.491 94.9094 134.288 93.0903 135.054L90.4528 136.18L88.776 133.009L87.8776 133.536L89.8123 136.563L87.246 137.864C87.246 137.864 85.0533 138.734 86.0007 141.116C86.8769 143.323 88.8917 142.837 88.8917 142.837Z" fill="url(#paint14_linear_7726_2032)"/>
<path d="M84.4264 129.311H92.3566C92.3566 129.311 94.9185 129.384 95.43 126.42C95.9904 123.164 93.6509 122.718 93.6509 122.718C93.6509 122.718 95.0608 122.06 94.7539 119.601C94.4471 117.142 92.3077 116.831 91.4182 116.944C91.565 115.484 91.8674 112.178 88.4783 112.147C85.2048 112.115 85.227 115.448 85.4716 116.763C84.3063 116.777 80.7838 118.547 83.2611 122.434C81.9135 123.6 81.3397 124.281 81.402 125.965C81.4643 127.65 82.4873 129.311 84.4264 129.311Z" fill="url(#paint15_linear_7726_2032)"/>
<path d="M92.1651 124.803L88.7804 127.06L88.6915 124.88L90.8308 122.326L88.6559 124.105L88.3757 117.444L88.1666 124.146L85.885 122.308L88.1489 124.83L88.0777 127.073L84.5996 124.484L88.051 127.884L87.8775 133.532H89.0562L88.8205 127.916L92.1651 124.803Z" fill="#C6D5E6"/>
<path d="M186.547 161.013L292.5 212.426L177.2 240L145.5 161.013H186.547Z" fill="url(#paint16_linear_7726_2032)"/>
<path d="M177.819 155.533H154.33L156.109 139.837H176.039L177.819 155.533Z" fill="url(#paint17_linear_7726_2032)"/>
<path d="M186.514 155.535H145.635V161.746H186.514V155.535Z" fill="url(#paint18_linear_7726_2032)"/>
<path d="M225.84 142.08H106.309C101.309 142.08 97.2576 137.977 97.2576 132.915V49.0821C97.2576 44.0196 101.309 39.9165 106.309 39.9165H225.84C230.839 39.9165 234.891 44.0196 234.891 49.0821V132.915C234.891 137.977 230.839 142.08 225.84 142.08Z" fill="url(#paint19_linear_7726_2032)"/>
<path d="M220.414 126.038H111.739C107.692 126.038 104.414 122.718 104.414 118.62V54.9741C104.414 50.8755 107.692 47.556 111.739 47.556H220.414C224.461 47.556 227.739 50.8755 227.739 54.9741V118.624C227.735 122.718 224.457 126.038 220.414 126.038Z" fill="url(#paint20_linear_7726_2032)"/>
<path d="M166.076 138.847C168.376 138.847 170.239 136.959 170.239 134.631C170.239 132.303 168.376 130.415 166.076 130.415C163.777 130.415 161.913 132.303 161.913 134.631C161.913 136.959 163.777 138.847 166.076 138.847Z" fill="#ECF0F7"/>
<path d="M170.849 82.8126H119.283V89.5415H170.849V82.8126Z" fill="url(#paint21_linear_7726_2032)"/>
<path d="M178.286 82.8127H174.189V89.5417H178.286V82.8127Z" fill="#D4DDEC"/>
<path d="M185.438 82.8127H181.341V89.5417H185.438V82.8127Z" fill="#D4DDEC"/>
<path d="M192.647 82.8127H188.551V89.5417H192.647V82.8127Z" fill="#D4DDEC"/>
<path d="M199.915 82.8127H195.818V89.5417H199.915V82.8127Z" fill="#D4DDEC"/>
<path d="M207.071 82.8127H202.975V89.5417H207.071V82.8127Z" fill="#D4DDEC"/>
<path d="M214.28 82.8127H210.184V89.5417H214.28V82.8127Z" fill="#D4DDEC"/>
<defs>
<linearGradient id="paint0_linear_7726_2032" x1="100.753" y1="132.241" x2="100.753" y2="88.6475" gradientUnits="userSpaceOnUse">
<stop offset="5.35827e-07" stop-color="white"/>
<stop offset="1" stop-color="#DBE3EE"/>
</linearGradient>
<linearGradient id="paint1_linear_7726_2032" x1="72.0134" y1="158.36" x2="72.0134" y2="60.8543" gradientUnits="userSpaceOnUse">
<stop offset="5.35827e-07" stop-color="white" stop-opacity="0"/>
<stop offset="1" stop-color="#DBE3EE"/>
</linearGradient>
<linearGradient id="paint2_linear_7726_2032" x1="239.149" y1="139.137" x2="239.149" y2="68.6584" gradientUnits="userSpaceOnUse">
<stop offset="5.35827e-07" stop-color="white" stop-opacity="0"/>
<stop offset="1" stop-color="#DBE3EE"/>
</linearGradient>
<linearGradient id="paint3_linear_7726_2032" x1="266.958" y1="149.348" x2="266.958" y2="72.8974" gradientUnits="userSpaceOnUse">
<stop offset="5.35827e-07" stop-color="white" stop-opacity="0"/>
<stop offset="1" stop-color="#DBE3EE"/>
</linearGradient>
<linearGradient id="paint4_linear_7726_2032" x1="40.6991" y1="168.3" x2="40.6991" y2="100.509" gradientUnits="userSpaceOnUse">
<stop offset="5.35827e-07" stop-color="white" stop-opacity="0"/>
<stop offset="1" stop-color="#EDF1F9"/>
</linearGradient>
<linearGradient id="paint5_linear_7726_2032" x1="290.957" y1="160.821" x2="290.957" y2="105.363" gradientUnits="userSpaceOnUse">
<stop offset="5.35827e-07" stop-color="white" stop-opacity="0"/>
<stop offset="1" stop-color="#EDF1F9"/>
</linearGradient>
<linearGradient id="paint6_linear_7726_2032" x1="43.3513" y1="45.6535" x2="43.3513" y2="16.5843" gradientUnits="userSpaceOnUse">
<stop offset="0.2332" stop-color="white" stop-opacity="0"/>
<stop offset="1" stop-color="#D3DFEE"/>
</linearGradient>
<linearGradient id="paint7_linear_7726_2032" x1="273.326" y1="29.0695" x2="273.326" y2="0.000301483" gradientUnits="userSpaceOnUse">
<stop offset="0.2332" stop-color="white" stop-opacity="0"/>
<stop offset="1" stop-color="#D3DFEE"/>
</linearGradient>
<linearGradient id="paint8_linear_7726_2032" x1="215.609" y1="48.515" x2="215.609" y2="27.4737" gradientUnits="userSpaceOnUse">
<stop offset="0.2332" stop-color="white"/>
<stop offset="1" stop-color="#D3DFEE"/>
</linearGradient>
<linearGradient id="paint9_linear_7726_2032" x1="164.999" y1="240" x2="164.999" y2="121.516" gradientUnits="userSpaceOnUse">
<stop offset="0.4065" stop-color="white" stop-opacity="0"/>
<stop offset="1" stop-color="#DAE4EF"/>
</linearGradient>
<linearGradient id="paint10_linear_7726_2032" x1="72.0144" y1="201.193" x2="48.7988" y2="173.872" gradientUnits="userSpaceOnUse">
<stop offset="0.4034" stop-color="#EFF4F8"/>
<stop offset="1" stop-color="#D4DFEC"/>
</linearGradient>
<linearGradient id="paint11_linear_7726_2032" x1="36.8566" y1="147.013" x2="65.4048" y2="147.013" gradientUnits="userSpaceOnUse">
<stop offset="0.1022" stop-color="#F0F5F8"/>
<stop offset="1" stop-color="#B4C7DC"/>
</linearGradient>
<linearGradient id="paint12_linear_7726_2032" x1="302.787" y1="192.196" x2="281.409" y2="167.036" gradientUnits="userSpaceOnUse">
<stop offset="0.4034" stop-color="#EFF4F8"/>
<stop offset="1" stop-color="#D4DFEC"/>
</linearGradient>
<linearGradient id="paint13_linear_7726_2032" x1="270.412" y1="142.305" x2="296.701" y2="142.305" gradientUnits="userSpaceOnUse">
<stop offset="0.1022" stop-color="#F0F5F8"/>
<stop offset="1" stop-color="#B4C7DC"/>
</linearGradient>
<linearGradient id="paint14_linear_7726_2032" x1="98.7891" y1="147.528" x2="87.3063" y2="134.014" gradientUnits="userSpaceOnUse">
<stop offset="1.4385e-07" stop-color="#EAEFF6"/>
<stop offset="1" stop-color="#CDDAE9"/>
</linearGradient>
<linearGradient id="paint15_linear_7726_2032" x1="81.3996" y1="120.731" x2="95.5201" y2="120.731" gradientUnits="userSpaceOnUse">
<stop offset="0.1022" stop-color="#F0F5F8"/>
<stop offset="1" stop-color="#B4C7DC"/>
</linearGradient>
<linearGradient id="paint16_linear_7726_2032" x1="234.213" y1="227.45" x2="216.162" y2="145.457" gradientUnits="userSpaceOnUse">
<stop offset="0.0938" stop-color="white" stop-opacity="0"/>
<stop offset="0.9362" stop-color="#BBCBE0"/>
</linearGradient>
<linearGradient id="paint17_linear_7726_2032" x1="154.331" y1="147.687" x2="177.819" y2="147.687" gradientUnits="userSpaceOnUse">
<stop stop-color="#DDE5F0"/>
<stop offset="1" stop-color="#9FB7CE"/>
</linearGradient>
<linearGradient id="paint18_linear_7726_2032" x1="145.634" y1="158.641" x2="186.515" y2="158.641" gradientUnits="userSpaceOnUse">
<stop stop-color="#D4DEEC"/>
<stop offset="1" stop-color="#B6C9DE"/>
</linearGradient>
<linearGradient id="paint19_linear_7726_2032" x1="97.2586" y1="90.9994" x2="234.891" y2="90.9994" gradientUnits="userSpaceOnUse">
<stop stop-color="#CED9E9"/>
<stop offset="1" stop-color="#A7BFD6"/>
</linearGradient>
<linearGradient id="paint20_linear_7726_2032" x1="227.737" y1="86.7977" x2="104.413" y2="86.7977" gradientUnits="userSpaceOnUse">
<stop stop-color="#E7ECF4"/>
<stop offset="1" stop-color="#E4E9F3"/>
</linearGradient>
<linearGradient id="paint21_linear_7726_2032" x1="170.846" y1="86.1769" x2="119.282" y2="86.1769" gradientUnits="userSpaceOnUse">
<stop stop-color="#D4DEEB"/>
<stop offset="1" stop-color="#A7BFD6"/>
</linearGradient>
</defs>
</svg>
